<svg width="67" height="49" viewBox="0 0 67 49" fill="none" xmlns="http://www.w3.org/2000/svg">
<path d="M66.0997 9.8074L57.0997 0.807398C56.7798 0.509318 56.3567 0.347042 55.9195 0.354755C55.4823 0.362469 55.0652 0.53957 54.756 0.848749C54.4469 1.15793 54.2698 1.57505 54.2621 2.01222C54.2543 2.4494 54.4166 2.87251 54.7147 3.1924L60.8319 9.3124H55.9072C42.4072 9.3124 39.1897 17.0355 36.3491 23.8502C33.6969 30.2177 31.3822 35.7555 21.4428 36.2702C21.0051 33.6181 19.5842 31.2283 17.4631 29.5771C15.3421 27.926 12.6767 27.1346 9.99827 27.3609C7.31983 27.5872 4.82501 28.8144 3.01103 30.798C1.19706 32.7817 0.197143 35.376 0.210583 38.0639C0.224023 40.7519 1.24983 43.336 3.08355 45.3014C4.91727 47.2668 7.42424 48.469 10.1048 48.6685C12.7854 48.868 15.4427 48.0501 17.5471 46.3778C19.6515 44.7055 21.0485 42.3016 21.4597 39.6452C33.6491 39.0658 36.7288 31.6887 39.4597 25.1468C42.2497 18.4615 44.6572 12.6874 55.9072 12.6874H60.8319L54.7147 18.8074C54.5489 18.9619 54.4159 19.1482 54.3237 19.3552C54.2315 19.5622 54.1819 19.7856 54.1779 20.0122C54.1739 20.2388 54.2155 20.4639 54.3004 20.674C54.3853 20.8841 54.5116 21.075 54.6719 21.2352C54.8321 21.3955 55.023 21.5218 55.2331 21.6067C55.4432 21.6916 55.6683 21.7332 55.8949 21.7292C56.1215 21.7252 56.3449 21.6756 56.5519 21.5834C56.7589 21.4912 56.9452 21.3582 57.0997 21.1924L66.0997 12.1924C66.4157 11.876 66.5932 11.4471 66.5932 10.9999C66.5932 10.5527 66.4157 10.1238 66.0997 9.8074ZM10.9072 45.3124C9.46091 45.3124 8.04712 44.8835 6.84458 44.08C5.64205 43.2765 4.70478 42.1345 4.15132 40.7983C3.59785 39.4621 3.45304 37.9918 3.73519 36.5733C4.01735 35.1548 4.7138 33.8519 5.73647 32.8292C6.75914 31.8065 8.0621 31.1101 9.48059 30.8279C10.8991 30.5458 12.3694 30.6906 13.7056 31.244C15.0417 31.7975 16.1838 32.7348 16.9873 33.9373C17.7908 35.1398 18.2197 36.5536 18.2197 37.9999C18.2197 39.9393 17.4493 41.7993 16.0779 43.1706C14.7065 44.542 12.8466 45.3124 10.9072 45.3124Z" fill="#EF6737"/>
</svg>
