<svg width="16" height="14" viewBox="0 0 16 14" fill="none" xmlns="http://www.w3.org/2000/svg">
<path d="M5.28846 11.0474L13.7635 1.33313C13.9635 1.10388 14.1968 0.989258 14.4635 0.989258C14.7301 0.989258 14.9635 1.10388 15.1635 1.33313C15.3635 1.56237 15.4635 1.83479 15.4635 2.15038C15.4635 2.46598 15.3635 2.73802 15.1635 2.9665L5.98846 13.5118C5.78846 13.741 5.55513 13.8556 5.28846 13.8556C5.02179 13.8556 4.78846 13.741 4.58846 13.5118L0.288462 8.583C0.0884616 8.35376 -0.00753846 8.08172 0.000461538 7.76689C0.00846154 7.45206 0.112795 7.17964 0.313461 6.94963C0.514128 6.71962 0.751795 6.605 1.02646 6.60576C1.30113 6.60653 1.53846 6.72115 1.73846 6.94963L5.28846 11.0474Z" fill="black"/>
</svg>
