<svg width="91" height="100" viewBox="0 0 91 100" fill="none" xmlns="http://www.w3.org/2000/svg">
<path d="M36.5751 17.09C36.0621 16.9515 35.5613 16.8008 35.0606 16.6542C34.921 16.6135 34.7815 16.5768 34.6501 16.532L33.0658 16.0555C29.7411 15.0413 26.5971 14.0842 23.7896 14.1534L22.7429 14.1738C20.9616 14.2105 20.2227 14.2268 20.0545 14.5607C19.8862 14.8947 19.9683 15.8111 23.5843 18.5318C23.6645 18.5869 23.7413 18.6468 23.8142 18.711C25.69 20.3402 27.9598 21.1222 31.1202 21.7535L31.5594 21.8349C32.8318 22.0793 34.2397 22.3033 35.8199 22.5599C36.7352 22.7025 37.6793 22.8572 38.6931 23.0242C39.3489 23.1662 40.0289 23.155 40.6797 22.9916C41.7523 22.6741 42.7081 22.0527 43.4297 21.2036C43.7828 20.8262 44.1105 20.4262 44.4107 20.0062C44.5666 19.7944 44.7308 19.5786 44.895 19.3708C43.8114 18.9432 41.0121 18.2549 38.927 17.7417C37.9789 17.4525 37.1169 17.2407 36.5751 17.09Z" fill="black"/>
<path d="M45.3549 18.3524C45.3587 18.3877 45.3684 18.4221 45.3837 18.4542C45.3945 18.5021 45.414 18.5476 45.4411 18.5886C45.4617 18.613 45.4781 18.6253 45.4945 18.6253C45.5057 18.6239 45.5164 18.6199 45.5257 18.6135C45.535 18.6071 45.5426 18.5986 45.5479 18.5886C45.5746 18.5469 45.5953 18.5016 45.6094 18.4542C45.6215 18.4213 45.6297 18.3871 45.6341 18.3524C45.7575 17.6334 45.8288 16.9066 45.8475 16.1775L45.749 16.1001C45.6299 16.0023 45.5191 15.9005 45.4083 15.8068C45.3222 15.7379 45.2302 15.6766 45.1333 15.6235C45.1333 15.7539 45.1333 15.8883 45.1333 16.0308C45.1429 16.8106 45.2156 17.5883 45.3508 18.3565L45.3549 18.3524Z" fill="black"/>
<path d="M44.8251 16.1369C44.8251 15.9088 44.8251 15.7011 44.8251 15.5137C44.7678 15.5097 44.7102 15.5097 44.6528 15.5137C44.5137 15.5142 44.3754 15.5347 44.2423 15.5748C44.1092 15.6132 43.9831 15.6723 43.8688 15.75C43.7591 15.8199 43.671 15.9185 43.6143 16.0351C43.5713 16.1507 43.5713 16.2778 43.6143 16.3935C43.662 16.5244 43.7283 16.6478 43.8113 16.76C43.894 16.88 43.9831 16.9956 44.0781 17.1062C44.3326 17.4036 44.6035 17.6968 44.8744 17.9901C44.8744 17.9453 44.8744 17.8964 44.8744 17.8516C44.8416 17.1633 44.8251 16.1369 44.8251 16.1369Z" fill="black"/>
<path d="M45.8598 15.9943C45.8598 14.8498 45.6587 13.9253 45.4986 13.9253C45.3385 13.9253 45.2072 14.5647 45.1538 15.4363C45.2876 15.5024 45.4118 15.586 45.5232 15.6848C45.6422 15.7785 45.749 15.8884 45.8598 15.9943Z" fill="black"/>
<path d="M47.5261 21.1628C48.2477 22.0155 49.2051 22.6399 50.2802 22.9589C50.9309 23.1223 51.611 23.1334 52.2668 22.9915L55.14 22.5272C56.7243 22.2706 58.1322 22.0466 59.4005 21.8022L59.8396 21.7208C63.0001 21.0895 65.2699 20.3197 67.1457 18.6783C67.1744 18.6498 67.2401 18.6009 67.3755 18.4991C70.9916 15.7784 71.0491 14.8335 70.9054 14.528C70.7618 14.2226 69.9983 14.1778 68.217 14.1411L67.1703 14.1207C64.3628 14.0515 61.2229 15.0086 57.8941 16.0228L56.3098 16.5034L55.8993 16.6215C55.3986 16.7681 54.8937 16.9188 54.3806 17.0573C53.8676 17.1958 52.981 17.4198 51.9836 17.6642C49.8985 18.1814 47.0992 18.886 46.0156 19.2933L46.3932 19.7821C46.7378 20.268 47.1164 20.7294 47.5261 21.1628Z" fill="black"/>
<path d="M53.646 29.3534C55.6415 29.7752 57.7117 29.694 59.6674 29.1172C60.9387 28.7458 62.1466 28.187 63.2506 27.4595C63.3655 27.3862 63.4764 27.3088 63.5872 27.2274C64.2604 26.7709 64.8538 26.2082 65.3439 25.5616C65.7544 24.9995 65.8816 24.5718 65.7749 24.2867C65.5779 23.7654 64.5764 23.6025 63.5174 23.4273C62.6701 23.2875 61.8099 23.2396 60.9521 23.2848H60.9192L60.4554 23.3296C59.7149 23.4182 58.984 23.5736 58.2718 23.7939C57.9353 23.8917 57.5823 23.9894 57.1923 24.079C57.102 24.079 56.9502 24.1442 56.7573 24.1971C55.3617 24.6044 51.6594 25.6674 48.8437 24.1971C47.8433 23.7257 46.9813 23.0078 46.34 22.1118C46.2702 22.0059 46.2004 21.9 46.1348 21.79C46.4078 23.2107 46.948 24.5675 47.7273 25.7896C49.0613 27.6795 51.052 28.8728 53.646 29.3534Z" fill="black"/>
<path d="M80.243 51.8561L65.6719 30.3145L79.9844 9.13535C79.9923 9.12265 79.9967 9.10812 79.9972 9.09321C79.9976 9.0783 79.9942 9.06352 79.9871 9.05035C79.9801 9.03717 79.9697 9.02605 79.9569 9.0181C79.9442 9.01015 79.9296 9.00564 79.9146 9.00501H51.2815L45.6829 0.724801C45.663 0.698652 45.6373 0.67744 45.6077 0.662833C45.5782 0.648227 45.5456 0.640625 45.5126 0.640625C45.4796 0.640625 45.447 0.648227 45.4174 0.662833C45.3879 0.67744 45.3621 0.698652 45.3422 0.724801L39.7396 9.00501H11.0859C11.0706 9.00493 11.0554 9.00893 11.0421 9.0166C11.0289 9.02426 11.0179 9.03532 11.0103 9.04861C11.0028 9.06191 10.999 9.07696 10.9993 9.09221C10.9996 9.10746 11.004 9.12236 11.012 9.13535L25.3245 30.3145L10.7535 51.8561C10.7355 51.8885 10.7261 51.9249 10.7261 51.9619C10.7261 51.999 10.7355 52.0354 10.7535 52.0678C10.7715 52.0997 10.7977 52.1263 10.8294 52.1449C10.8611 52.1635 10.8972 52.1734 10.9341 52.1737H40.1254L45.4613 60.0304C45.4693 60.0413 45.4798 60.0502 45.4919 60.0563C45.504 60.0625 45.5174 60.0657 45.531 60.0657C45.5447 60.0657 45.5581 60.0625 45.5702 60.0563C45.5823 60.0502 45.5928 60.0413 45.6008 60.0304L50.871 52.1737H80.0624C80.0992 52.1734 80.1353 52.1635 80.167 52.1449C80.1987 52.1263 80.2249 52.0997 80.243 52.0678C80.263 52.0361 80.2736 51.9994 80.2736 51.9619C80.2736 51.9245 80.263 51.8878 80.243 51.8561ZM45.4982 1.2217L50.7725 9.02131H40.2239L45.4982 1.2217ZM25.2794 25.8139C24.7909 25.1174 24.6349 24.5635 24.7991 24.1318C25.0823 23.3742 26.1495 23.1991 27.3891 22.9995C28.2687 22.8521 29.1621 22.8015 30.0529 22.8488L30.3566 22.8773C30.5167 22.8773 30.6727 22.9058 30.8163 22.9262C31.7785 23.0445 32.7251 23.2643 33.6403 23.5819L33.8865 23.6593L34.9537 23.9322C35.3149 24.0177 35.672 24.1033 36.0291 24.1684L36.1604 24.1888H36.2959L36.5709 24.2255L37.1209 24.2906C37.4835 24.3305 37.8479 24.3522 38.2127 24.3558C38.5749 24.3544 38.9362 24.3203 39.2922 24.254C39.4728 24.2255 39.6493 24.1847 39.8299 24.144C40.0105 24.1033 40.1952 24.0585 40.3881 24.034C40.5944 23.9972 40.8069 24.0155 41.0038 24.087C41.2066 24.1755 41.3679 24.3371 41.4553 24.5391C41.5465 24.7335 41.5738 24.9515 41.5332 25.1622C41.4846 25.3652 41.381 25.5511 41.2336 25.6999C41.0998 25.8409 40.948 25.9642 40.7821 26.0664C40.621 26.1675 40.4538 26.2587 40.2814 26.3393C40.109 26.4208 39.9325 26.49 39.7601 26.5552C39.5877 26.6203 39.4071 26.6814 39.2265 26.7384C37.7798 27.1622 36.2341 27.1122 34.8183 26.5959C34.1183 26.3343 33.4644 25.9646 32.8809 25.5003C33.4739 25.9483 34.1347 26.3002 34.8388 26.5429C35.537 26.7841 36.2708 26.9079 37.0101 26.9095C37.746 26.9208 38.4786 26.8093 39.1772 26.5796C39.3537 26.5226 39.5261 26.4574 39.6944 26.3882C39.8627 26.3189 40.0351 26.2456 40.1993 26.1682C40.5278 26.0187 40.8256 25.8102 41.0776 25.5532C41.1927 25.4313 41.2721 25.2807 41.3075 25.1174C41.3343 24.9562 41.3084 24.7906 41.2336 24.645C41.1705 24.5018 41.0544 24.3881 40.9094 24.3273C40.7524 24.2797 40.586 24.2713 40.425 24.3028C40.0802 24.3599 39.719 24.4821 39.3455 24.5513C38.9739 24.6277 38.5962 24.6714 38.2168 24.6816C37.8402 24.6898 37.4633 24.6776 37.0881 24.645L36.5298 24.592L36.2548 24.5635H36.1153H35.9716C35.594 24.5106 35.2287 24.4291 34.8634 24.3517L33.7757 24.0992L33.5253 24.0177C32.5642 23.6824 31.5669 23.4596 30.5537 23.3539L30.0898 23.3091H30.0365C29.1787 23.2639 28.3185 23.3117 27.4712 23.4516C26.4122 23.6267 25.4189 23.7897 25.2137 24.311C25.107 24.5961 25.2506 25.0238 25.6447 25.5858C26.1383 26.2384 26.7375 26.8055 27.4178 27.2638L27.7544 27.496C28.8555 28.2113 30.0575 28.7604 31.3212 29.1252C33.2755 29.702 35.3443 29.7832 37.3384 29.3614C39.9325 28.8808 41.9273 27.6874 43.2612 25.8098C44.2258 24.4535 44.7512 22.5026 45.0467 21.0853C45.0467 20.9671 45.0467 20.845 45.0467 20.7228C45.0467 20.4336 45.0467 20.1485 45.0221 19.8634L44.784 20.2014C44.4892 20.6415 44.1656 21.0619 43.8154 21.46C43.0348 22.3827 41.9988 23.0581 40.8355 23.4027C40.4717 23.5013 40.0962 23.5507 39.719 23.5494C39.365 23.5451 39.012 23.5096 38.6642 23.4435C37.6463 23.2724 36.6981 23.1217 35.791 22.9751C34.1492 22.7103 32.6552 22.4741 31.3294 22.2175L30.8943 22.132C27.7544 21.4966 25.4805 20.7024 23.5719 19.0284C23.5719 19.0284 23.4611 18.9429 23.3625 18.8696C20.4319 16.6621 19.258 15.2284 19.7054 14.3527C19.9927 13.7825 20.6905 13.7662 22.7715 13.7255L23.8181 13.7052C26.6913 13.6318 29.8682 14.6012 33.2257 15.6235L34.9414 16.1448L35.3518 16.2629L36.7269 16.6702C37.2645 16.8169 38.1183 17.0286 39.1116 17.273C41.2172 17.7943 43.7702 18.4256 44.9687 18.8614C44.9687 18.7311 44.9441 18.6049 44.9359 18.4745C44.5911 18.0672 44.2381 17.6599 43.9016 17.2526C43.8043 17.1314 43.7139 17.005 43.6307 16.8739C43.5385 16.7397 43.4666 16.5929 43.4172 16.4381C43.3917 16.3522 43.3806 16.2628 43.3844 16.1733C43.3863 16.0831 43.4072 15.9943 43.446 15.9127C43.5223 15.7575 43.642 15.6275 43.7907 15.538C43.9259 15.4523 44.0743 15.3891 44.2299 15.3506C44.3836 15.309 44.5426 15.2898 44.7019 15.2936L44.8784 15.318C44.9564 13.6685 45.2889 13.4526 45.449 13.3671L45.531 13.3427L45.6131 13.3671C45.7937 13.4648 46.2083 13.7337 46.2042 16.1285V16.1896H46.2411L46.2904 16.21H46.3396C46.3766 16.21 46.4094 16.2344 46.4423 16.2385H46.549H46.6557C46.6911 16.2425 46.7269 16.2425 46.7624 16.2385H46.8691L47.0826 16.1978C47.369 16.128 47.645 16.0212 47.9035 15.8801C47.97 15.8474 48.0344 15.8107 48.0964 15.7701L48.2893 15.6601C48.4165 15.5787 48.5438 15.5013 48.6669 15.4158C49.1477 15.0918 49.6095 14.741 50.0501 14.365C49.6134 14.7767 49.1529 15.1629 48.671 15.5217C48.552 15.6113 48.4247 15.6927 48.3016 15.7783L48.1087 15.8964C48.0468 15.9382 47.9824 15.9763 47.9158 16.0104C47.6591 16.1639 47.383 16.283 47.0949 16.3648C47.021 16.3851 46.943 16.3973 46.8691 16.4136H46.7542C46.716 16.4176 46.6775 16.4176 46.6393 16.4136H46.5202H46.4053C46.3665 16.4079 46.3281 16.3997 46.2904 16.3892H46.2329H46.1878C46.1878 16.7232 46.1672 17.3911 46.1508 17.8717C46.1508 18.0061 46.1508 18.1405 46.1303 18.279C46.1303 18.4867 46.1016 18.6863 46.0811 18.9022C47.2796 18.4664 49.8367 17.8351 51.9382 17.3137C52.9315 17.0694 53.7893 16.8576 54.327 16.711L55.6979 16.3037L56.1084 16.1855L57.8241 15.6642C61.1816 14.6419 64.3544 13.6726 67.2357 13.7459L68.2783 13.7662C70.3593 13.807 71.0571 13.8233 71.3444 14.3935C71.7794 15.2691 70.6179 16.7028 67.6872 18.9103C67.5928 18.9836 67.5025 19.0488 67.482 19.0692C65.5693 20.7431 63.2954 21.5373 60.1596 22.1727L59.7204 22.2583C58.3946 22.5148 56.9252 22.7511 55.2588 23.0199C54.3476 23.1624 53.4035 23.3131 52.3856 23.4842C52.0378 23.5504 51.6848 23.5858 51.3307 23.5901C50.9536 23.5911 50.5781 23.5418 50.2143 23.4435C49.0521 23.099 48.0173 22.4235 47.2385 21.5007C46.8514 21.0556 46.4936 20.5863 46.1672 20.0955L46.0318 19.9041C46.0318 20.0996 46.0318 20.3114 46.0318 20.4947C46.2077 21.0001 46.4492 21.4807 46.7501 21.9243C47.3483 22.7626 48.156 23.4321 49.0938 23.867C51.7576 25.2559 55.3408 24.2214 56.6912 23.8304L57.1509 23.7041C57.5327 23.6186 57.8733 23.5209 58.2099 23.4272C58.8716 23.2248 59.5482 23.0737 60.2334 22.9751C60.3812 22.9547 60.5331 22.9384 60.6931 22.9262L60.9763 22.8977C61.8672 22.8504 62.7605 22.9009 63.6402 23.0484C64.8715 23.248 65.9469 23.4231 66.2301 24.1807C66.3943 24.6124 66.2301 25.1663 65.7499 25.8628C65.2313 26.5534 64.6017 27.1547 63.8865 27.6426L63.5499 27.8748C62.4119 28.6255 61.1666 29.2022 59.8558 29.5854C58.7109 29.9284 57.5218 30.104 56.3259 30.1067C55.4232 30.0993 54.5231 30.0079 53.6375 29.8339C50.9326 29.3329 48.8475 28.0784 47.4437 26.1071C46.7854 25.108 46.2999 24.0067 46.0072 22.8488C45.9825 25.989 45.9046 42.0648 45.9005 42.8061C45.9005 43.1075 45.7896 49.5426 45.568 49.8237C45.3463 49.5467 45.2396 43.1075 45.2355 42.8061C45.2355 42.0648 45.1575 25.989 45.1288 22.8488C44.8236 24.0066 44.3301 25.1072 43.6676 26.1071C42.268 28.0784 40.1829 29.3329 37.4739 29.8339C36.5897 30.0079 35.6909 30.0993 34.7895 30.1067C33.5936 30.104 32.4045 29.9284 31.2596 29.5854C29.9495 29.206 28.7043 28.6335 27.5656 27.887L27.229 27.6549C26.4787 27.1553 25.8194 26.5328 25.2794 25.8139ZM23.9864 51.7664C23.7073 51.4895 23.4323 51.2044 23.1655 50.9152C23.1517 50.9003 23.1349 50.8884 23.1161 50.8802C23.0974 50.872 23.0772 50.8678 23.0568 50.8678C23.0363 50.8678 23.0161 50.872 22.9974 50.8802C22.9786 50.8884 22.9618 50.9003 22.948 50.9152C22.9197 50.9441 22.9038 50.9828 22.9038 51.0231C22.9038 51.0635 22.9197 51.1022 22.948 51.1311C23.1491 51.351 23.3584 51.5628 23.5719 51.7746H11.3076L25.5749 30.6851L39.8381 51.7746L23.9864 51.7664ZM67.4369 51.7664C67.6462 51.5587 67.8473 51.3592 68.0566 51.1311C68.085 51.1022 68.1008 51.0635 68.1008 51.0231C68.1008 50.9828 68.085 50.9441 68.0566 50.9152C68.0428 50.9003 68.026 50.8884 68.0073 50.8802C67.9886 50.872 67.9683 50.8678 67.9479 50.8678C67.9274 50.8678 67.9072 50.872 67.8885 50.8802C67.8698 50.8884 67.8529 50.9003 67.8391 50.9152C67.5682 51.2003 67.2973 51.4813 67.0182 51.7583H51.1583L65.4257 30.6688L79.6889 51.7583L67.4369 51.7664Z" fill="black"/>
<path d="M17.7845 42.8754C17.7671 42.8381 17.7355 42.8092 17.6966 42.7951C17.6577 42.781 17.6148 42.7827 17.5772 42.8C17.5397 42.8173 17.5106 42.8487 17.4963 42.8873C17.4821 42.9258 17.4839 42.9684 17.5013 43.0057C17.6696 43.3763 17.8502 43.747 18.0308 44.1095C18.0438 44.1343 18.0631 44.1553 18.0869 44.1703C18.1107 44.1853 18.1381 44.1938 18.1662 44.195C18.1932 44.1957 18.2198 44.1895 18.2436 44.1769C18.2674 44.1644 18.2875 44.1459 18.302 44.1234C18.3165 44.1008 18.3248 44.0749 18.3262 44.0482C18.3276 44.0215 18.322 43.9949 18.3099 43.971C18.1252 43.5922 17.9528 43.2256 17.7845 42.8754Z" fill="black"/>
<path d="M16.6726 40.5174C16.6342 40.5312 16.6028 40.5594 16.5851 40.596C16.5675 40.6326 16.565 40.6745 16.5782 40.7129C16.7177 41.0998 16.8614 41.4827 17.0174 41.8574C17.0281 41.8857 17.0471 41.9101 17.072 41.9276C17.0969 41.945 17.1265 41.9546 17.1569 41.9551H17.2185C17.2557 41.9389 17.2853 41.9093 17.3013 41.8722C17.3173 41.8352 17.3185 41.7935 17.3047 41.7556C17.1528 41.3808 17.0051 41.0061 16.8696 40.6233C16.864 40.6033 16.8544 40.5847 16.8413 40.5685C16.8283 40.5523 16.8121 40.5388 16.7937 40.5289C16.7753 40.5191 16.7551 40.5129 16.7343 40.511C16.7135 40.509 16.6925 40.5112 16.6726 40.5174Z" fill="black"/>
<path d="M18.8766 45.026C18.8671 45.0081 18.8541 44.9923 18.8384 44.9795C18.8226 44.9667 18.8045 44.9571 18.7849 44.9514C18.7654 44.9457 18.7449 44.944 18.7247 44.9463C18.7045 44.9486 18.6849 44.9549 18.6672 44.9649C18.6316 44.9847 18.6052 45.0175 18.5937 45.0563C18.5822 45.0951 18.5865 45.1369 18.6057 45.1726C18.8068 45.531 19.0161 45.8854 19.2254 46.2316C19.2387 46.2544 19.2579 46.2732 19.281 46.2861C19.3041 46.299 19.3303 46.3055 19.3568 46.3049C19.3833 46.3142 19.4123 46.3142 19.4389 46.3049C19.4564 46.2945 19.4717 46.2806 19.4837 46.2642C19.4958 46.2478 19.5044 46.2292 19.509 46.2094C19.5136 46.1896 19.5141 46.1691 19.5105 46.1491C19.5069 46.1291 19.4993 46.1101 19.4881 46.0931C19.2665 45.7265 19.0736 45.3803 18.8766 45.026Z" fill="black"/>
<path d="M15.2523 34.9005C15.2931 34.8945 15.3298 34.8727 15.3544 34.8399C15.379 34.8071 15.3895 34.7659 15.3836 34.7254C15.3303 34.3181 15.281 33.9108 15.2359 33.5035C15.2338 33.4837 15.2278 33.4645 15.2182 33.4469C15.2087 33.4294 15.1957 33.414 15.18 33.4015C15.1644 33.389 15.1464 33.3797 15.1271 33.3741C15.1078 33.3686 15.0875 33.3669 15.0676 33.3691C15.0476 33.3712 15.0282 33.3771 15.0105 33.3866C14.9929 33.3961 14.9773 33.409 14.9647 33.4246C14.9521 33.4401 14.9427 33.458 14.9372 33.4771C14.9316 33.4963 14.9299 33.5163 14.9321 33.5361C14.9732 33.9434 15.0224 34.3507 15.0799 34.758C15.0808 34.7789 15.0862 34.7994 15.0956 34.8182C15.1049 34.837 15.1182 34.8536 15.1344 34.867C15.1506 34.8804 15.1695 34.8903 15.1898 34.8961C15.2101 34.9019 15.2314 34.9034 15.2523 34.9005Z" fill="black"/>
<path d="M15.6955 37.304H15.7284C15.7686 37.2952 15.8036 37.271 15.8259 37.2367C15.8482 37.2024 15.8559 37.1607 15.8474 37.1207C15.7571 36.7134 15.675 36.3306 15.6011 35.9274C15.5932 35.8876 15.5698 35.8525 15.536 35.8296C15.5022 35.8068 15.4608 35.798 15.4205 35.8052C15.3804 35.8131 15.3451 35.8363 15.322 35.8698C15.299 35.9033 15.2901 35.9445 15.2974 35.9844C15.3713 36.3917 15.4575 36.799 15.5437 37.2063C15.557 37.2352 15.5783 37.2598 15.6052 37.2771C15.6321 37.2944 15.6635 37.3038 15.6955 37.304Z" fill="black"/>
<path d="M15.0142 32.4732C15.0347 32.4722 15.0548 32.4671 15.0733 32.4584C15.0918 32.4496 15.1084 32.4373 15.1222 32.4222C15.1359 32.407 15.1465 32.3894 15.1533 32.3702C15.1601 32.351 15.1631 32.3306 15.162 32.3103C15.1374 31.903 15.1209 31.4957 15.1127 31.0884C15.1128 31.0679 15.1086 31.0476 15.1004 31.0288C15.0923 31.01 15.0804 30.993 15.0654 30.9789C15.0504 30.9648 15.0327 30.9538 15.0133 30.9468C14.9939 30.9397 14.9733 30.9366 14.9526 30.9377C14.9116 30.9398 14.873 30.9575 14.8447 30.987C14.8165 31.0166 14.8007 31.0558 14.8008 31.0966C14.8008 31.5039 14.8295 31.9111 14.8541 32.3184C14.8562 32.357 14.8732 32.3932 14.9014 32.4198C14.9297 32.4463 14.9671 32.461 15.006 32.461L15.0142 32.4732Z" fill="black"/>
<path d="M17.2141 19.0246C17.1759 19.0109 17.1339 19.0121 17.0965 19.028C17.0592 19.0439 17.0293 19.0732 17.013 19.1102C16.8611 19.493 16.7134 19.8759 16.5738 20.2628C16.5606 20.3012 16.5631 20.3431 16.5807 20.3797C16.5984 20.4162 16.6298 20.4445 16.6682 20.4583H16.7175C16.7498 20.4592 16.7816 20.4498 16.8082 20.4314C16.8347 20.4131 16.8547 20.3869 16.8652 20.3565C17.0048 19.9736 17.1484 19.5948 17.3003 19.2161C17.3128 19.1792 17.3108 19.1391 17.2948 19.1037C17.2789 19.0682 17.2501 19.04 17.2141 19.0246Z" fill="black"/>
<path d="M16.184 39.5518C16.1943 39.5826 16.2142 39.6094 16.2407 39.6284C16.2672 39.6474 16.2991 39.6576 16.3318 39.6577H16.3933C16.4126 39.6517 16.4304 39.6419 16.4458 39.629C16.4612 39.6161 16.4739 39.6003 16.483 39.5825C16.4922 39.5647 16.4977 39.5452 16.4992 39.5252C16.5007 39.5053 16.4982 39.4852 16.4919 39.4663C16.3728 39.059 16.2579 38.6883 16.1512 38.2973C16.146 38.278 16.1369 38.2598 16.1246 38.244C16.1122 38.2282 16.0968 38.2149 16.0792 38.2051C16.0616 38.1952 16.0422 38.1889 16.0222 38.1866C16.0021 38.1842 15.9818 38.1859 15.9624 38.1914C15.9426 38.1961 15.9239 38.2048 15.9076 38.2169C15.8914 38.229 15.8778 38.2444 15.8678 38.262C15.8577 38.2796 15.8515 38.299 15.8494 38.3191C15.8473 38.3392 15.8495 38.3596 15.8557 38.3788C15.9501 38.7698 16.065 39.1608 16.184 39.5518Z" fill="black"/>
<path d="M24.894 52.6507C24.8642 52.6223 24.8245 52.6064 24.7832 52.6064C24.7419 52.6064 24.7022 52.6223 24.6723 52.6507C24.6578 52.6647 24.6463 52.6815 24.6384 52.7C24.6305 52.7186 24.6265 52.7385 24.6265 52.7586C24.6265 52.7787 24.6305 52.7986 24.6384 52.8172C24.6463 52.8357 24.6578 52.8525 24.6723 52.8665C24.972 53.1476 25.2839 53.4164 25.5959 53.6811C25.6231 53.7049 25.6581 53.718 25.6944 53.7178C25.7171 53.7192 25.7398 53.7152 25.7605 53.7059C25.7813 53.6967 25.7994 53.6826 25.8134 53.6648C25.8279 53.6508 25.8395 53.634 25.8473 53.6155C25.8552 53.5969 25.8593 53.577 25.8593 53.5569C25.8593 53.5368 25.8552 53.5169 25.8473 53.4983C25.8395 53.4798 25.8279 53.463 25.8134 53.449C25.4974 53.1761 25.1936 52.9073 24.894 52.6507Z" fill="black"/>
<path d="M24.6885 8.44315C24.7281 8.44388 24.7663 8.42927 24.7952 8.40241C25.0948 8.12546 25.4027 7.85665 25.7105 7.58783C25.725 7.57379 25.7366 7.55701 25.7445 7.53847C25.7523 7.51993 25.7564 7.50002 25.7564 7.4799C25.7564 7.45978 25.7523 7.43986 25.7445 7.42133C25.7366 7.40279 25.725 7.38601 25.7105 7.37197C25.6814 7.34386 25.6424 7.32812 25.6018 7.32812C25.5611 7.32812 25.5221 7.34386 25.493 7.37197C25.181 7.64078 24.8732 7.90959 24.5695 8.18655C24.5409 8.21613 24.5249 8.25553 24.5249 8.29652C24.5249 8.33751 24.5409 8.37691 24.5695 8.40649C24.6027 8.43375 24.6455 8.44693 24.6885 8.44315Z" fill="black"/>
<path d="M26.6259 6.75322C26.6616 6.75418 26.6965 6.74264 26.7244 6.72063C27.0446 6.47219 27.3688 6.22781 27.7013 5.99159C27.7282 5.96572 27.7449 5.93109 27.7482 5.89403C27.7515 5.85698 27.7413 5.81999 27.7193 5.78982C27.6974 5.75965 27.6653 5.73832 27.6288 5.72975C27.5923 5.72118 27.5539 5.72593 27.5207 5.74314C27.1882 5.98344 26.8558 6.22781 26.5315 6.48033C26.4997 6.5059 26.4792 6.54286 26.4746 6.58326C26.47 6.62365 26.4816 6.66421 26.5069 6.6962C26.5211 6.71399 26.5392 6.72836 26.5598 6.73823C26.5804 6.74811 26.603 6.75323 26.6259 6.75322Z" fill="black"/>
<path d="M20.1448 47.099C20.12 47.0712 20.086 47.0532 20.0489 47.0483C20.0119 47.0433 19.9743 47.0517 19.943 47.0719C19.9116 47.0922 19.8887 47.1229 19.8783 47.1585C19.8678 47.1941 19.8706 47.2322 19.8862 47.266C20.1119 47.6081 20.35 47.9462 20.5881 48.2761C20.6025 48.2949 20.6211 48.3102 20.6425 48.3208C20.6638 48.3314 20.6873 48.337 20.7112 48.3372C20.7452 48.3398 20.7789 48.3296 20.8056 48.3086C20.8223 48.2973 20.8365 48.2827 20.8473 48.2657C20.8581 48.2487 20.8653 48.2297 20.8684 48.2098C20.8714 48.19 20.8704 48.1697 20.8652 48.1503C20.8601 48.1308 20.851 48.1126 20.8384 48.0969C20.6004 47.7629 20.3705 47.437 20.1448 47.099Z" fill="black"/>
<path d="M26.7571 54.2064C26.7246 54.1867 26.686 54.1794 26.6485 54.1859C26.611 54.1925 26.5772 54.2124 26.5535 54.2419C26.5298 54.2715 26.5178 54.3086 26.5197 54.3463C26.5217 54.3841 26.5375 54.4198 26.5642 54.4467C26.8884 54.6993 27.2209 54.9477 27.5533 55.1839C27.58 55.2025 27.6112 55.2138 27.6436 55.2165C27.6684 55.2156 27.6926 55.2093 27.7146 55.198C27.7366 55.1868 27.7558 55.1708 27.7709 55.1514C27.7828 55.1348 27.7912 55.116 27.7958 55.0962C27.8003 55.0764 27.8009 55.0559 27.7975 55.0358C27.7941 55.0158 27.7867 54.9966 27.7758 54.9794C27.7649 54.9622 27.7507 54.9473 27.7339 54.9355C27.4056 54.687 27.0649 54.4549 26.7571 54.2064Z" fill="black"/>
<path d="M21.5772 49.0664C21.5648 49.0503 21.5492 49.0369 21.5315 49.0269C21.5137 49.0169 21.494 49.0106 21.4737 49.0083C21.4534 49.006 21.4328 49.0078 21.4132 49.0136C21.3936 49.0194 21.3754 49.0291 21.3597 49.042C21.3433 49.0536 21.3294 49.0685 21.319 49.0857C21.3086 49.1028 21.3019 49.1219 21.2992 49.1417C21.2965 49.1616 21.2979 49.1818 21.3034 49.201C21.3088 49.2203 21.3182 49.2383 21.331 49.2538C21.5854 49.5756 21.8481 49.8932 22.1149 50.2028C22.1291 50.2172 22.146 50.2286 22.1647 50.2365C22.1834 50.2443 22.2034 50.2483 22.2237 50.2483C22.244 50.2483 22.264 50.2443 22.2827 50.2365C22.3014 50.2286 22.3183 50.2172 22.3325 50.2028C22.347 50.1887 22.3585 50.172 22.3664 50.1534C22.3743 50.1349 22.3784 50.115 22.3784 50.0949C22.3784 50.0747 22.3743 50.0548 22.3664 50.0363C22.3585 50.0177 22.347 50.001 22.3325 49.9869C22.0862 49.6977 21.8276 49.3923 21.5772 49.0664Z" fill="black"/>
<path d="M74.2672 20.3812C74.2859 20.3871 74.3059 20.3871 74.3246 20.3812C74.3436 20.3744 74.361 20.3639 74.3759 20.3503C74.3907 20.3368 74.4027 20.3204 74.4111 20.3022C74.4195 20.284 74.4242 20.2643 74.4248 20.2443C74.4255 20.2243 74.4221 20.2044 74.4149 20.1857C74.2795 19.8069 74.1317 19.424 73.9757 19.0412C73.9681 19.0226 73.9568 19.0057 73.9425 18.9915C73.9282 18.9773 73.9112 18.966 73.8925 18.9584C73.8737 18.9508 73.8537 18.9471 73.8334 18.9473C73.8132 18.9475 73.7932 18.9517 73.7746 18.9597C73.7367 18.9751 73.7065 19.0047 73.6903 19.042C73.6742 19.0793 73.6735 19.1215 73.6884 19.1593C73.8444 19.534 73.9922 19.9168 74.1235 20.2875C74.1351 20.3157 74.1551 20.3397 74.1807 20.3564C74.2063 20.3732 74.2365 20.3818 74.2672 20.3812Z" fill="black"/>
<path d="M75.835 28.5797C75.8596 28.987 75.876 29.3943 75.8842 29.8016C75.8853 29.8412 75.9016 29.879 75.9298 29.907C75.9581 29.9351 75.9961 29.9513 76.0361 29.9523C76.0767 29.9512 76.1154 29.9345 76.1437 29.9056C76.1721 29.8766 76.188 29.8379 76.1879 29.7975C76.1879 29.3902 76.1592 28.9829 76.1346 28.5757C76.1348 28.5551 76.1305 28.5347 76.1221 28.516C76.1136 28.4972 76.1011 28.4805 76.0855 28.4669C76.0699 28.4534 76.0516 28.4433 76.0317 28.4375C76.0118 28.4317 75.9909 28.4302 75.9704 28.4331C75.9341 28.4379 75.9006 28.4552 75.8758 28.482C75.851 28.5088 75.8366 28.5434 75.835 28.5797Z" fill="black"/>
<path d="M75.7158 25.9893C75.6758 25.9963 75.6401 26.0185 75.6164 26.0512C75.5926 26.084 75.5826 26.1246 75.5886 26.1645C75.6461 26.5718 75.6953 26.979 75.7364 27.3863C75.7404 27.4238 75.758 27.4585 75.7859 27.484C75.8139 27.5095 75.8503 27.524 75.8882 27.5248C75.9088 27.5228 75.9287 27.5167 75.9468 27.507C75.965 27.4973 75.981 27.4841 75.994 27.4682C76.007 27.4523 76.0166 27.434 76.0224 27.4143C76.0282 27.3947 76.0301 27.3741 76.0278 27.3538C75.9826 26.9465 75.9334 26.5392 75.8759 26.1319C75.8728 26.0923 75.8544 26.0554 75.8246 26.0288C75.7948 26.0023 75.7559 25.9882 75.7158 25.9893Z" fill="black"/>
<path d="M74.8007 21.3381C74.7852 21.3031 74.7572 21.275 74.7221 21.2593C74.6869 21.2436 74.6472 21.2413 74.6105 21.2529C74.5737 21.2646 74.5427 21.2893 74.5232 21.3223C74.5038 21.3554 74.4974 21.3944 74.5052 21.4318C74.6283 21.8391 74.7433 22.2057 74.85 22.5967C74.8576 22.6297 74.8764 22.6591 74.9033 22.6799C74.9303 22.7007 74.9636 22.7116 74.9977 22.7107H75.0388C75.0583 22.7055 75.0766 22.6966 75.0925 22.6843C75.1085 22.672 75.1219 22.6567 75.1318 22.6393C75.1417 22.6218 75.1481 22.6026 75.1504 22.5827C75.1528 22.5628 75.1511 22.5426 75.1455 22.5234C75.0388 22.1242 74.9239 21.7291 74.8007 21.3381Z" fill="black"/>
<path d="M75.2605 23.5942C75.2406 23.5985 75.2219 23.6067 75.2054 23.6183C75.1888 23.6299 75.1747 23.6447 75.164 23.6618C75.1533 23.6789 75.1462 23.6979 75.143 23.7178C75.1398 23.7376 75.1407 23.7579 75.1455 23.7775C75.2317 24.1848 75.3138 24.5676 75.3877 24.9668C75.395 25.0017 75.414 25.0331 75.4416 25.056C75.4691 25.0789 75.5036 25.0919 75.5396 25.093H75.5683C75.5885 25.0896 75.6079 25.0822 75.6252 25.0713C75.6426 25.0604 75.6576 25.0463 75.6694 25.0296C75.6812 25.013 75.6896 24.9942 75.6941 24.9743C75.6986 24.9544 75.6991 24.9339 75.6955 24.9138C75.6175 24.5065 75.5355 24.0992 75.4452 23.7123C75.4363 23.6724 75.4119 23.6376 75.3773 23.6155C75.3427 23.5934 75.3007 23.5857 75.2605 23.5942Z" fill="black"/>
<path d="M15.7201 23.6801C15.6798 23.6717 15.6378 23.6793 15.6032 23.7014C15.5686 23.7236 15.5442 23.7584 15.5354 23.7982C15.4451 24.2055 15.363 24.6128 15.2891 25.0201C15.2818 25.06 15.2907 25.1012 15.3137 25.1347C15.3368 25.1682 15.3721 25.1914 15.4122 25.1993H15.441C15.4775 25.2007 15.5133 25.1885 15.5414 25.1652C15.5694 25.1419 15.5878 25.109 15.5928 25.0731C15.6667 24.6658 15.7488 24.2585 15.835 23.8838C15.8425 23.863 15.8454 23.8408 15.8436 23.8187C15.8417 23.7967 15.8351 23.7753 15.8242 23.756C15.8133 23.7367 15.7984 23.7199 15.7804 23.7069C15.7625 23.6938 15.7419 23.6847 15.7201 23.6801Z" fill="black"/>
<path d="M16.3647 21.3258C16.325 21.3142 16.2822 21.3183 16.2455 21.3373C16.2088 21.3563 16.1809 21.3887 16.1677 21.4276C16.0486 21.8146 15.9337 22.2096 15.827 22.6047C15.817 22.6441 15.823 22.6859 15.8437 22.7209C15.8645 22.756 15.8983 22.7815 15.9378 22.7921H15.983C16.0172 22.7941 16.0511 22.7842 16.0788 22.7641C16.1065 22.7441 16.1263 22.7151 16.1348 22.6821C16.2375 22.2748 16.3524 21.9001 16.4714 21.5132C16.477 21.4939 16.4787 21.4738 16.4763 21.4538C16.474 21.4339 16.4676 21.4147 16.4577 21.3973C16.4478 21.3798 16.4344 21.3645 16.4185 21.3522C16.4025 21.34 16.3842 21.331 16.3647 21.3258Z" fill="black"/>
<path d="M14.8498 28.6528C14.8252 29.0601 14.8129 29.4429 14.8047 29.838V29.8787C14.8068 29.9169 14.8239 29.9527 14.8522 29.9786C14.8806 30.0045 14.918 30.0183 14.9566 30.0172C14.9994 30.0141 15.0396 29.9953 15.0692 29.9645C15.0988 29.9336 15.1157 29.8928 15.1166 29.8502C15.1166 29.4429 15.1413 29.06 15.1618 28.6691C15.1654 28.6469 15.1642 28.6242 15.1581 28.6026C15.1521 28.581 15.1414 28.5609 15.1267 28.5438C15.1121 28.5267 15.0939 28.513 15.0733 28.5036C15.0528 28.4941 15.0305 28.4893 15.0079 28.4893C14.9852 28.4893 14.9629 28.4941 14.9424 28.5036C14.9219 28.513 14.9036 28.5267 14.889 28.5438C14.8743 28.5609 14.8636 28.581 14.8576 28.6026C14.8515 28.6242 14.8503 28.6469 14.8539 28.6691L14.8498 28.6528Z" fill="black"/>
<path d="M15.0919 26.2093C15.0386 26.6166 14.9893 27.0239 14.9483 27.4312C14.9436 27.4717 14.9552 27.5123 14.9806 27.5443C15.0059 27.5764 15.043 27.5972 15.0837 27.6023C15.1221 27.6016 15.159 27.5872 15.1877 27.5618C15.2163 27.5364 15.2348 27.5016 15.2397 27.4638C15.2766 27.0565 15.3259 26.6492 15.3833 26.2419C15.388 26.2212 15.3882 26.1997 15.3841 26.1788C15.38 26.1579 15.3716 26.1381 15.3595 26.1206C15.3473 26.1031 15.3316 26.0883 15.3134 26.0771C15.2952 26.0658 15.2749 26.0584 15.2537 26.0553C15.2325 26.0523 15.2109 26.0535 15.1902 26.0591C15.1695 26.0647 15.1502 26.0744 15.1335 26.0877C15.1168 26.101 15.103 26.1176 15.093 26.1364C15.083 26.1553 15.0771 26.1759 15.0755 26.1971L15.0919 26.2093Z" fill="black"/>
<path d="M56.8063 2.46023C57.188 2.61093 57.5615 2.76978 57.935 2.93269C57.9552 2.93825 57.9765 2.93825 57.9966 2.93269C58.0266 2.93262 58.056 2.92417 58.0814 2.90833C58.1068 2.89249 58.1272 2.86988 58.1403 2.84309C58.1569 2.8058 58.1581 2.76348 58.1435 2.72534C58.1289 2.68721 58.0997 2.65634 58.0623 2.63944C57.6847 2.47245 57.303 2.30954 56.9212 2.15884C56.9024 2.15096 56.8822 2.14692 56.8618 2.14697C56.8413 2.14703 56.8211 2.15117 56.8023 2.15916C56.7836 2.16714 56.7666 2.17881 56.7525 2.19345C56.7383 2.20809 56.7273 2.22541 56.7201 2.24437C56.7101 2.26394 56.7043 2.28541 56.7033 2.30735C56.7023 2.32929 56.7059 2.35119 56.7141 2.37161C56.7222 2.39203 56.7347 2.41049 56.7506 2.42577C56.7665 2.44105 56.7855 2.4528 56.8063 2.46023Z" fill="black"/>
<path d="M66.1607 8.40231C66.1898 8.43042 66.2288 8.44616 66.2695 8.44616C66.3101 8.44616 66.3491 8.43042 66.3782 8.40231C66.4068 8.37273 66.4228 8.33333 66.4228 8.29234C66.4228 8.25135 66.4068 8.21195 66.3782 8.18238C66.0745 7.90542 65.7666 7.63661 65.4506 7.36779C65.4365 7.35339 65.4195 7.34193 65.4009 7.33411C65.3822 7.32629 65.3621 7.32227 65.3418 7.32227C65.3216 7.32227 65.3015 7.32629 65.2828 7.33411C65.2641 7.34193 65.2472 7.35339 65.2331 7.36779C65.2057 7.39716 65.1904 7.4357 65.1904 7.47573C65.1904 7.51575 65.2057 7.55429 65.2331 7.58366C65.5532 7.8484 65.8611 8.12535 66.1607 8.40231Z" fill="black"/>
<path d="M64.2477 6.72026C64.275 6.74059 64.308 6.75198 64.3421 6.75284C64.3656 6.75288 64.3888 6.74779 64.4101 6.73794C64.4314 6.72808 64.4502 6.71371 64.4653 6.69582C64.4905 6.66384 64.5021 6.62327 64.4975 6.58288C64.4929 6.54249 64.4725 6.50552 64.4406 6.47996C64.1164 6.22744 63.7839 5.98306 63.4514 5.74276C63.4354 5.72732 63.4161 5.7155 63.395 5.70809C63.3739 5.70068 63.3515 5.69786 63.3292 5.69982C63.3069 5.70179 63.2853 5.70849 63.2659 5.71946C63.2464 5.73044 63.2296 5.74544 63.2165 5.76344C63.2034 5.78145 63.1944 5.80204 63.19 5.82382C63.1856 5.8456 63.1861 5.86805 63.1912 5.88965C63.1964 5.91126 63.2061 5.93151 63.2199 5.94903C63.2336 5.96655 63.251 5.98094 63.2708 5.99121C63.5951 6.21929 63.9276 6.47181 64.2477 6.72026Z" fill="black"/>
<path d="M61.2067 4.67596C61.5597 4.88368 61.9044 5.08325 62.2451 5.32355C62.2793 5.34466 62.3203 5.35219 62.3599 5.34464C62.3994 5.33709 62.4347 5.31501 62.4585 5.28282C62.4806 5.24804 62.4883 5.20611 62.4799 5.16585C62.4714 5.12559 62.4476 5.09014 62.4134 5.06696C62.0686 4.84295 61.7197 4.62301 61.3668 4.41122C61.3495 4.40094 61.3304 4.39415 61.3106 4.39125C61.2907 4.38835 61.2704 4.38939 61.2509 4.39432C61.2315 4.39924 61.2132 4.40795 61.1971 4.41994C61.1811 4.43193 61.1676 4.44696 61.1574 4.46417C61.1359 4.49881 61.1291 4.54045 61.1383 4.58009C61.1475 4.61972 61.1721 4.65416 61.2067 4.67596Z" fill="black"/>
<path d="M59.0436 3.4538C59.4089 3.63708 59.7701 3.82443 60.1313 4.01993C60.1523 4.03272 60.1764 4.03975 60.201 4.0403C60.2355 4.04044 60.269 4.02926 60.2964 4.0085C60.3238 3.98774 60.3434 3.95857 60.3524 3.92554C60.3613 3.89251 60.3589 3.85748 60.3456 3.82593C60.3324 3.79438 60.3089 3.76807 60.279 3.75112C59.9178 3.55562 59.5525 3.34383 59.1831 3.18091C59.1648 3.17181 59.1448 3.16639 59.1244 3.16494C59.104 3.1635 59.0834 3.16606 59.064 3.17249C59.0445 3.17892 59.0266 3.18909 59.0111 3.20242C58.9956 3.21574 58.9829 3.23196 58.9738 3.25015C58.9647 3.26803 58.9593 3.28753 58.9579 3.30751C58.9565 3.32749 58.9591 3.34755 58.9656 3.36651C58.9721 3.38547 58.9823 3.40295 58.9957 3.41794C59.0091 3.43293 59.0254 3.44512 59.0436 3.4538Z" fill="black"/>
<path d="M68.7548 50.2678C68.7782 50.2673 68.8012 50.262 68.8224 50.2522C68.8436 50.2424 68.8625 50.2283 68.8779 50.2108C69.1447 49.9013 69.4033 49.5836 69.6619 49.2618C69.6821 49.2292 69.6895 49.1903 69.6825 49.1526C69.6755 49.1149 69.6546 49.0811 69.624 49.0578C69.5933 49.0345 69.5551 49.0233 69.5166 49.0264C69.4781 49.0294 69.4421 49.0466 69.4156 49.0745C69.1639 49.3921 68.9053 49.7058 68.6399 50.0153C68.6141 50.0468 68.6018 50.087 68.6057 50.1274C68.6095 50.1678 68.6292 50.205 68.6604 50.2312C68.6873 50.2527 68.7203 50.2655 68.7548 50.2678Z" fill="black"/>
<path d="M57.9763 57.9696C57.6069 58.1366 57.2292 58.2954 56.8516 58.4461C56.8144 58.4623 56.7848 58.492 56.7688 58.529C56.7528 58.5661 56.7516 58.6078 56.7654 58.6457C56.7781 58.6734 56.7982 58.6972 56.8235 58.7144C56.8488 58.7317 56.8784 58.7417 56.9091 58.7434C56.928 58.7477 56.9476 58.7477 56.9666 58.7434C57.3483 58.5887 57.73 58.4298 58.1035 58.2628C58.1241 58.2559 58.1431 58.2448 58.1591 58.2302C58.1751 58.2156 58.1879 58.1979 58.1966 58.1781C58.2053 58.1583 58.2097 58.137 58.2096 58.1154C58.2095 58.0938 58.2048 58.0725 58.1959 58.0528C58.187 58.0331 58.174 58.0154 58.1578 58.001C58.1417 57.9866 58.1226 57.9757 58.1019 57.969C58.0812 57.9623 58.0594 57.96 58.0377 57.9622C58.0161 57.9644 57.9952 57.9711 57.9763 57.9818V57.9696Z" fill="black"/>
<path d="M60.16 56.8862C59.8029 57.0817 59.4417 57.2691 59.0805 57.4524C59.0479 57.4662 59.0211 57.491 59.0049 57.5223C58.9888 57.5537 58.9842 57.5897 58.992 57.6241C58.9998 57.6585 59.0195 57.689 59.0477 57.7105C59.0758 57.732 59.1107 57.7429 59.1462 57.7415C59.1691 57.7476 59.1931 57.7476 59.216 57.7415C59.5854 57.5583 59.9507 57.3668 60.3078 57.1713C60.3376 57.149 60.3584 57.1167 60.3663 57.0804C60.3742 57.0441 60.3687 57.0063 60.3508 56.9737C60.3328 56.9411 60.3037 56.916 60.2687 56.9029C60.2337 56.8899 60.1951 56.8897 60.16 56.9025V56.8862Z" fill="black"/>
<path d="M62.2492 55.6317C61.9126 55.8517 61.5678 56.0716 61.2189 56.2793C61.1836 56.3004 61.1582 56.3346 61.1482 56.3743C61.1382 56.414 61.1445 56.456 61.1656 56.4911C61.1794 56.5133 61.1988 56.5317 61.2217 56.5445C61.2447 56.5574 61.2706 56.5642 61.2969 56.5644C61.3259 56.5634 61.3542 56.555 61.379 56.54C61.732 56.3282 62.0768 56.1123 62.4216 55.8842C62.4553 55.8616 62.4786 55.8265 62.4863 55.7868C62.494 55.7471 62.4855 55.7059 62.4626 55.6724C62.4397 55.639 62.4044 55.6159 62.3644 55.6082C62.3244 55.6006 62.2829 55.609 62.2492 55.6317Z" fill="black"/>
<path d="M66.0989 52.6502C65.7992 52.9231 65.4914 53.1919 65.1794 53.4648C65.1511 53.4937 65.1353 53.5324 65.1353 53.5727C65.1353 53.613 65.1511 53.6518 65.1794 53.6807C65.194 53.6968 65.2116 53.7098 65.2314 53.7189C65.2512 53.728 65.2726 53.733 65.2944 53.7336C65.3319 53.734 65.3683 53.721 65.397 53.697C65.713 53.4322 66.0209 53.1593 66.3246 52.8824C66.3434 52.87 66.3593 52.8536 66.3712 52.8345C66.383 52.8154 66.3906 52.794 66.3932 52.7717C66.3959 52.7494 66.3937 52.7269 66.3867 52.7055C66.3797 52.6842 66.3681 52.6646 66.3527 52.6482C66.3374 52.6317 66.3186 52.6188 66.2977 52.6102C66.2767 52.6017 66.2542 52.5978 66.2316 52.5988C66.209 52.5997 66.1869 52.6056 66.1668 52.6159C66.1468 52.6261 66.1292 52.6407 66.1153 52.6584L66.0989 52.6502Z" fill="black"/>
<path d="M64.2313 54.2104C63.9112 54.4588 63.5869 54.7032 63.2545 54.9394C63.2214 54.9638 63.1993 55.0002 63.1932 55.0406C63.187 55.0811 63.1972 55.1223 63.2216 55.1553C63.2356 55.1746 63.2541 55.1903 63.2756 55.2009C63.297 55.2116 63.3208 55.2169 63.3448 55.2164C63.361 55.218 63.3774 55.2163 63.3929 55.2114C63.4084 55.2065 63.4228 55.1985 63.4351 55.1878C63.7716 54.9516 64.1 54.7032 64.4243 54.4507C64.4509 54.4237 64.4667 54.388 64.4687 54.3502C64.4706 54.3125 64.4586 54.2754 64.4349 54.2458C64.4112 54.2163 64.3774 54.1964 64.3399 54.1898C64.3024 54.1833 64.2638 54.1906 64.2313 54.2104Z" fill="black"/>
<path d="M53.3751 59.5988C52.9646 59.7046 52.587 59.7983 52.1888 59.8879C52.152 59.8963 52.1195 59.9177 52.0974 59.9481C52.0753 59.9785 52.065 60.0158 52.0685 60.0531C52.0721 60.0905 52.0891 60.1252 52.1165 60.151C52.1439 60.1768 52.1798 60.1919 52.2176 60.1934H52.2545C52.665 60.1038 53.0754 60.006 53.4571 59.9001C53.4767 59.895 53.4949 59.886 53.5109 59.8737C53.5269 59.8615 53.5402 59.8462 53.5501 59.8287C53.5601 59.8113 53.5664 59.792 53.5688 59.7721C53.5711 59.7522 53.5695 59.732 53.5639 59.7128C53.5601 59.6924 53.5521 59.673 53.5403 59.6559C53.5285 59.6388 53.5131 59.6244 53.4953 59.6137C53.4774 59.6029 53.4575 59.596 53.4368 59.5934C53.4161 59.5908 53.395 59.5927 53.3751 59.5988Z" fill="black"/>
<path d="M55.7103 58.8738C55.3286 59.0123 54.9428 59.1385 54.5528 59.2811C54.5139 59.2933 54.4813 59.3202 54.4621 59.356C54.4429 59.3918 54.4387 59.4336 54.4502 59.4725C54.4602 59.5031 54.4792 59.53 54.5048 59.5497C54.5305 59.5693 54.5615 59.5807 54.5939 59.5825H54.6431C55.0536 59.4603 55.4271 59.33 55.817 59.1752C55.836 59.1684 55.8534 59.1579 55.8683 59.1444C55.8831 59.1308 55.8951 59.1144 55.9035 59.0962C55.9119 59.078 55.9166 59.0584 55.9172 59.0384C55.9179 59.0184 55.9145 58.9984 55.9073 58.9797C55.895 58.94 55.8674 58.9066 55.8306 58.8868C55.7938 58.8671 55.7506 58.8624 55.7103 58.8738Z" fill="black"/>
<path d="M52.1311 1.02251C52.5416 1.11212 52.9274 1.20579 53.3214 1.31169H53.3584C53.3946 1.30978 53.4291 1.29537 53.4558 1.27094C53.4825 1.24651 53.4998 1.21359 53.5047 1.17786C53.5095 1.14214 53.5017 1.10585 53.4825 1.07525C53.4632 1.04466 53.4339 1.02168 53.3994 1.01029C52.9889 0.904398 52.6031 0.810721 52.1968 0.721117C52.1773 0.716331 52.1571 0.715512 52.1374 0.718709C52.1176 0.721907 52.0987 0.729053 52.0818 0.739718C52.0649 0.750383 52.0504 0.764345 52.0391 0.780751C52.0278 0.797157 52.02 0.815666 52.0162 0.835158C52.0107 0.854965 52.0093 0.875674 52.0122 0.896016C52.0151 0.916358 52.0221 0.935904 52.0329 0.95345C52.0437 0.970996 52.0579 0.986174 52.0748 0.99805C52.0917 1.00993 52.1109 1.01825 52.1311 1.02251Z" fill="black"/>
<path d="M54.4955 1.64548C54.906 1.76767 55.2754 1.89393 55.6571 2.02833C55.6733 2.0323 55.6902 2.0323 55.7063 2.02833C55.739 2.03059 55.7714 2.02173 55.7983 2.00321C55.8252 1.9847 55.8448 1.95764 55.8541 1.92651C55.8675 1.88867 55.8656 1.84713 55.8488 1.81066C55.8319 1.77418 55.8015 1.74563 55.7638 1.73101C55.3739 1.59661 54.984 1.46627 54.5899 1.32372C54.5507 1.31224 54.5086 1.31647 54.4725 1.33551C54.4364 1.35455 54.4093 1.38688 54.397 1.42555C54.3856 1.44595 54.3791 1.4687 54.3781 1.49201C54.377 1.51532 54.3815 1.53855 54.391 1.55988C54.4006 1.5812 54.415 1.60003 54.4331 1.61488C54.4512 1.62974 54.4726 1.64021 54.4955 1.64548Z" fill="black"/>
<path d="M75.2724 37.2751H75.3012C75.3369 37.2761 75.3718 37.2649 75.4002 37.2434C75.4286 37.2219 75.4487 37.1914 75.4571 37.157C75.5433 36.7497 75.6295 36.3424 75.7034 35.9351C75.7069 35.9153 75.7064 35.895 75.7018 35.8753C75.6973 35.8557 75.6889 35.8372 75.677 35.8209C75.6651 35.8046 75.6501 35.7908 75.6328 35.7803C75.6155 35.7698 75.5962 35.7629 75.5762 35.76C75.5564 35.7559 75.5361 35.7558 75.5163 35.7598C75.4966 35.7638 75.4778 35.7718 75.4613 35.7832C75.4448 35.7947 75.4308 35.8093 75.4202 35.8264C75.4096 35.8434 75.4026 35.8624 75.3997 35.8821C75.3258 36.2894 75.2437 36.6967 75.1534 37.0714C75.1451 37.0925 75.1418 37.1151 75.1435 37.1377C75.1453 37.1602 75.1521 37.1821 75.1636 37.2016C75.175 37.2212 75.1907 37.238 75.2096 37.2507C75.2284 37.2634 75.2499 37.2717 75.2724 37.2751Z" fill="black"/>
<path d="M28.6125 5.34773C28.643 5.3479 28.6729 5.33942 28.6987 5.3233C29.0394 5.09929 29.3842 4.88342 29.7331 4.67163C29.7679 4.65057 29.7929 4.61664 29.8025 4.5773C29.8121 4.53796 29.8056 4.49644 29.7844 4.46188C29.7631 4.42731 29.7289 4.40253 29.6893 4.39298C29.6497 4.38343 29.6078 4.3899 29.573 4.41096C29.22 4.62276 28.8711 4.84269 28.5304 5.0667C28.501 5.08356 28.4782 5.10971 28.4655 5.14096C28.4529 5.17221 28.4511 5.20676 28.4606 5.23911C28.47 5.27146 28.4901 5.29973 28.5177 5.31942C28.5452 5.33911 28.5786 5.34908 28.6125 5.34773Z" fill="black"/>
<path d="M74.6241 39.6169H74.6693C74.7026 39.6173 74.7352 39.6067 74.7619 39.5868C74.7886 39.5669 74.808 39.5389 74.817 39.507C74.9402 39.12 75.0551 38.725 75.1618 38.3299C75.1699 38.3095 75.1736 38.2877 75.1726 38.2658C75.1716 38.2439 75.1659 38.2224 75.1559 38.2029C75.1459 38.1834 75.1318 38.1661 75.1146 38.1524C75.0974 38.1386 75.0774 38.1287 75.0561 38.1232C75.0347 38.1176 75.0124 38.1167 74.9906 38.1204C74.9688 38.124 74.9481 38.1323 74.9298 38.1445C74.9114 38.1567 74.8959 38.1727 74.8843 38.1913C74.8726 38.2099 74.8651 38.2308 74.8622 38.2525C74.7596 38.6598 74.6446 39.0304 74.5215 39.4174C74.5145 39.4371 74.5116 39.4581 74.513 39.479C74.5145 39.4999 74.5201 39.5203 74.5297 39.539C74.5393 39.5576 74.5526 39.5742 74.5689 39.5876C74.5851 39.601 74.6039 39.611 74.6241 39.6169Z" fill="black"/>
<path d="M50.9864 60.1326C50.576 60.2018 50.186 60.267 49.7797 60.324C49.7432 60.3299 49.71 60.3486 49.686 60.3765C49.6621 60.4045 49.6489 60.44 49.6489 60.4767C49.6489 60.5135 49.6621 60.549 49.686 60.5769C49.71 60.6049 49.7432 60.6235 49.7797 60.6295H49.8043C50.212 60.5725 50.6225 60.5073 51.0357 60.434C51.0758 60.4261 51.1111 60.4029 51.1342 60.3694C51.1572 60.3358 51.166 60.2947 51.1588 60.2548C51.1508 60.2166 51.1287 60.1828 51.0967 60.1602C51.0648 60.1375 51.0254 60.1277 50.9864 60.1326Z" fill="black"/>
<path d="M76.1468 32.3064C76.1714 31.8991 76.1878 31.4918 76.196 31.0845V31.0112C76.196 30.9709 76.1802 30.9321 76.1518 30.9032C76.1234 30.8743 76.0848 30.8575 76.0442 30.8564C76.0035 30.8564 75.9644 30.8722 75.9353 30.9003C75.9062 30.9285 75.8892 30.9668 75.8882 31.0071V31.0642C75.8882 31.4715 75.8636 31.8787 75.8389 32.286C75.8378 32.3264 75.8526 32.3656 75.8802 32.3953C75.9078 32.425 75.946 32.4428 75.9867 32.4449C76.0261 32.4461 76.0645 32.4325 76.0941 32.4068C76.1238 32.3812 76.1426 32.3453 76.1468 32.3064Z" fill="black"/>
<path d="M73.7869 41.9309H73.8402C73.8716 41.9323 73.9026 41.9241 73.9291 41.9073C73.9556 41.8906 73.9761 41.866 73.988 41.8372C74.1398 41.4543 74.2876 41.0715 74.4272 40.6846C74.4346 40.648 74.4285 40.6099 74.41 40.5774C74.3914 40.5449 74.3616 40.5202 74.3261 40.5078C74.2906 40.4954 74.2518 40.4962 74.2168 40.5099C74.1818 40.5237 74.153 40.5496 74.1357 40.5827C74.0003 40.9656 73.8525 41.3444 73.7007 41.7231C73.692 41.7423 73.6874 41.7631 73.687 41.7841C73.6867 41.8051 73.6907 41.826 73.6988 41.8454C73.7068 41.8648 73.7188 41.8824 73.7339 41.8971C73.7491 41.9118 73.7671 41.9233 73.7869 41.9309Z" fill="black"/>
<path d="M71.5582 46.2886C71.5824 46.301 71.609 46.3079 71.6362 46.3089C71.6633 46.3094 71.69 46.3029 71.7137 46.2901C71.7375 46.2772 71.7574 46.2585 71.7717 46.2356C71.9851 45.8854 72.1821 45.531 72.3914 45.1726C72.4015 45.155 72.4079 45.1356 72.4102 45.1156C72.4125 45.0955 72.4108 45.0752 72.405 45.0558C72.3993 45.0364 72.3897 45.0184 72.3768 45.0028C72.3638 44.9871 72.3479 44.9743 72.3299 44.9649C72.3124 44.9548 72.2931 44.9482 72.2731 44.9456C72.253 44.943 72.2326 44.9444 72.2131 44.9497C72.1936 44.955 72.1754 44.9641 72.1595 44.9765C72.1436 44.9889 72.1304 45.0044 72.1206 45.0219C71.9235 45.3803 71.7101 45.7306 71.509 46.0768C71.4875 46.1114 71.4806 46.1531 71.4898 46.1927C71.4991 46.2323 71.5236 46.2668 71.5582 46.2886Z" fill="black"/>
<path d="M70.2773 48.3454C70.3023 48.3457 70.3269 48.34 70.3491 48.3286C70.3713 48.3172 70.3904 48.3006 70.4045 48.2802C70.6467 47.9503 70.8807 47.6122 71.1105 47.2742C71.1326 47.2394 71.1402 47.1975 71.1318 47.1572C71.1234 47.117 71.0996 47.0815 71.0654 47.0583C71.0309 47.0366 70.9893 47.0292 70.9494 47.0375C70.9095 47.0459 70.8745 47.0695 70.8519 47.1031C70.6262 47.4412 70.3922 47.7751 70.1542 48.101C70.1308 48.1343 70.1212 48.1753 70.1273 48.2154C70.1334 48.2555 70.1548 48.2918 70.187 48.3168C70.2131 48.3359 70.2449 48.3459 70.2773 48.3454Z" fill="black"/>
<path d="M72.7607 44.1545C72.7838 44.1587 72.8074 44.1587 72.8305 44.1545C72.8594 44.154 72.8876 44.1458 72.9121 44.1308C72.9367 44.1157 72.9567 44.0943 72.97 44.0689C73.1534 43.7024 73.3299 43.3317 73.4995 42.957C73.5079 42.9388 73.5125 42.9192 73.5133 42.8992C73.514 42.8792 73.5107 42.8593 73.5036 42.8406C73.4966 42.8219 73.4859 42.8047 73.4722 42.7901C73.4584 42.7755 73.4419 42.7637 73.4236 42.7554C73.4053 42.7471 73.3855 42.7425 73.3653 42.7418C73.3452 42.7411 73.3251 42.7443 73.3063 42.7513C73.2874 42.7583 73.2701 42.7689 73.2554 42.7826C73.2407 42.7962 73.2288 42.8126 73.2204 42.8308C73.0508 43.2027 72.8743 43.5693 72.6909 43.9304C72.6797 43.9495 72.6726 43.9706 72.67 43.9925C72.6675 44.0144 72.6695 44.0366 72.6761 44.0577C72.6826 44.0788 72.6936 44.0983 72.7081 44.1149C72.7227 44.1316 72.7406 44.145 72.7607 44.1545Z" fill="black"/>
<path d="M75.7448 34.8804C75.7866 34.8815 75.8272 34.8663 75.8578 34.8382C75.8885 34.81 75.9069 34.7711 75.909 34.7297C75.9665 34.3224 76.0157 33.9151 76.0568 33.5078C76.0602 33.4674 76.0475 33.4272 76.0214 33.396C75.9953 33.3647 75.9579 33.3449 75.9172 33.3408C75.8968 33.3379 75.8761 33.3393 75.8563 33.3449C75.8365 33.3505 75.8181 33.3601 75.8022 33.3731C75.7864 33.3862 75.7735 33.4023 75.7643 33.4206C75.7551 33.4389 75.7499 33.4589 75.7489 33.4793C75.7079 33.8866 75.6586 34.2939 75.6012 34.7011C75.5983 34.721 75.5994 34.7412 75.6045 34.7605C75.6095 34.7799 75.6184 34.7981 75.6307 34.814C75.6429 34.83 75.6582 34.8433 75.6757 34.8533C75.6932 34.8633 75.7125 34.8697 75.7325 34.8722L75.7448 34.8804Z" fill="black"/>
<path d="M36.4687 59.2693C36.0788 59.1471 35.6929 59.0208 35.3071 58.8823C35.2685 58.8692 35.2262 58.8717 35.1893 58.8892C35.1525 58.9067 35.124 58.9379 35.1101 58.976C35.103 58.995 35.0998 59.0152 35.1007 59.0354C35.1017 59.0556 35.1067 59.0754 35.1155 59.0936C35.1243 59.1119 35.1367 59.1282 35.152 59.1416C35.1673 59.1549 35.1852 59.1651 35.2045 59.1715C35.5903 59.31 35.9844 59.4403 36.3784 59.5584C36.3918 59.5623 36.406 59.5623 36.4194 59.5584C36.4587 59.5639 36.4986 59.5539 36.5305 59.5306C36.5625 59.5073 36.584 59.4725 36.5904 59.4336C36.5969 59.3948 36.5877 59.355 36.565 59.3228C36.5422 59.2905 36.5077 59.2684 36.4687 59.2611V59.2693Z" fill="black"/>
<path d="M35.2001 2.06898C35.2176 2.07272 35.2358 2.07272 35.2534 2.06898C35.6351 1.93457 36.0251 1.80424 36.415 1.68613C36.4503 1.67075 36.4786 1.64294 36.4944 1.60808C36.5103 1.57321 36.5126 1.53376 36.5008 1.49732C36.4891 1.46089 36.4642 1.43005 36.4309 1.41077C36.3976 1.39148 36.3583 1.38511 36.3206 1.39288C35.9266 1.51506 35.5366 1.65083 35.1508 1.80017C35.1315 1.80655 35.1136 1.81674 35.0983 1.83012C35.083 1.8435 35.0706 1.85979 35.0618 1.87804C35.053 1.89628 35.048 1.9161 35.047 1.93631C35.0461 1.95652 35.0493 1.9767 35.0564 1.99566C35.0716 2.01943 35.093 2.03874 35.1182 2.05162C35.1435 2.0645 35.1717 2.07049 35.2001 2.06898Z" fill="black"/>
<path d="M37.548 1.33174H37.5891C37.9995 1.22991 38.3771 1.13216 38.7794 1.04256C38.8188 1.03288 38.8529 1.00831 38.8743 0.974083C38.8958 0.939853 38.903 0.898663 38.8943 0.859277C38.8854 0.81939 38.8611 0.784592 38.8265 0.762467C38.7919 0.740342 38.7499 0.732687 38.7096 0.741166C38.2991 0.834843 37.8887 0.932591 37.5111 1.03849C37.4715 1.04902 37.4377 1.07457 37.417 1.10963C37.3962 1.14468 37.3902 1.18643 37.4002 1.22584C37.4111 1.25631 37.4311 1.28277 37.4575 1.30169C37.4839 1.32062 37.5154 1.3311 37.548 1.33174Z" fill="black"/>
<path d="M49.7222 0.59074C50.1327 0.647761 50.5431 0.712928 50.9536 0.782167H50.9782C51.0148 0.782008 51.0503 0.769386 51.0787 0.746408C51.1071 0.723429 51.1267 0.691483 51.1342 0.655905C51.1402 0.615533 51.1304 0.574399 51.1067 0.541032C51.083 0.507664 51.0473 0.484627 51.0069 0.476699C50.5965 0.40746 50.186 0.342293 49.7756 0.285272C49.7348 0.279441 49.6933 0.289879 49.6602 0.314302C49.6272 0.338724 49.6052 0.375145 49.5991 0.415605C49.5955 0.435132 49.5959 0.455161 49.6002 0.474543C49.6045 0.493925 49.6126 0.512277 49.624 0.528549C49.6354 0.544821 49.65 0.558692 49.6669 0.569365C49.6837 0.580037 49.7025 0.587301 49.7222 0.59074Z" fill="black"/>
<path d="M30.7304 4.07293C30.7558 4.08077 30.783 4.08077 30.8084 4.07293C31.1655 3.87744 31.5267 3.69008 31.8879 3.5068C31.9244 3.48897 31.9522 3.45751 31.9653 3.41932C31.9784 3.38113 31.9756 3.33934 31.9577 3.30315C31.9397 3.26697 31.908 3.23934 31.8695 3.22636C31.831 3.21337 31.7889 3.21609 31.7524 3.23391C31.383 3.4172 31.0177 3.60862 30.6606 3.80412C30.6425 3.81391 30.6265 3.82718 30.6135 3.84317C30.6006 3.85915 30.5909 3.87753 30.5852 3.89724C30.5795 3.91694 30.5778 3.93758 30.5801 3.95796C30.5825 3.97833 30.589 3.99803 30.5991 4.01591C30.6145 4.03541 30.6346 4.05082 30.6575 4.06077C30.6805 4.07072 30.7055 4.0749 30.7304 4.07293Z" fill="black"/>
<path d="M29.7784 56.2793C29.4295 56.0675 29.0847 55.872 28.744 55.6277C28.7096 55.606 28.668 55.5985 28.6281 55.6069C28.5882 55.6152 28.5532 55.6388 28.5306 55.6725C28.519 55.689 28.5109 55.7076 28.5067 55.7272C28.5025 55.7469 28.5023 55.7672 28.5062 55.7869C28.51 55.8067 28.5177 55.8254 28.529 55.8422C28.5402 55.8589 28.5547 55.8732 28.5716 55.8843C28.9164 56.1083 29.2653 56.3282 29.6183 56.54C29.6411 56.5559 29.6684 56.5644 29.6963 56.5644C29.7298 56.564 29.7623 56.5528 29.789 56.5326C29.8156 56.5124 29.835 56.4842 29.8442 56.4522C29.8535 56.4202 29.852 56.3861 29.8402 56.3549C29.8283 56.3238 29.8066 56.2973 29.7784 56.2793Z" fill="black"/>
<path d="M32.9264 2.98144C32.9479 2.98696 32.9705 2.98696 32.9921 2.98144C33.3615 2.81852 33.735 2.65968 34.1167 2.50491C34.1354 2.49734 34.1525 2.48613 34.1668 2.47194C34.1811 2.45775 34.1924 2.44086 34.2001 2.42227C34.2077 2.40367 34.2116 2.38376 34.2113 2.36367C34.2111 2.34359 34.2069 2.32376 34.1988 2.30534C34.1912 2.28674 34.1799 2.26983 34.1656 2.25562C34.1513 2.24142 34.1342 2.23019 34.1155 2.2226C34.0968 2.21501 34.0767 2.21122 34.0565 2.21143C34.0362 2.21165 34.0162 2.21589 33.9977 2.22388C33.616 2.37458 33.2383 2.53749 32.8648 2.70448C32.8274 2.72138 32.7982 2.75225 32.7836 2.79038C32.769 2.82852 32.7702 2.87084 32.7868 2.90813C32.8017 2.93128 32.8224 2.9502 32.8469 2.96304C32.8713 2.97589 32.8987 2.98223 32.9264 2.98144Z" fill="black"/>
<path d="M38.8326 59.892C38.4222 59.8065 38.0363 59.7087 37.6464 59.6029C37.6067 59.5929 37.5646 59.5989 37.5293 59.6194C37.494 59.64 37.4682 59.6736 37.4576 59.7128C37.452 59.7321 37.4503 59.7522 37.4527 59.7721C37.455 59.792 37.4614 59.8113 37.4713 59.8287C37.4813 59.8462 37.4946 59.8615 37.5106 59.8738C37.5265 59.886 37.5448 59.895 37.5643 59.9002C37.9748 60.0061 38.3606 60.1038 38.7669 60.1934H38.7957C38.8318 60.1935 38.8668 60.1814 38.8951 60.1592C38.9234 60.1371 38.9433 60.1061 38.9517 60.0712C38.958 60.032 38.9493 59.9918 38.9273 59.9587C38.9052 59.9255 38.8715 59.9017 38.8326 59.892Z" fill="black"/>
<path d="M31.925 57.4523C31.5597 57.2731 31.1985 57.0817 30.8373 56.8862C30.8194 56.8728 30.7988 56.8634 30.7769 56.8586C30.7551 56.8538 30.7324 56.8538 30.7105 56.8585C30.6886 56.8632 30.6679 56.8725 30.65 56.8858C30.632 56.8991 30.6172 56.9161 30.6064 56.9356C30.5957 56.9552 30.5893 56.9768 30.5878 56.999C30.5862 57.0211 30.5895 57.0434 30.5974 57.0642C30.6053 57.085 30.6176 57.1039 30.6335 57.1196C30.6494 57.1353 30.6685 57.1473 30.6896 57.155C31.0508 57.3559 31.4161 57.5474 31.7855 57.7293C31.8072 57.733 31.8294 57.733 31.8511 57.7293C31.8806 57.7292 31.9095 57.7211 31.9348 57.7061C31.9601 57.691 31.9808 57.6695 31.9948 57.6438C32.0076 57.6088 32.0076 57.5705 31.9949 57.5355C31.9821 57.5005 31.9574 57.4711 31.925 57.4523Z" fill="black"/>
<path d="M34.1617 58.4546C33.78 58.2998 33.4024 58.141 33.033 57.974C32.9953 57.9585 32.953 57.9579 32.9149 57.9723C32.8767 57.9867 32.8456 58.015 32.8278 58.0514C32.8189 58.0698 32.814 58.0897 32.8131 58.1101C32.8123 58.1304 32.8156 58.1507 32.8229 58.1697C32.8302 58.1888 32.8413 58.2061 32.8555 58.2208C32.8698 58.2355 32.8868 58.2471 32.9057 58.255C33.2793 58.422 33.661 58.5849 34.0427 58.7356C34.0617 58.7395 34.0812 58.7395 34.1002 58.7356C34.1308 58.7362 34.161 58.7276 34.1866 58.7109C34.2123 58.6942 34.2322 58.6701 34.2438 58.6419C34.2564 58.6062 34.2549 58.5671 34.2397 58.5324C34.2244 58.4977 34.1966 58.4699 34.1617 58.4546Z" fill="black"/>
<path d="M47.2879 0.354231C47.6984 0.378669 48.1088 0.411251 48.5193 0.45198C48.5577 0.451316 48.5946 0.436962 48.6232 0.411537C48.6519 0.386113 48.6703 0.351318 48.6752 0.313503C48.6787 0.273072 48.666 0.232919 48.6399 0.201687C48.6138 0.170454 48.5764 0.150639 48.5357 0.146512C48.1252 0.105783 47.7148 0.0732007 47.3043 0.0487633C47.2839 0.0464956 47.2633 0.0484694 47.2437 0.0545585C47.2241 0.0606477 47.206 0.0707203 47.1906 0.0841315C47.1751 0.0975427 47.1627 0.114 47.154 0.132454C47.1453 0.150909 47.1406 0.170953 47.1402 0.191314C47.1385 0.211769 47.141 0.23235 47.1476 0.251793C47.1542 0.271237 47.1648 0.289135 47.1786 0.304389C47.1925 0.319643 47.2093 0.331932 47.2281 0.340503C47.2469 0.349074 47.2672 0.353745 47.2879 0.354231Z" fill="black"/>
<path d="M46.1225 60.6128C45.7572 60.6128 45.3919 60.6128 45.0266 60.6128H44.8993C44.8586 60.6117 44.8191 60.6264 44.7892 60.6538C44.7593 60.6812 44.7414 60.7191 44.7393 60.7595C44.7392 60.8002 44.7549 60.8394 44.7832 60.869C44.8115 60.8986 44.8501 60.9162 44.8911 60.9183H45.0184C45.3932 60.9183 45.7627 60.9183 46.1266 60.9183C46.1471 60.9178 46.1673 60.9132 46.186 60.905C46.2047 60.8967 46.2216 60.8849 46.2357 60.8701C46.2498 60.8554 46.2608 60.838 46.2682 60.819C46.2755 60.8 46.279 60.7798 46.2785 60.7595C46.2791 60.7393 46.2755 60.7193 46.2677 60.7007C46.26 60.682 46.2484 60.6652 46.2337 60.6514C46.2189 60.6375 46.2014 60.6269 46.1822 60.6203C46.1631 60.6136 46.1427 60.6111 46.1225 60.6128Z" fill="black"/>
<path d="M39.9453 0.802295H39.9781C40.3776 0.728983 40.7798 0.663818 41.1848 0.606797C41.2248 0.600737 41.2608 0.579511 41.2853 0.547598C41.3098 0.515686 41.3209 0.475581 41.3162 0.435736C41.3137 0.41547 41.3071 0.395915 41.2967 0.378259C41.2864 0.360603 41.2726 0.345213 41.2561 0.333025C41.2396 0.320836 41.2207 0.312103 41.2007 0.307355C41.1807 0.302606 41.1599 0.301943 41.1397 0.305403C40.7292 0.362424 40.3188 0.427588 39.9083 0.500901C39.8682 0.5088 39.8328 0.532006 39.8098 0.565522C39.7868 0.599038 39.7779 0.640185 39.7852 0.68011C39.7929 0.716005 39.8133 0.748 39.8426 0.770382C39.8719 0.792764 39.9083 0.804074 39.9453 0.802295Z" fill="black"/>
<path d="M48.5645 60.4707C48.1623 60.5114 47.7518 60.544 47.3331 60.5684C47.3128 60.5695 47.2929 60.5745 47.2746 60.5833C47.2563 60.5921 47.2399 60.6045 47.2265 60.6197C47.2131 60.6349 47.203 60.6526 47.1966 60.6718C47.1902 60.691 47.1878 60.7112 47.1895 60.7314C47.1916 60.7699 47.2085 60.8062 47.2368 60.8327C47.265 60.8592 47.3025 60.874 47.3413 60.8739C47.7518 60.8495 48.1622 60.8169 48.5727 60.7762C48.5927 60.7741 48.6121 60.7682 48.6297 60.7587C48.6474 60.7492 48.663 60.7363 48.6756 60.7207C48.6882 60.7052 48.6975 60.6873 48.7031 60.6682C48.7087 60.649 48.7104 60.629 48.7082 60.6092C48.7061 60.5724 48.6902 60.5378 48.6636 60.5121C48.637 60.4864 48.6016 60.4717 48.5645 60.4707Z" fill="black"/>
<path d="M44.8993 0.305468C45.2728 0.305468 45.6505 0.305468 46.0281 0.305468H46.1225C46.1426 0.306577 46.1627 0.303603 46.1816 0.296733C46.2004 0.289863 46.2177 0.279238 46.2323 0.26551C46.2469 0.251783 46.2585 0.235243 46.2665 0.216901C46.2744 0.198559 46.2785 0.178803 46.2785 0.158843C46.279 0.138517 46.2755 0.118282 46.2682 0.0992963C46.2608 0.0803109 46.2498 0.0629469 46.2357 0.0481955C46.2216 0.0334441 46.2047 0.0215941 46.186 0.0133244C46.1673 0.00505477 46.1471 0.000527875 46.1266 0H46.0363C45.6546 0 45.2728 0 44.8911 0C44.8505 0.00106188 44.8118 0.0178335 44.7835 0.0467443C44.7551 0.0756551 44.7392 0.114418 44.7393 0.154769C44.7398 0.175096 44.7444 0.195118 44.7527 0.213694C44.761 0.232271 44.773 0.249035 44.7878 0.26303C44.8027 0.277025 44.8202 0.287976 44.8393 0.295257C44.8585 0.302538 44.8788 0.30601 44.8993 0.305468Z" fill="black"/>
<path d="M41.242 60.3279C40.8316 60.2709 40.4211 60.2057 40.0312 60.1324C40.0112 60.1283 39.9905 60.1284 39.9705 60.1326C39.9505 60.1369 39.9316 60.1452 39.915 60.1571C39.8984 60.169 39.8845 60.1841 39.8741 60.2016C39.8637 60.2191 39.8571 60.2385 39.8547 60.2587C39.8506 60.2782 39.8505 60.2984 39.8545 60.318C39.8586 60.3376 39.8666 60.3562 39.8781 60.3726C39.8897 60.389 39.9045 60.4029 39.9216 60.4134C39.9388 60.424 39.9579 60.4309 39.9778 60.4338C40.3801 60.5071 40.7905 60.5723 41.2092 60.6293C41.247 60.6288 41.2834 60.615 41.312 60.5904C41.3405 60.5658 41.3593 60.532 41.3652 60.4949C41.369 60.4569 41.3586 60.4188 41.3359 60.388C41.3131 60.3571 41.2797 60.3358 41.242 60.3279Z" fill="black"/>
<path d="M43.6762 60.5681C43.2657 60.5437 42.8553 60.5111 42.4448 60.4704C42.4233 60.4654 42.401 60.465 42.3793 60.4692C42.3576 60.4734 42.3371 60.4822 42.3191 60.4949C42.3011 60.5076 42.286 60.524 42.2748 60.5429C42.2636 60.5618 42.2566 60.5829 42.2543 60.6047C42.252 60.6265 42.2543 60.6485 42.2612 60.6693C42.2681 60.6902 42.2794 60.7093 42.2943 60.7255C42.3092 60.7417 42.3274 60.7546 42.3477 60.7632C42.368 60.7719 42.3899 60.7762 42.412 60.7758C42.8225 60.8166 43.2329 60.8491 43.6434 60.8736C43.6799 60.8676 43.7131 60.849 43.737 60.821C43.761 60.7931 43.7741 60.7575 43.7741 60.7208C43.7741 60.6841 43.761 60.6486 43.737 60.6206C43.7131 60.5927 43.6799 60.574 43.6434 60.5681H43.6762Z" fill="black"/>
<path d="M42.4242 0.456463C42.8347 0.415734 43.2451 0.383152 43.6556 0.358714C43.6962 0.355583 43.734 0.336776 43.7609 0.306324C43.7877 0.275873 43.8015 0.236198 43.7992 0.195798C43.7982 0.175631 43.7931 0.155876 43.7842 0.137705C43.7753 0.119534 43.7629 0.103316 43.7476 0.0900193C43.7322 0.0767222 43.7144 0.0666145 43.6951 0.0602972C43.6757 0.05398 43.6553 0.0515834 43.635 0.0532466C43.2219 0.077684 42.8114 0.110266 42.4037 0.150995C42.3832 0.153025 42.3632 0.159078 42.3451 0.168798C42.3269 0.178518 42.3109 0.191712 42.2979 0.207621C42.2849 0.223531 42.2753 0.241838 42.2695 0.261481C42.2637 0.281125 42.2619 0.301712 42.2641 0.322057C42.2683 0.360585 42.2872 0.396048 42.317 0.421077C42.3469 0.446105 42.3852 0.458777 42.4242 0.456463Z" fill="black"/>
<path d="M71.3407 14.3655C71.0534 13.7871 70.3515 13.7749 68.2664 13.7342H68.2295L67.2239 13.7138H66.916C64.1209 13.7138 61.0589 14.6506 57.8204 15.6362H57.7835C56.6589 15.9783 55.4932 16.3327 54.307 16.6585C53.7652 16.8092 52.9114 17.021 51.9181 17.2654C49.8659 17.7745 47.2841 18.4099 46.0774 18.8457V18.7276C46.0774 18.5687 46.1061 18.4017 46.1143 18.2388C46.1226 18.0759 46.1143 17.9904 46.1349 17.8315C46.1349 17.3916 46.1595 16.7929 46.1677 16.3612H46.2005H46.258H46.2867C46.3153 16.3651 46.3443 16.3651 46.3729 16.3612H46.492H46.6069H46.7259H46.8408H46.9188L47.0666 16.3286C47.3537 16.244 47.6294 16.125 47.8875 15.9743L48.0845 15.8602L48.2774 15.738L48.4088 15.6484C48.4868 15.5955 48.5688 15.5426 48.6468 15.4815C49.1361 15.1367 49.6048 14.7641 50.0506 14.3655C49.6022 14.7631 49.1307 15.1344 48.6386 15.4774C48.5647 15.5344 48.4827 15.5833 48.4006 15.6362L48.2651 15.7218L48.0722 15.8317C48.0104 15.8713 47.9459 15.9067 47.8793 15.9376C47.6211 16.0802 47.3451 16.1883 47.0584 16.2594C47.0132 16.2594 46.964 16.2594 46.9188 16.2838H46.845H46.7382H46.6315H46.5248H46.4222H46.3483H46.3196H46.2703H46.2416H46.2211V16.2268C46.2211 13.7831 45.7901 13.5428 45.6259 13.4572L45.5356 13.4287L45.4494 13.4531C45.3016 13.5305 44.9528 13.7179 44.8707 15.4C44.8164 15.3899 44.7616 15.3831 44.7065 15.3796H44.649C44.5105 15.38 44.3726 15.3978 44.2386 15.4326C44.0821 15.4743 43.9327 15.5388 43.7953 15.624C43.6462 15.715 43.5266 15.8464 43.4505 16.0028C43.4115 16.086 43.3892 16.1759 43.3848 16.2675C43.3848 16.3083 43.3848 16.3531 43.3848 16.3938C43.3848 16.4345 43.3848 16.4712 43.3848 16.516C43.4373 16.6715 43.5105 16.8195 43.6024 16.9558C43.6848 17.0862 43.7753 17.2113 43.8733 17.3306C44.1154 17.6319 44.3699 17.9252 44.6162 18.2062C44.7106 18.3203 44.8091 18.4302 44.9076 18.5443C44.9076 18.638 44.9076 18.7276 44.9076 18.8212V18.9108C43.7009 18.475 41.1315 17.8397 39.0669 17.3306C38.0736 17.0862 37.2157 16.8744 36.6781 16.7237C35.4877 16.3979 34.3221 16.0435 33.1974 15.6973H33.1769C29.9343 14.7076 26.8642 13.7708 24.0649 13.7708H23.7817L22.7719 13.7912H22.735C20.6499 13.8319 19.948 13.8441 19.6607 14.4225C19.2215 15.3022 20.3831 16.74 23.322 18.9516C23.4123 19.0208 23.5067 19.09 23.5272 19.1104C26.3141 21.5542 29.8687 22.1203 35.7545 23.0611H35.8489C36.7314 23.1996 37.6467 23.3462 38.6318 23.5132C38.9797 23.5777 39.3327 23.6118 39.6867 23.6151C40.0651 23.616 40.442 23.5667 40.8072 23.4684C41.9711 23.1225 43.0081 22.4474 43.7912 21.5256C44.1319 21.1399 44.4459 20.7316 44.7311 20.3038L44.7599 20.259L44.9815 19.9454C44.9815 20.1246 44.9815 20.3038 44.9815 20.483C44.9815 20.5807 44.9815 20.6785 44.9815 20.7762V21.1306C44.571 23.2037 43.9472 24.7962 43.196 25.8511C41.8621 27.7246 39.8714 28.918 37.2814 29.3986C35.2887 29.8204 33.2212 29.7392 31.2683 29.1623C28.5101 28.3478 26.3962 26.7553 25.5959 25.6108C25.1854 25.0487 25.0623 24.6251 25.1854 24.3441C25.3783 23.8268 26.3757 23.6639 27.4306 23.4929C28.2763 23.3507 29.1354 23.3028 29.9918 23.3503C31.1823 23.4269 32.3564 23.6667 33.4806 24.0631L33.7351 24.1405L33.8295 24.1608L34.8228 24.3889C35.1594 24.4622 35.5411 24.5477 35.9269 24.6048H36.0254H36.0952L36.5057 24.6536L37.0639 24.7025C37.439 24.7377 37.8159 24.7513 38.1926 24.7432C38.5736 24.7326 38.9527 24.6876 39.3255 24.6088C39.4979 24.5763 39.6702 24.5315 39.8385 24.4907C40.0068 24.45 40.2203 24.393 40.405 24.3645C40.5629 24.3291 40.7276 24.3376 40.8811 24.3889C41.0236 24.448 41.138 24.5586 41.2012 24.6984C41.2735 24.842 41.2979 25.0046 41.271 25.1628C41.2369 25.3244 41.1588 25.4737 41.0453 25.5945C40.801 25.8375 40.5146 26.0349 40.1997 26.1769C40.052 26.2502 39.8878 26.3235 39.699 26.4009C39.5102 26.4783 39.3542 26.5353 39.1818 26.5923C38.5038 26.8139 37.7941 26.9254 37.0803 26.9222H37.0146C36.2769 26.9179 35.5449 26.7941 34.8474 26.5557C34.1438 26.312 33.4832 25.9601 32.8896 25.513C33.4748 25.977 34.13 26.3467 34.831 26.6086C35.5347 26.8608 36.2749 26.9983 37.0228 27.0159C37.7752 27.0444 38.5271 26.9481 39.2475 26.7308C39.4281 26.6779 39.6005 26.6127 39.7811 26.5475C39.9617 26.4824 40.1464 26.405 40.3023 26.3317C40.4754 26.2539 40.6428 26.164 40.8031 26.0629C40.9701 25.9589 41.1232 25.8344 41.2587 25.6922C41.3627 25.5807 41.4448 25.4508 41.5009 25.3094C41.5233 25.2651 41.5412 25.2187 41.5542 25.1709C41.5974 24.9576 41.5701 24.7362 41.4762 24.5396C41.3888 24.3353 41.2257 24.1721 41.0206 24.0834C40.8224 24.0121 40.609 23.9924 40.4009 24.0264C40.2203 24.0508 40.0479 24.0916 39.8837 24.1282H39.8426C39.6744 24.169 39.4938 24.2097 39.305 24.2423C38.9529 24.3067 38.5958 24.3408 38.2378 24.3441H38.1967C37.8414 24.3393 37.4866 24.3162 37.1337 24.2749L36.5878 24.2138L36.1773 24.1567H36.1322H36.046C35.7012 24.0956 35.3564 24.0142 34.9747 23.9205L33.9896 23.6721L33.9075 23.6476L33.6612 23.5702C32.5031 23.1663 31.2948 22.921 30.0698 22.8412C29.1777 22.7915 28.2829 22.8407 27.4018 22.9878C26.1705 23.1915 25.091 23.3666 24.8037 24.1282C24.6395 24.564 24.8037 25.1179 25.288 25.8185C26.1582 27.0689 28.3254 28.7103 31.2026 29.5493C32.3492 29.8904 33.5396 30.0647 34.7366 30.0665C35.6395 30.061 36.5398 29.9696 37.4251 29.7936C40.1341 29.2927 42.2192 28.0382 43.6229 26.0629C44.2773 25.0797 44.7654 23.9969 45.0677 22.8575C45.0882 25.3012 45.1334 34.563 45.158 39.5564C45.158 41.2915 45.158 42.5459 45.158 42.7373C45.158 42.8025 45.2606 49.4699 45.4905 49.7631C45.7203 49.4699 45.8229 42.8025 45.8229 42.7373C45.8229 42.5459 45.8229 41.3118 45.8229 39.5971C45.8475 34.5875 45.8968 25.3012 45.9132 22.8493C46.201 23.9897 46.6812 25.0734 47.3334 26.0547C48.7371 28.0301 50.8263 29.2845 53.5353 29.7855C54.4192 29.9617 55.3181 30.0531 56.2197 30.0584C57.4167 30.0569 58.6072 29.8826 59.7537 29.5411C62.6268 28.7021 64.7981 27.0607 65.6724 25.8103C66.1608 25.1098 66.3168 24.5559 66.1526 24.1201C65.8653 23.3585 64.794 23.1833 63.5544 22.9797C62.6734 22.8325 61.7785 22.7833 60.8865 22.833C59.9473 22.904 59.0193 23.0803 58.1201 23.3585C57.7876 23.4521 57.4469 23.5499 57.0734 23.6354C56.9708 23.6558 56.8148 23.7006 56.6219 23.7576C55.2756 24.1649 51.6965 25.179 49.0327 23.7943C48.0971 23.3594 47.2911 22.6915 46.6931 21.8556C46.3944 21.4127 46.1544 20.9336 45.9789 20.43V19.872L46.0117 19.9169L46.0979 20.035L46.2211 20.2142C46.5103 20.6413 46.827 21.0494 47.1692 21.436C47.9507 22.3596 48.9883 23.0351 50.1532 23.3788C50.517 23.4774 50.8925 23.5267 51.2696 23.5254C51.6249 23.5219 51.9792 23.4878 52.3286 23.4236C53.3178 23.2566 54.2372 23.11 55.1279 22.9675H55.2059C61.0876 22.0266 64.6462 21.4564 67.4291 19.0167C67.4496 18.9964 67.5399 18.9312 67.6384 18.8579C70.6183 16.6789 71.7799 15.2412 71.3407 14.3655ZM44.8173 17.9048C44.571 17.636 44.3166 17.3591 44.0826 17.0903C44.0046 16.9966 43.902 16.8744 43.8158 16.7481C43.7326 16.6367 43.6675 16.513 43.6229 16.3816C43.5777 16.2691 43.5777 16.1437 43.6229 16.0313C43.6767 15.9165 43.762 15.8191 43.8692 15.7503C43.9831 15.6729 44.1094 15.615 44.2427 15.5792C44.3755 15.5378 44.514 15.5172 44.6531 15.5181C44.7063 15.5125 44.76 15.5125 44.8132 15.5181C44.8132 15.7136 44.8132 15.9254 44.8132 16.1331C44.8132 16.1331 44.8132 17.1676 44.8543 17.8274C44.8523 17.8505 44.8523 17.8737 44.8543 17.8967V17.9374L44.8173 17.9048ZM44.4479 19.9413V19.9617C44.1537 20.3753 43.8315 20.7686 43.4833 21.1387C42.7614 21.9855 41.8076 22.6066 40.7374 22.9267C40.0878 23.088 39.4096 23.0991 38.7549 22.9593L35.8818 22.4909C30.0739 21.5623 26.5727 21.0043 23.8802 18.6461L23.6462 18.4669C20.0383 15.7503 19.9809 14.8013 20.1245 14.508C20.2682 14.2148 21.0234 14.1659 22.8007 14.1293L23.8473 14.1048H24.1388C26.8724 14.1048 29.9097 15.0334 33.1194 16.0109C34.2523 16.3571 35.4262 16.7155 36.6329 17.0495C37.1706 17.1961 38.012 17.4039 38.9889 17.6442H39.0341C41.0863 18.1492 43.8938 18.8457 44.9856 19.2733C44.7763 19.5177 44.6203 19.7254 44.4479 19.9576V19.9413ZM45.6341 18.3121C45.6292 18.3459 45.6195 18.3788 45.6054 18.4099C45.5945 18.4577 45.5751 18.5033 45.5479 18.5443C45.5151 18.585 45.4905 18.585 45.4576 18.5443C45.4325 18.5022 45.4132 18.457 45.4002 18.4099C45.386 18.3788 45.3764 18.3459 45.3714 18.3121C45.2357 17.5454 45.163 16.769 45.1539 15.9906C45.1539 15.8602 45.1539 15.7299 45.1539 15.6036C45.2453 15.654 45.3319 15.7127 45.4125 15.7788L45.5849 15.9254L45.7531 16.072L45.8476 16.1453C45.8346 16.8829 45.7633 17.6183 45.6341 18.3447V18.3121ZM45.6998 15.7951L45.5315 15.6403C45.4204 15.5419 45.2978 15.4571 45.1662 15.3878C45.2196 14.4958 45.3837 13.8971 45.4987 13.8971C45.6136 13.8971 45.8435 14.7483 45.8517 15.9336L45.6998 15.7951ZM46.3319 22.0999C46.9742 22.9966 47.8377 23.7146 48.8397 24.1853C51.6554 25.6515 55.3618 24.5925 56.7574 24.1853C56.9503 24.1282 57.1021 24.0834 57.1965 24.0631C57.607 23.9775 57.9354 23.8757 58.276 23.778C59.1454 23.5068 60.0434 23.336 60.9522 23.2689C61.81 23.2214 62.6704 23.2692 63.5175 23.4114C64.5724 23.5825 65.5698 23.7454 65.7627 24.2626C65.8694 24.5437 65.7257 24.9673 65.3522 25.5293C64.5313 26.6738 62.4339 28.2745 59.6798 29.0809C57.7269 29.6577 55.6594 29.7389 53.6667 29.3171C51.0726 28.8365 49.086 27.6432 47.752 25.7696C46.9815 24.5684 46.4467 23.2335 46.1759 21.8352C46.2224 21.9492 46.2744 22.0483 46.3319 22.1325V22.0999ZM67.4127 18.4913C67.269 18.5972 67.2116 18.642 67.1787 18.6705C64.4903 21.0288 60.985 21.5867 55.1771 22.5154C54.27 22.6579 53.326 22.8086 52.304 22.9797C51.6493 23.1195 50.9711 23.1083 50.3215 22.9471C49.2487 22.6253 48.2924 22.003 47.5673 21.155V21.1346C47.2169 20.7626 46.8932 20.3665 46.5987 19.9494L46.4797 19.7947C46.3647 19.6399 46.2457 19.4851 46.1102 19.3141C47.202 18.9068 50.0136 18.194 52.0659 17.6849H52.111C53.0838 17.4446 53.9294 17.2369 54.4629 17.0903C55.6943 16.7563 56.8436 16.3979 57.9764 16.0517C61.1861 15.0742 64.2235 14.1455 66.9612 14.1455H67.2485L68.2952 14.17C70.0724 14.2066 70.8112 14.2189 70.9754 14.5488C71.1396 14.8787 71.0206 15.8073 67.4127 18.5239V18.4913Z" fill="white"/>
<path d="M1.116 79.9185V71.3985H4.62C4.98 71.3985 5.308 71.4745 5.604 71.6265C5.908 71.7785 6.172 71.9825 6.396 72.2385C6.62 72.4865 6.792 72.7665 6.912 73.0785C7.04 73.3905 7.104 73.7105 7.104 74.0385C7.104 74.4945 7 74.9265 6.792 75.3345C6.592 75.7345 6.312 76.0625 5.952 76.3185C5.6 76.5745 5.18 76.7025 4.692 76.7025H1.728V79.9185H1.116ZM1.728 76.1385H4.668C5.044 76.1385 5.368 76.0385 5.64 75.8385C5.912 75.6385 6.12 75.3785 6.264 75.0585C6.408 74.7385 6.48 74.3985 6.48 74.0385C6.48 73.6625 6.392 73.3185 6.216 73.0065C6.048 72.6865 5.82 72.4305 5.532 72.2385C5.252 72.0465 4.94 71.9505 4.596 71.9505H1.728V76.1385ZM12.4451 79.9785C11.8531 79.9785 11.3131 79.8585 10.8251 79.6185C10.3371 79.3705 9.91713 79.0425 9.56513 78.6345C9.21313 78.2265 8.94113 77.7665 8.74913 77.2545C8.55713 76.7345 8.46113 76.2025 8.46113 75.6585C8.46113 75.0905 8.56113 74.5505 8.76113 74.0385C8.96113 73.5185 9.24113 73.0585 9.60113 72.6585C9.96913 72.2505 10.3931 71.9305 10.8731 71.6985C11.3611 71.4585 11.8891 71.3385 12.4571 71.3385C13.0571 71.3385 13.5971 71.4625 14.0771 71.7105C14.5651 71.9585 14.9851 72.2905 15.3371 72.7065C15.6891 73.1225 15.9611 73.5865 16.1531 74.0985C16.3451 74.6105 16.4411 75.1305 16.4411 75.6585C16.4411 76.2345 16.3411 76.7825 16.1411 77.3025C15.9411 77.8145 15.6571 78.2745 15.2891 78.6825C14.9291 79.0825 14.5051 79.3985 14.0171 79.6305C13.5371 79.8625 13.0131 79.9785 12.4451 79.9785ZM9.07313 75.6585C9.07313 76.1465 9.15713 76.6145 9.32513 77.0625C9.49313 77.5105 9.72513 77.9105 10.0211 78.2625C10.3251 78.6145 10.6811 78.8945 11.0891 79.1025C11.5051 79.3105 11.9611 79.4145 12.4571 79.4145C12.9611 79.4145 13.4211 79.3065 13.8371 79.0905C14.2531 78.8745 14.6091 78.5865 14.9051 78.2265C15.2011 77.8665 15.4251 77.4665 15.5771 77.0265C15.7371 76.5785 15.8171 76.1225 15.8171 75.6585C15.8171 75.1705 15.7331 74.7025 15.5651 74.2545C15.4051 73.8065 15.1731 73.4065 14.8691 73.0545C14.5651 72.7025 14.2051 72.4225 13.7891 72.2145C13.3811 72.0065 12.9371 71.9025 12.4571 71.9025C11.9451 71.9025 11.4811 72.0105 11.0651 72.2265C10.6491 72.4425 10.2931 72.7305 9.99713 73.0905C9.70913 73.4505 9.48113 73.8545 9.31313 74.3025C9.15313 74.7425 9.07313 75.1945 9.07313 75.6585ZM18.5643 79.9185V71.3985H21.3963C22.3003 71.3985 23.0483 71.5905 23.6403 71.9745C24.2403 72.3505 24.6883 72.8625 24.9843 73.5105C25.2883 74.1505 25.4403 74.8625 25.4403 75.6465C25.4403 76.5105 25.2763 77.2625 24.9483 77.9025C24.6203 78.5425 24.1523 79.0385 23.5443 79.3905C22.9363 79.7425 22.2203 79.9185 21.3963 79.9185H18.5643ZM24.8283 75.6465C24.8283 74.9345 24.6923 74.2985 24.4203 73.7385C24.1563 73.1785 23.7683 72.7425 23.2563 72.4305C22.7523 72.1105 22.1323 71.9505 21.3963 71.9505H19.1763V79.3665H21.3963C22.1403 79.3665 22.7683 79.2025 23.2803 78.8745C23.7923 78.5465 24.1763 78.1025 24.4323 77.5425C24.6963 76.9745 24.8283 76.3425 24.8283 75.6465ZM30.995 79.9785C30.403 79.9785 29.863 79.8585 29.375 79.6185C28.887 79.3705 28.467 79.0425 28.115 78.6345C27.763 78.2265 27.491 77.7665 27.299 77.2545C27.107 76.7345 27.011 76.2025 27.011 75.6585C27.011 75.0905 27.111 74.5505 27.311 74.0385C27.511 73.5185 27.791 73.0585 28.151 72.6585C28.519 72.2505 28.943 71.9305 29.423 71.6985C29.911 71.4585 30.439 71.3385 31.007 71.3385C31.607 71.3385 32.147 71.4625 32.627 71.7105C33.115 71.9585 33.535 72.2905 33.887 72.7065C34.239 73.1225 34.511 73.5865 34.703 74.0985C34.895 74.6105 34.991 75.1305 34.991 75.6585C34.991 76.2345 34.891 76.7825 34.691 77.3025C34.491 77.8145 34.207 78.2745 33.839 78.6825C33.479 79.0825 33.055 79.3985 32.567 79.6305C32.087 79.8625 31.563 79.9785 30.995 79.9785ZM27.623 75.6585C27.623 76.1465 27.707 76.6145 27.875 77.0625C28.043 77.5105 28.275 77.9105 28.571 78.2625C28.875 78.6145 29.231 78.8945 29.639 79.1025C30.055 79.3105 30.511 79.4145 31.007 79.4145C31.511 79.4145 31.971 79.3065 32.387 79.0905C32.803 78.8745 33.159 78.5865 33.455 78.2265C33.751 77.8665 33.975 77.4665 34.127 77.0265C34.287 76.5785 34.367 76.1225 34.367 75.6585C34.367 75.1705 34.283 74.7025 34.115 74.2545C33.955 73.8065 33.723 73.4065 33.419 73.0545C33.115 72.7025 32.755 72.4225 32.339 72.2145C31.931 72.0065 31.487 71.9025 31.007 71.9025C30.495 71.9025 30.031 72.0105 29.615 72.2265C29.199 72.4425 28.843 72.7305 28.547 73.0905C28.259 73.4505 28.031 73.8545 27.863 74.3025C27.703 74.7425 27.623 75.1945 27.623 75.6585ZM37.1141 79.9185V71.3985H40.6181C40.9781 71.3985 41.3061 71.4745 41.6021 71.6265C41.9061 71.7785 42.1701 71.9825 42.3941 72.2385C42.6181 72.4865 42.7901 72.7665 42.9101 73.0785C43.0381 73.3905 43.1021 73.7105 43.1021 74.0385C43.1021 74.4945 42.9981 74.9265 42.7901 75.3345C42.5901 75.7345 42.3101 76.0625 41.9501 76.3185C41.5981 76.5745 41.1781 76.7025 40.6901 76.7025H37.7261V79.9185H37.1141ZM37.7261 76.1385H40.6661C41.0421 76.1385 41.3661 76.0385 41.6381 75.8385C41.9101 75.6385 42.1181 75.3785 42.2621 75.0585C42.4061 74.7385 42.4781 74.3985 42.4781 74.0385C42.4781 73.6625 42.3901 73.3185 42.2141 73.0065C42.0461 72.6865 41.8181 72.4305 41.5301 72.2385C41.2501 72.0465 40.9381 71.9505 40.5941 71.9505H37.7261V76.1385ZM45.0473 79.9185V71.3985H48.5873C48.9553 71.3985 49.2873 71.4745 49.5833 71.6265C49.8873 71.7785 50.1473 71.9825 50.3633 72.2385C50.5873 72.4865 50.7593 72.7665 50.8793 73.0785C51.0073 73.3905 51.0713 73.7105 51.0713 74.0385C51.0713 74.4625 50.9873 74.8585 50.8193 75.2265C50.6513 75.5945 50.4153 75.9025 50.1113 76.1505C49.8153 76.3985 49.4673 76.5505 49.0673 76.6065L51.1913 79.9185H50.4833L48.4193 76.7025H45.6593V79.9185H45.0473ZM45.6593 76.1385H48.6473C49.0153 76.1385 49.3353 76.0385 49.6073 75.8385C49.8793 75.6385 50.0873 75.3785 50.2313 75.0585C50.3833 74.7385 50.4593 74.3985 50.4593 74.0385C50.4593 73.6705 50.3713 73.3305 50.1953 73.0185C50.0273 72.6985 49.7993 72.4425 49.5113 72.2505C49.2313 72.0505 48.9153 71.9505 48.5633 71.9505H45.6593V76.1385ZM53.3202 79.9185V71.3985H53.9322V79.9185H53.3202ZM60.0559 79.9785C59.4799 79.9785 58.9479 79.8545 58.4599 79.6065C57.9719 79.3585 57.5479 79.0305 57.1879 78.6225C56.8279 78.2065 56.5479 77.7425 56.3479 77.2305C56.1559 76.7105 56.0599 76.1825 56.0599 75.6465C56.0599 75.0865 56.1559 74.5505 56.3479 74.0385C56.5399 73.5185 56.8119 73.0585 57.1639 72.6585C57.5159 72.2505 57.9319 71.9305 58.4119 71.6985C58.8919 71.4585 59.4159 71.3385 59.9839 71.3385C60.8319 71.3385 61.5159 71.5145 62.0359 71.8665C62.5639 72.2105 62.9639 72.6545 63.2359 73.1985L62.7319 73.4985C62.4439 72.9385 62.0599 72.5345 61.5799 72.2865C61.1079 72.0305 60.5719 71.9025 59.9719 71.9025C59.4679 71.9025 59.0119 72.0105 58.6039 72.2265C58.1959 72.4345 57.8479 72.7185 57.5599 73.0785C57.2719 73.4305 57.0519 73.8305 56.8999 74.2785C56.7479 74.7265 56.6719 75.1865 56.6719 75.6585C56.6719 76.1625 56.7599 76.6385 56.9359 77.0865C57.1119 77.5345 57.3559 77.9345 57.6679 78.2865C57.9799 78.6385 58.3439 78.9145 58.7599 79.1145C59.1759 79.3145 59.6199 79.4145 60.0919 79.4145C60.6439 79.4145 61.1639 79.2825 61.6519 79.0185C62.1399 78.7465 62.6079 78.3225 63.0559 77.7465V78.4305C62.2079 79.4625 61.2079 79.9785 60.0559 79.9785ZM62.9239 76.2705H60.9919V75.7785H63.4519V79.9185H62.9239V76.2705ZM69.1254 79.9785C68.5334 79.9785 67.9934 79.8585 67.5054 79.6185C67.0174 79.3705 66.5974 79.0425 66.2454 78.6345C65.8934 78.2265 65.6214 77.7665 65.4294 77.2545C65.2374 76.7345 65.1414 76.2025 65.1414 75.6585C65.1414 75.0905 65.2414 74.5505 65.4414 74.0385C65.6414 73.5185 65.9214 73.0585 66.2814 72.6585C66.6494 72.2505 67.0734 71.9305 67.5534 71.6985C68.0414 71.4585 68.5694 71.3385 69.1374 71.3385C69.7374 71.3385 70.2774 71.4625 70.7574 71.7105C71.2454 71.9585 71.6654 72.2905 72.0174 72.7065C72.3694 73.1225 72.6414 73.5865 72.8334 74.0985C73.0254 74.6105 73.1214 75.1305 73.1214 75.6585C73.1214 76.2345 73.0214 76.7825 72.8214 77.3025C72.6214 77.8145 72.3374 78.2745 71.9694 78.6825C71.6094 79.0825 71.1854 79.3985 70.6974 79.6305C70.2174 79.8625 69.6934 79.9785 69.1254 79.9785ZM65.7534 75.6585C65.7534 76.1465 65.8374 76.6145 66.0054 77.0625C66.1734 77.5105 66.4054 77.9105 66.7014 78.2625C67.0054 78.6145 67.3614 78.8945 67.7694 79.1025C68.1854 79.3105 68.6414 79.4145 69.1374 79.4145C69.6414 79.4145 70.1014 79.3065 70.5174 79.0905C70.9334 78.8745 71.2894 78.5865 71.5854 78.2265C71.8814 77.8665 72.1054 77.4665 72.2574 77.0265C72.4174 76.5785 72.4974 76.1225 72.4974 75.6585C72.4974 75.1705 72.4134 74.7025 72.2454 74.2545C72.0854 73.8065 71.8534 73.4065 71.5494 73.0545C71.2454 72.7025 70.8854 72.4225 70.4694 72.2145C70.0614 72.0065 69.6174 71.9025 69.1374 71.9025C68.6254 71.9025 68.1614 72.0105 67.7454 72.2265C67.3294 72.4425 66.9734 72.7305 66.6774 73.0905C66.3894 73.4505 66.1614 73.8545 65.9934 74.3025C65.8334 74.7425 65.7534 75.1945 65.7534 75.6585ZM75.2446 79.9185V71.3985H78.7846C79.1526 71.3985 79.4846 71.4745 79.7806 71.6265C80.0846 71.7785 80.3446 71.9825 80.5606 72.2385C80.7846 72.4865 80.9566 72.7665 81.0766 73.0785C81.2046 73.3905 81.2686 73.7105 81.2686 74.0385C81.2686 74.4625 81.1846 74.8585 81.0166 75.2265C80.8486 75.5945 80.6126 75.9025 80.3086 76.1505C80.0126 76.3985 79.6646 76.5505 79.2646 76.6065L81.3886 79.9185H80.6806L78.6166 76.7025H75.8566V79.9185H75.2446ZM75.8566 76.1385H78.8446C79.2126 76.1385 79.5326 76.0385 79.8046 75.8385C80.0766 75.6385 80.2846 75.3785 80.4286 75.0585C80.5806 74.7385 80.6566 74.3985 80.6566 74.0385C80.6566 73.6705 80.5686 73.3305 80.3926 73.0185C80.2246 72.6985 79.9966 72.4425 79.7086 72.2505C79.4286 72.0505 79.1126 71.9505 78.7606 71.9505H75.8566V76.1385ZM86.1233 71.3985H86.6513L90.2513 79.9185H89.6033L88.4153 77.1105H84.3473L83.1593 79.9185H82.4993L86.1233 71.3985ZM88.2473 76.6065L86.3873 72.1425L84.4913 76.6065H88.2473ZM3.792 87.3985H4.32L7.92 95.9185H7.272L6.084 93.1105H2.016L0.828 95.9185H0.168L3.792 87.3985ZM5.916 92.6065L4.056 88.1425L2.16 92.6065H5.916ZM11.8657 88.5385V95.9185H11.2537V87.3985H11.7577L17.6977 94.8985V87.3985H18.3097V95.9185H17.7097L11.8657 88.5385ZM25.2509 87.3985H25.7789L29.3789 95.9185H28.7309L27.5429 93.1105H23.4749L22.2869 95.9185H21.6269L25.2509 87.3985ZM27.3749 92.6065L25.5149 88.1425L23.6189 92.6065H27.3749ZM37.5397 88.8145C37.4037 88.6625 37.2517 88.5305 37.0837 88.4185C36.9157 88.2985 36.7357 88.2025 36.5437 88.1305C36.3517 88.0505 36.1437 87.9905 35.9197 87.9505C35.6957 87.9105 35.4557 87.8905 35.1997 87.8905C34.3677 87.8905 33.7597 88.0505 33.3757 88.3705C32.9997 88.6825 32.8117 89.1065 32.8117 89.6425C32.8117 90.0025 32.8957 90.2905 33.0637 90.5065C33.2397 90.7145 33.5117 90.8825 33.8797 91.0105C34.2477 91.1385 34.7237 91.2625 35.3077 91.3825C35.9237 91.5105 36.4557 91.6625 36.9037 91.8385C37.3517 92.0065 37.6957 92.2385 37.9357 92.5345C38.1837 92.8305 38.3077 93.2305 38.3077 93.7345C38.3077 94.1105 38.2357 94.4425 38.0917 94.7305C37.9477 95.0105 37.7397 95.2425 37.4677 95.4265C37.1957 95.6105 36.8717 95.7505 36.4957 95.8465C36.1277 95.9425 35.7157 95.9905 35.2597 95.9905C34.8197 95.9905 34.3997 95.9425 33.9997 95.8465C33.5997 95.7505 33.2237 95.6105 32.8717 95.4265C32.5197 95.2425 32.1917 95.0065 31.8877 94.7185L32.2117 94.2265C32.3877 94.4185 32.5837 94.5905 32.7997 94.7425C33.0237 94.8865 33.2637 95.0105 33.5197 95.1145C33.7837 95.2185 34.0637 95.3025 34.3597 95.3665C34.6557 95.4225 34.9637 95.4505 35.2837 95.4505C36.0277 95.4505 36.6077 95.3145 37.0237 95.0425C37.4477 94.7625 37.6597 94.3505 37.6597 93.8065C37.6597 93.4305 37.5637 93.1265 37.3717 92.8945C37.1797 92.6625 36.8837 92.4745 36.4837 92.3305C36.0837 92.1785 35.5837 92.0385 34.9837 91.9105C34.3837 91.7825 33.8717 91.6385 33.4477 91.4785C33.0317 91.3185 32.7157 91.1025 32.4997 90.8305C32.2917 90.5585 32.1877 90.1905 32.1877 89.7265C32.1877 89.2145 32.3117 88.7825 32.5597 88.4305C32.8157 88.0705 33.1717 87.7985 33.6277 87.6145C34.0837 87.4305 34.6077 87.3385 35.1997 87.3385C35.5677 87.3385 35.9077 87.3745 36.2197 87.4465C36.5397 87.5185 36.8317 87.6305 37.0957 87.7825C37.3677 87.9265 37.6197 88.1105 37.8517 88.3345L37.5397 88.8145ZM47.8061 87.9505H44.6861V95.9185H44.0741V87.9505H40.9541V87.3985H47.8061V87.9505ZM53.0154 87.3985H53.5434L57.1434 95.9185H56.4954L55.3074 93.1105H51.2394L50.0514 95.9185H49.3914L53.0154 87.3985ZM55.1394 92.6065L53.2794 88.1425L51.3834 92.6065H55.1394ZM65.3042 88.8145C65.1682 88.6625 65.0162 88.5305 64.8482 88.4185C64.6802 88.2985 64.5002 88.2025 64.3082 88.1305C64.1162 88.0505 63.9082 87.9905 63.6842 87.9505C63.4602 87.9105 63.2202 87.8905 62.9642 87.8905C62.1322 87.8905 61.5242 88.0505 61.1402 88.3705C60.7642 88.6825 60.5762 89.1065 60.5762 89.6425C60.5762 90.0025 60.6602 90.2905 60.8282 90.5065C61.0042 90.7145 61.2762 90.8825 61.6442 91.0105C62.0122 91.1385 62.4882 91.2625 63.0722 91.3825C63.6882 91.5105 64.2202 91.6625 64.6682 91.8385C65.1162 92.0065 65.4602 92.2385 65.7002 92.5345C65.9482 92.8305 66.0722 93.2305 66.0722 93.7345C66.0722 94.1105 66.0002 94.4425 65.8562 94.7305C65.7122 95.0105 65.5042 95.2425 65.2322 95.4265C64.9602 95.6105 64.6362 95.7505 64.2602 95.8465C63.8922 95.9425 63.4802 95.9905 63.0242 95.9905C62.5842 95.9905 62.1642 95.9425 61.7642 95.8465C61.3642 95.7505 60.9882 95.6105 60.6362 95.4265C60.2842 95.2425 59.9562 95.0065 59.6522 94.7185L59.9762 94.2265C60.1522 94.4185 60.3482 94.5905 60.5642 94.7425C60.7882 94.8865 61.0282 95.0105 61.2842 95.1145C61.5482 95.2185 61.8282 95.3025 62.1242 95.3665C62.4202 95.4225 62.7282 95.4505 63.0482 95.4505C63.7922 95.4505 64.3722 95.3145 64.7882 95.0425C65.2122 94.7625 65.4242 94.3505 65.4242 93.8065C65.4242 93.4305 65.3282 93.1265 65.1362 92.8945C64.9442 92.6625 64.6482 92.4745 64.2482 92.3305C63.8482 92.1785 63.3482 92.0385 62.7482 91.9105C62.1482 91.7825 61.6362 91.6385 61.2122 91.4785C60.7962 91.3185 60.4802 91.1025 60.2642 90.8305C60.0562 90.5585 59.9522 90.1905 59.9522 89.7265C59.9522 89.2145 60.0762 88.7825 60.3242 88.4305C60.5802 88.0705 60.9362 87.7985 61.3922 87.6145C61.8482 87.4305 62.3722 87.3385 62.9642 87.3385C63.3322 87.3385 63.6722 87.3745 63.9842 87.4465C64.3042 87.5185 64.5962 87.6305 64.8602 87.7825C65.1322 87.9265 65.3842 88.1105 65.6162 88.3345L65.3042 88.8145ZM69.6538 95.9185V87.3985H70.2658V95.9185H69.6538ZM74.3255 87.3985L77.3015 92.1145L80.2895 87.3985H80.9735L77.6135 92.7025V95.9185H77.0015V92.6785L73.6535 87.3985H74.3255ZM86.0661 87.3985H86.5941L90.1941 95.9185H89.5461L88.3581 93.1105H84.2901L83.1021 95.9185H82.4421L86.0661 87.3985ZM88.1901 92.6065L86.3301 88.1425L84.4341 92.6065H88.1901Z" fill="black"/>
</svg>
