<svg width="207" height="62" viewBox="0 0 207 62" fill="none" xmlns="http://www.w3.org/2000/svg">
<path d="M25.8491 17.6308C25.336 17.4923 24.8353 17.3416 24.3345 17.195C24.195 17.1542 24.0554 17.1176 23.9241 17.0728L22.3397 16.5963C19.0151 15.5821 15.871 14.625 13.0635 14.6942L12.0168 14.7146C10.2355 14.7512 9.49667 14.7675 9.32839 15.1015C9.1601 15.4355 9.24219 16.3519 12.8583 19.0726C12.9384 19.1277 13.0152 19.1875 13.0881 19.2518C14.9639 20.881 17.2337 21.663 20.3942 22.2943L20.8334 22.3757C22.1058 22.6201 23.5136 22.8441 25.0938 23.1007C26.0092 23.2432 26.9532 23.398 27.967 23.565C28.6228 23.7069 29.3029 23.6958 29.9536 23.5324C31.0262 23.2149 31.982 22.5935 32.7036 21.7444C33.0567 21.367 33.3844 20.967 33.6846 20.547C33.8406 20.3352 34.0048 20.1193 34.1689 19.9116C33.0853 19.484 30.2861 18.7956 28.201 18.2824C27.2528 17.9933 26.3909 17.7815 25.8491 17.6308Z" fill="black"/>
<path d="M34.6289 18.8933C34.6326 18.9286 34.6424 18.963 34.6576 18.9951C34.6684 19.043 34.6879 19.0885 34.7151 19.1295C34.7356 19.1539 34.752 19.1662 34.7684 19.1662C34.7796 19.1648 34.7904 19.1607 34.7997 19.1544C34.809 19.148 34.8165 19.1394 34.8218 19.1295C34.8485 19.0878 34.8692 19.0425 34.8833 18.9951C34.8954 18.9622 34.9037 18.928 34.908 18.8933C35.0314 18.1743 35.1027 17.4474 35.1214 16.7183L35.0229 16.641C34.9039 16.5432 34.7931 16.4414 34.6822 16.3477C34.5961 16.2788 34.5041 16.2174 34.4072 16.1644C34.4072 16.2948 34.4072 16.4292 34.4072 16.5717C34.4168 17.3515 34.4895 18.1292 34.6248 18.8974L34.6289 18.8933Z" fill="black"/>
<path d="M34.0991 16.6777C34.0991 16.4496 34.0991 16.2419 34.0991 16.0545C34.0417 16.0505 33.9841 16.0505 33.9267 16.0545C33.7876 16.0549 33.6493 16.0755 33.5162 16.1156C33.3831 16.1539 33.2571 16.2131 33.1427 16.2907C33.033 16.3606 32.9449 16.4593 32.8882 16.5758C32.8452 16.6915 32.8452 16.8186 32.8882 16.9343C32.9359 17.0652 33.0022 17.1886 33.0853 17.3008C33.168 17.4208 33.257 17.5364 33.352 17.647C33.6065 17.9443 33.8774 18.2376 34.1483 18.5308C34.1483 18.486 34.1483 18.4372 34.1483 18.3924C34.1155 17.704 34.0991 16.6777 34.0991 16.6777Z" fill="black"/>
<path d="M35.1337 16.5351C35.1337 15.3906 34.9326 14.4661 34.7725 14.4661C34.6124 14.4661 34.4811 15.1055 34.4277 15.9771C34.5615 16.0432 34.6858 16.1267 34.7971 16.2256C34.9162 16.3192 35.0229 16.4292 35.1337 16.5351Z" fill="black"/>
<path d="M36.8 21.7037C37.5216 22.5564 38.4791 23.1808 39.5541 23.4998C40.2049 23.6632 40.8849 23.6743 41.5407 23.5324L44.4139 23.0681C45.9982 22.8115 47.4061 22.5875 48.6744 22.3431L49.1136 22.2617C52.2741 21.6304 54.5438 20.8606 56.4196 19.2192C56.4483 19.1907 56.514 19.1418 56.6495 19.04C60.2656 16.3193 60.323 15.3744 60.1794 15.0689C60.0357 14.7634 59.2723 14.7186 57.4909 14.682L56.4442 14.6616C53.6368 14.5924 50.4968 15.5495 47.168 16.5637L45.5837 17.0443L45.1732 17.1624C44.6725 17.309 44.1676 17.4597 43.6546 17.5982C43.1415 17.7367 42.2549 17.9607 41.2575 18.2051C39.1724 18.7223 36.3731 19.4269 35.2896 19.8342L35.6672 20.323C36.0118 20.8089 36.3903 21.2703 36.8 21.7037Z" fill="black"/>
<path d="M42.92 29.8942C44.9154 30.316 46.9856 30.2348 48.9413 29.658C50.2126 29.2866 51.4205 28.7278 52.5245 28.0003C52.6395 27.927 52.7503 27.8496 52.8611 27.7681C53.5343 27.3117 54.1277 26.749 54.6178 26.1023C55.0283 25.5403 55.1555 25.1126 55.0488 24.8275C54.8518 24.3062 53.8503 24.1433 52.7913 23.9681C51.944 23.8282 51.0838 23.7804 50.226 23.8256H50.1932L49.7294 23.8704C48.9888 23.959 48.2579 24.1144 47.5458 24.3347C47.2092 24.4324 46.8562 24.5302 46.4663 24.6198C46.376 24.6198 46.2241 24.685 46.0312 24.7379C44.6356 25.1452 40.9334 26.2082 38.1177 24.7379C37.1172 24.2665 36.2552 23.5485 35.6139 22.6526C35.5441 22.5467 35.4744 22.4408 35.4087 22.3308C35.6817 23.7514 36.222 25.1083 37.0012 26.3304C38.3352 28.2202 40.3259 29.4136 42.92 29.8942Z" fill="black"/>
<path d="M69.5169 52.3971L54.9458 30.8555L69.2583 9.67637C69.2662 9.66367 69.2706 9.64914 69.2711 9.63422C69.2716 9.61931 69.2681 9.60454 69.261 9.59136C69.254 9.57819 69.2436 9.56707 69.2309 9.55912C69.2181 9.55117 69.2035 9.54665 69.1885 9.54603H40.5554L34.9568 1.26582C34.9369 1.23967 34.9112 1.21846 34.8816 1.20385C34.8521 1.18924 34.8195 1.18164 34.7865 1.18164C34.7535 1.18164 34.7209 1.18924 34.6914 1.20385C34.6618 1.21846 34.6361 1.23967 34.6162 1.26582L29.0135 9.54603H0.35985C0.344478 9.54595 0.329365 9.54995 0.316075 9.55761C0.302785 9.56528 0.291801 9.57633 0.284265 9.58963C0.276729 9.60292 0.272915 9.61798 0.273214 9.63323C0.273513 9.64848 0.277916 9.66337 0.285969 9.67637L14.5984 30.8555L0.027385 52.3971C0.00942078 52.4295 0 52.4659 0 52.503C0 52.54 0.00942078 52.5764 0.027385 52.6089C0.0454383 52.6407 0.0716426 52.6673 0.103352 52.6859C0.135061 52.7045 0.171151 52.7144 0.207982 52.7148H29.3993L34.7352 60.5714C34.7432 60.5823 34.7537 60.5912 34.7658 60.5974C34.7779 60.6035 34.7914 60.6067 34.805 60.6067C34.8186 60.6067 34.832 60.6035 34.8441 60.5974C34.8563 60.5912 34.8668 60.5823 34.8748 60.5714L40.145 52.7148H69.3363C69.3731 52.7144 69.4092 52.7045 69.4409 52.6859C69.4726 52.6673 69.4988 52.6407 69.5169 52.6089C69.5369 52.5771 69.5475 52.5404 69.5475 52.503C69.5475 52.4655 69.5369 52.4288 69.5169 52.3971ZM34.7721 1.76271L40.0464 9.56233H29.4978L34.7721 1.76271ZM14.5533 26.3549C14.0648 25.6584 13.9089 25.1045 14.073 24.6728C14.3563 23.9152 15.4234 23.7401 16.663 23.5405C17.5426 23.3931 18.436 23.3425 19.3268 23.3898L19.6306 23.4183C19.7906 23.4183 19.9466 23.4469 20.0903 23.4672C21.0524 23.5855 21.9991 23.8053 22.9142 24.123L23.1604 24.2003L24.2276 24.4732C24.5888 24.5588 24.9459 24.6443 25.303 24.7095L25.4344 24.7298H25.5698L25.8448 24.7665L26.3948 24.8316C26.7574 24.8715 27.1218 24.8932 27.4866 24.8968C27.8488 24.8954 28.2101 24.8613 28.5661 24.795C28.7467 24.7665 28.9232 24.7257 29.1038 24.685C29.2844 24.6443 29.4691 24.5995 29.662 24.5751C29.8683 24.5382 30.0808 24.5565 30.2777 24.628C30.4805 24.7165 30.6418 24.8781 30.7292 25.0801C30.8204 25.2745 30.8477 25.4926 30.8072 25.7032C30.7585 25.9062 30.6549 26.0921 30.5075 26.2409C30.3737 26.382 30.2219 26.5052 30.056 26.6074C29.895 26.7086 29.7277 26.7997 29.5553 26.8803C29.3829 26.9618 29.2064 27.031 29.034 27.0962C28.8616 27.1613 28.681 27.2224 28.5004 27.2795C27.0538 27.7032 25.508 27.6532 24.0922 27.1369C23.3922 26.8754 22.7384 26.5056 22.1548 26.0413C22.7478 26.4893 23.4087 26.8413 24.1127 27.084C24.8109 27.3251 25.5447 27.449 26.284 27.4505C27.0199 27.4618 27.7525 27.3503 28.4512 27.1206C28.6277 27.0636 28.8001 26.9984 28.9683 26.9292C29.1366 26.86 29.309 26.7866 29.4732 26.7093C29.8017 26.5597 30.0995 26.3512 30.3516 26.0942C30.4666 25.9724 30.5461 25.8217 30.5814 25.6584C30.6082 25.4972 30.5824 25.3316 30.5075 25.186C30.4444 25.0428 30.3283 24.9292 30.1833 24.8683C30.0263 24.8207 29.86 24.8123 29.699 24.8439C29.3542 24.9009 28.993 25.0231 28.6195 25.0923C28.2478 25.1688 27.8701 25.2124 27.4907 25.2226C27.1141 25.2308 26.7373 25.2186 26.362 25.186L25.8038 25.133L25.5288 25.1045H25.3892H25.2455C24.8679 25.0516 24.5026 24.9701 24.1373 24.8927L23.0496 24.6402L22.7993 24.5588C21.8381 24.2235 20.8408 24.0007 19.8276 23.8949L19.3638 23.8501H19.3104C18.4526 23.8049 17.5924 23.8527 16.7451 23.9926C15.6861 24.1678 14.6928 24.3307 14.4876 24.852C14.3809 25.1371 14.5245 25.5648 14.9186 26.1268C15.4122 26.7795 16.0114 27.3465 16.6917 27.8049L17.0283 28.037C18.1294 28.7523 19.3315 29.3014 20.5951 29.6662C22.5494 30.243 24.6183 30.3242 26.6124 29.9024C29.2064 29.4218 31.2012 28.2285 32.5352 26.3508C33.4997 24.9946 34.0251 23.0436 34.3206 21.6263C34.3206 21.5082 34.3206 21.386 34.3206 21.2638C34.3206 20.9746 34.3206 20.6895 34.296 20.4044L34.0579 20.7424C33.7631 21.1825 33.4395 21.6029 33.0893 22.001C32.3087 22.9237 31.2727 23.5991 30.1094 23.9438C29.7456 24.0423 29.3701 24.0917 28.993 24.0904C28.6389 24.0861 28.2859 24.0507 27.9381 23.9845C26.9202 23.8134 25.972 23.6627 25.0649 23.5161C23.4231 23.2514 21.9291 23.0151 20.6033 22.7585L20.1683 22.673C17.0283 22.0376 14.7544 21.2434 12.8458 19.5695C12.8458 19.5695 12.735 19.4839 12.6365 19.4106C9.70584 17.2031 8.53195 15.7694 8.97934 14.8938C9.26666 14.3236 9.96443 14.3073 12.0454 14.2665L13.0921 14.2462C15.9652 14.1729 19.1421 15.1422 22.4996 16.1645L24.2153 16.6858L24.6258 16.804L26.0008 17.2112C26.5385 17.3579 27.3922 17.5697 28.3855 17.814C30.4911 18.3354 33.0441 18.9667 34.2427 19.4025C34.2427 19.2721 34.218 19.1459 34.2098 19.0155C33.865 18.6082 33.5121 18.201 33.1755 17.7937C33.0782 17.6724 32.9878 17.546 32.9046 17.4149C32.8124 17.2807 32.7405 17.1339 32.6911 16.9791C32.6656 16.8932 32.6545 16.8038 32.6583 16.7143C32.6602 16.6241 32.6812 16.5353 32.7199 16.4537C32.7962 16.2986 32.9159 16.1685 33.0647 16.079C33.1999 15.9933 33.3482 15.9301 33.5038 15.8916C33.6576 15.85 33.8166 15.8308 33.9759 15.8346L34.1524 15.859C34.2303 14.2095 34.5628 13.9936 34.7229 13.9081L34.805 13.8837L34.8871 13.9081C35.0677 14.0059 35.4822 14.2747 35.4781 16.6695V16.7306H35.5151L35.5643 16.751H35.6136C35.6505 16.751 35.6833 16.7754 35.7162 16.7795H35.8229H35.9296C35.9651 16.7835 36.0009 16.7835 36.0363 16.7795H36.143L36.3565 16.7388C36.6429 16.669 36.9189 16.5622 37.1774 16.4211C37.2439 16.3884 37.3083 16.3517 37.3703 16.3111L37.5632 16.2012C37.6905 16.1197 37.8177 16.0423 37.9408 15.9568C38.4216 15.6328 38.8834 15.282 39.324 14.906C38.8873 15.3177 38.4268 15.7039 37.9449 16.0627C37.8259 16.1523 37.6987 16.2337 37.5755 16.3193L37.3826 16.4374C37.3207 16.4793 37.2563 16.5173 37.1897 16.5514C36.933 16.7049 36.657 16.824 36.3688 16.9058C36.2949 16.9261 36.2169 16.9384 36.143 16.9546H36.0281C35.9899 16.9586 35.9514 16.9586 35.9132 16.9546H35.7942H35.6792C35.6404 16.9489 35.6021 16.9407 35.5643 16.9302H35.5068H35.4617C35.4617 17.2642 35.4412 17.9321 35.4248 18.4127C35.4248 18.5472 35.4248 18.6816 35.4042 18.82C35.4042 19.0278 35.3755 19.2273 35.355 19.4432C36.5535 19.0074 39.1106 18.3761 41.2121 17.8548C42.2054 17.6104 43.0633 17.3986 43.601 17.252L44.9719 16.8447L45.3823 16.7266L47.098 16.2052C50.4555 15.1829 53.6283 14.2136 56.5097 14.2869L57.5522 14.3073C59.6332 14.348 60.331 14.3643 60.6183 14.9345C61.0534 15.8102 59.8918 17.2438 56.9612 19.4513C56.8668 19.5247 56.7765 19.5898 56.7559 19.6102C54.8432 21.2841 52.5693 22.0784 49.4335 22.7137L48.9943 22.7993C47.6685 23.0559 46.1991 23.2921 44.5327 23.5609C43.6215 23.7035 42.6774 23.8541 41.6595 24.0252C41.3117 24.0914 40.9587 24.1268 40.6047 24.1311C40.2276 24.1321 39.8521 24.0828 39.4882 23.9845C38.326 23.64 37.2913 22.9645 36.5125 22.0417C36.1253 21.5966 35.7675 21.1273 35.4412 20.6366L35.3057 20.4451C35.3057 20.6406 35.3057 20.8524 35.3057 21.0357C35.4816 21.5411 35.7231 22.0217 36.024 22.4653C36.6222 23.3036 37.4299 23.9731 38.3677 24.4081C41.0315 25.7969 44.6148 24.7624 45.9652 24.3714L46.4249 24.2451C46.8066 24.1596 47.1473 24.0619 47.4838 23.9682C48.1456 23.7658 48.8221 23.6147 49.5074 23.5161C49.6551 23.4957 49.807 23.4794 49.9671 23.4672L50.2503 23.4387C51.1411 23.3914 52.0345 23.442 52.9141 23.5894C54.1455 23.789 55.2208 23.9641 55.5041 24.7217C55.6682 25.1534 55.5041 25.7073 55.0238 26.4038C54.5052 27.0944 53.8757 27.6957 53.1604 28.1836L52.8238 28.4158C51.6858 29.1665 50.4405 29.7432 49.1297 30.1264C47.9849 30.4694 46.7958 30.645 45.5999 30.6478C44.6971 30.6403 43.797 30.5489 42.9114 30.3749C40.2065 29.8739 38.1214 28.6194 36.7177 26.6482C36.0593 25.649 35.5738 24.5477 35.2811 23.3898C35.2565 26.53 35.1785 42.6058 35.1744 43.3471C35.1744 43.6485 35.0636 50.0837 34.8419 50.3647C34.6203 50.0877 34.5136 43.6485 34.5094 43.3471C34.5094 42.6058 34.4315 26.53 34.4027 23.3898C34.0976 24.5476 33.604 25.6482 32.9415 26.6482C31.5419 28.6194 29.4568 29.8739 26.7478 30.3749C25.8636 30.5489 24.9649 30.6403 24.0634 30.6478C22.8676 30.645 21.6784 30.4694 20.5336 30.1264C19.2234 29.747 17.9782 29.1745 16.8395 28.428L16.5029 28.1959C15.7526 27.6963 15.0933 27.0738 14.5533 26.3549ZM13.2604 52.3075C12.9812 52.0305 12.7062 51.7454 12.4394 51.4562C12.4256 51.4413 12.4088 51.4294 12.3901 51.4212C12.3714 51.4131 12.3511 51.4088 12.3307 51.4088C12.3102 51.4088 12.29 51.4131 12.2713 51.4212C12.2526 51.4294 12.2358 51.4413 12.2219 51.4562C12.1936 51.4851 12.1777 51.5238 12.1777 51.5642C12.1777 51.6045 12.1936 51.6432 12.2219 51.6721C12.423 51.892 12.6324 52.1038 12.8458 52.3156H0.581494L14.8488 31.2261L29.112 52.3156L13.2604 52.3075ZM56.7108 52.3075C56.9201 52.0997 57.1212 51.9002 57.3306 51.6721C57.3589 51.6432 57.3748 51.6045 57.3748 51.5642C57.3748 51.5238 57.3589 51.4851 57.3306 51.4562C57.3167 51.4413 57.2999 51.4294 57.2812 51.4212C57.2625 51.4131 57.2422 51.4088 57.2218 51.4088C57.2014 51.4088 57.1811 51.4131 57.1624 51.4212C57.1437 51.4294 57.1269 51.4413 57.113 51.4562C56.8421 51.7413 56.5712 52.0224 56.2921 52.2993H40.4323L54.6996 31.2098L68.9628 52.2993L56.7108 52.3075Z" fill="black"/>
<path d="M7.05844 43.4163C7.04102 43.379 7.0094 43.3501 6.97053 43.336C6.93166 43.3219 6.88872 43.3236 6.85116 43.3409C6.81361 43.3582 6.78451 43.3896 6.77027 43.4281C6.75603 43.4667 6.75781 43.5093 6.77523 43.5466C6.94351 43.9172 7.12411 44.2879 7.30471 44.6504C7.3177 44.6752 7.33707 44.6962 7.36085 44.7112C7.38463 44.7262 7.41199 44.7347 7.44016 44.7359C7.4671 44.7366 7.49377 44.7304 7.51757 44.7178C7.54136 44.7053 7.56148 44.6868 7.57594 44.6643C7.59041 44.6417 7.59874 44.6158 7.60012 44.5891C7.6015 44.5624 7.59589 44.5358 7.58382 44.5119C7.39912 44.1331 7.22673 43.7665 7.05844 43.4163Z" fill="black"/>
<path d="M5.94652 41.058C5.90812 41.0719 5.87672 41.1001 5.85907 41.1366C5.84141 41.1732 5.83892 41.2152 5.85212 41.2535C5.99167 41.6405 6.13533 42.0233 6.2913 42.398C6.302 42.4263 6.32103 42.4508 6.34592 42.4682C6.3708 42.4856 6.4004 42.4953 6.43086 42.4958H6.49242C6.52963 42.4796 6.55924 42.4499 6.57525 42.4129C6.59125 42.3758 6.59246 42.3341 6.57862 42.2962C6.42675 41.9215 6.27899 41.5468 6.14354 41.1639C6.1379 41.144 6.12828 41.1253 6.11524 41.1091C6.1022 41.0929 6.08601 41.0795 6.06763 41.0696C6.04925 41.0597 6.02906 41.0536 6.00826 41.0516C5.98745 41.0496 5.96646 41.0518 5.94652 41.058Z" fill="black"/>
<path d="M8.15048 45.5668C8.14102 45.5489 8.12803 45.5331 8.11229 45.5202C8.09655 45.5074 8.07838 45.4979 8.05885 45.4922C8.03933 45.4865 8.01884 45.4848 7.99862 45.4871C7.9784 45.4894 7.95886 45.4957 7.94115 45.5057C7.90555 45.5254 7.87918 45.5582 7.86767 45.5971C7.85616 45.6359 7.86043 45.6776 7.87958 45.7134C8.0807 46.0718 8.29003 46.4261 8.49936 46.7723C8.51261 46.7951 8.5318 46.814 8.55491 46.8269C8.57802 46.8398 8.6042 46.8462 8.63071 46.8456C8.65726 46.855 8.68624 46.855 8.7128 46.8456C8.73036 46.8352 8.74562 46.8214 8.75766 46.805C8.76971 46.7886 8.77829 46.7699 8.78289 46.7502C8.78749 46.7304 8.78801 46.7099 8.78443 46.6899C8.78085 46.6699 8.77324 46.6508 8.76205 46.6339C8.54041 46.2673 8.3475 45.9211 8.15048 45.5668Z" fill="black"/>
<path d="M4.52621 35.4416C4.56698 35.4355 4.60369 35.4137 4.6283 35.3809C4.65291 35.3481 4.66343 35.3069 4.65755 35.2664C4.60419 34.8591 4.55494 34.4518 4.50979 34.0446C4.50775 34.0247 4.50176 34.0055 4.49217 33.988C4.48258 33.9704 4.46958 33.955 4.45393 33.9425C4.43828 33.93 4.42028 33.9207 4.40098 33.9151C4.38168 33.9096 4.36147 33.9079 4.3415 33.9102C4.32151 33.9122 4.30213 33.9181 4.28447 33.9276C4.26681 33.9371 4.25124 33.95 4.23864 33.9656C4.22604 33.9811 4.21667 33.999 4.21108 34.0181C4.20549 34.0373 4.20378 34.0573 4.20606 34.0771C4.2471 34.4844 4.29636 34.8917 4.35382 35.299C4.35476 35.3199 4.3601 35.3404 4.36948 35.3592C4.37886 35.378 4.39209 35.3946 4.40831 35.408C4.42453 35.4215 4.4434 35.4314 4.4637 35.4371C4.484 35.4429 4.50529 35.4444 4.52621 35.4416Z" fill="black"/>
<path d="M4.96945 37.8445H5.00228C5.04248 37.8358 5.07755 37.8116 5.09985 37.7772C5.12215 37.7429 5.12986 37.7012 5.12132 37.6613C5.03102 37.254 4.94893 36.8711 4.87505 36.4679C4.86709 36.4281 4.8437 36.393 4.80992 36.3702C4.77615 36.3473 4.73468 36.3385 4.69445 36.3457C4.65435 36.3536 4.61898 36.3768 4.59595 36.4103C4.57292 36.4438 4.56407 36.485 4.57131 36.5249C4.64519 36.9322 4.73139 37.3395 4.81758 37.7468C4.83088 37.7757 4.85224 37.8003 4.87914 37.8176C4.90605 37.835 4.93738 37.8443 4.96945 37.8445Z" fill="black"/>
<path d="M4.28814 33.0141C4.30863 33.0131 4.32872 33.008 4.34724 32.9993C4.36577 32.9905 4.38237 32.9782 4.39609 32.9631C4.40982 32.9479 4.4204 32.9303 4.42723 32.9111C4.43406 32.8919 4.43701 32.8715 4.4359 32.8512C4.41128 32.4439 4.39486 32.0366 4.38665 31.6293C4.38668 31.6088 4.3825 31.5885 4.37436 31.5697C4.36622 31.5509 4.35429 31.5339 4.33931 31.5198C4.32432 31.5057 4.3066 31.4947 4.28721 31.4877C4.26783 31.4806 4.2472 31.4775 4.22657 31.4786C4.18556 31.4807 4.14692 31.4984 4.11865 31.5279C4.09038 31.5575 4.07465 31.5967 4.07471 31.6375C4.07471 32.0447 4.10344 32.452 4.12806 32.8593C4.13017 32.8979 4.14709 32.9341 4.17535 32.9607C4.2036 32.9872 4.24104 33.0019 4.27993 33.0019L4.28814 33.0141Z" fill="black"/>
<path d="M6.48803 19.5654C6.44982 19.5517 6.40779 19.5529 6.37044 19.5688C6.33309 19.5846 6.30323 19.614 6.28691 19.6509C6.13504 20.0338 5.98728 20.4166 5.84772 20.8036C5.83452 20.8419 5.83702 20.8839 5.85467 20.9205C5.87232 20.957 5.90372 20.9852 5.94213 20.9991H5.99138C6.02373 20.9999 6.05551 20.9905 6.08209 20.9722C6.10867 20.9539 6.12866 20.9276 6.13914 20.8973C6.2787 20.5144 6.42235 20.1356 6.57422 19.7568C6.58668 19.72 6.58473 19.6799 6.56877 19.6444C6.5528 19.609 6.52398 19.5808 6.48803 19.5654Z" fill="black"/>
<path d="M5.45794 40.0928C5.46827 40.1236 5.4881 40.1504 5.51461 40.1694C5.54113 40.1884 5.573 40.1987 5.60571 40.1987H5.66727C5.68651 40.1927 5.70435 40.183 5.71975 40.17C5.73515 40.1571 5.7478 40.1413 5.75697 40.1235C5.76614 40.1057 5.77164 40.0862 5.77315 40.0663C5.77467 40.0463 5.77216 40.0263 5.76578 40.0073C5.64675 39.6 5.53183 39.2294 5.42511 38.8384C5.4199 38.819 5.41084 38.8009 5.39848 38.785C5.38612 38.7692 5.3707 38.7559 5.35312 38.7461C5.33553 38.7362 5.31615 38.7299 5.29609 38.7276C5.27603 38.7253 5.2557 38.7269 5.2363 38.7325C5.21648 38.7371 5.19785 38.7458 5.18157 38.7579C5.16528 38.7701 5.1517 38.7854 5.14168 38.803C5.13166 38.8206 5.12542 38.84 5.12333 38.8602C5.12125 38.8803 5.12338 38.9006 5.12958 38.9198C5.22399 39.3108 5.33891 39.7018 5.45794 40.0928Z" fill="black"/>
<path d="M14.1679 53.1912C14.1381 53.1628 14.0984 53.147 14.0571 53.147C14.0158 53.147 13.9761 53.1628 13.9463 53.1912C13.9318 53.2052 13.9202 53.222 13.9123 53.2406C13.9045 53.2591 13.9004 53.279 13.9004 53.2991C13.9004 53.3192 13.9045 53.3392 13.9123 53.3577C13.9202 53.3762 13.9318 53.393 13.9463 53.4071C14.2459 53.6881 14.5578 53.9569 14.8698 54.2216C14.897 54.2454 14.932 54.2585 14.9683 54.2583C14.991 54.2598 15.0137 54.2557 15.0344 54.2465C15.0552 54.2372 15.0733 54.2231 15.0873 54.2054C15.1019 54.1913 15.1134 54.1745 15.1213 54.156C15.1292 54.1375 15.1332 54.1175 15.1332 54.0974C15.1332 54.0773 15.1292 54.0574 15.1213 54.0388C15.1134 54.0203 15.1019 54.0035 15.0873 53.9895C14.7713 53.7166 14.4675 53.4478 14.1679 53.1912Z" fill="black"/>
<path d="M13.9624 8.98392C14.002 8.98465 14.0403 8.97004 14.0691 8.94319C14.3688 8.66623 14.6766 8.39742 14.9844 8.12861C14.999 8.11456 15.0105 8.09778 15.0184 8.07924C15.0263 8.0607 15.0303 8.04079 15.0303 8.02067C15.0303 8.00055 15.0263 7.98064 15.0184 7.9621C15.0105 7.94356 14.999 7.92678 14.9844 7.91274C14.9553 7.88463 14.9163 7.8689 14.8757 7.8689C14.8351 7.8689 14.796 7.88463 14.7669 7.91274C14.455 8.18155 14.1471 8.45037 13.8434 8.72732C13.8148 8.7569 13.7988 8.7963 13.7988 8.83729C13.7988 8.87828 13.8148 8.91768 13.8434 8.94726C13.8767 8.97452 13.9194 8.9877 13.9624 8.98392Z" fill="black"/>
<path d="M15.8998 7.29374C15.9355 7.29471 15.9704 7.28317 15.9984 7.26116C16.3185 7.01271 16.6428 6.76834 16.9752 6.53211C17.0022 6.50625 17.0188 6.47161 17.0221 6.43456C17.0254 6.39751 17.0152 6.36051 16.9933 6.33034C16.9713 6.30018 16.9392 6.27885 16.9027 6.27028C16.8662 6.26171 16.8279 6.26646 16.7946 6.28367C16.4622 6.52397 16.1297 6.76834 15.8054 7.02086C15.7736 7.04642 15.7532 7.08339 15.7485 7.12378C15.7439 7.16417 15.7555 7.20474 15.7808 7.23672C15.795 7.25451 15.8131 7.26889 15.8338 7.27876C15.8544 7.28863 15.877 7.29375 15.8998 7.29374Z" fill="black"/>
<path d="M9.41869 47.6399C9.39391 47.6121 9.3599 47.5941 9.32286 47.5892C9.28582 47.5842 9.24822 47.5926 9.21689 47.6128C9.18557 47.633 9.1626 47.6638 9.15218 47.6994C9.14176 47.735 9.14457 47.7731 9.16011 47.8069C9.38586 48.149 9.62392 48.487 9.86198 48.817C9.87643 48.8358 9.89504 48.8511 9.91639 48.8617C9.93774 48.8723 9.96125 48.8779 9.98512 48.878C10.0191 48.8807 10.0528 48.8705 10.0795 48.8495C10.0962 48.8382 10.1104 48.8236 10.1212 48.8066C10.132 48.7896 10.1392 48.7706 10.1423 48.7507C10.1454 48.7309 10.1443 48.7106 10.1391 48.6911C10.134 48.6717 10.1249 48.6535 10.1124 48.6377C9.8743 48.3038 9.64444 47.9779 9.41869 47.6399Z" fill="black"/>
<path d="M16.031 54.7471C15.9985 54.7273 15.9599 54.72 15.9224 54.7266C15.8849 54.7331 15.8512 54.753 15.8274 54.7826C15.8037 54.8121 15.7917 54.8493 15.7937 54.887C15.7956 54.9247 15.8114 54.9604 15.8381 54.9874C16.1623 55.2399 16.4948 55.4884 16.8273 55.7246C16.854 55.7432 16.8851 55.7544 16.9176 55.7572C16.9423 55.7563 16.9665 55.75 16.9885 55.7387C17.0105 55.7274 17.0297 55.7115 17.0448 55.692C17.0567 55.6754 17.0651 55.6567 17.0697 55.6369C17.0743 55.617 17.0749 55.5965 17.0714 55.5765C17.068 55.5564 17.0606 55.5373 17.0497 55.52C17.0388 55.5028 17.0246 55.4879 17.0079 55.4761C16.6795 55.2277 16.3388 54.9955 16.031 54.7471Z" fill="black"/>
<path d="M10.8512 49.6071C10.8387 49.591 10.8232 49.5775 10.8054 49.5675C10.7876 49.5575 10.7679 49.5512 10.7476 49.5489C10.7273 49.5466 10.7068 49.5485 10.6872 49.5543C10.6676 49.5601 10.6494 49.5697 10.6336 49.5827C10.6172 49.5943 10.6034 49.6092 10.593 49.6263C10.5825 49.6435 10.5758 49.6625 10.5731 49.6824C10.5704 49.7022 10.5718 49.7224 10.5773 49.7417C10.5828 49.761 10.5922 49.7789 10.6049 49.7945C10.8594 50.1162 11.1221 50.4339 11.3889 50.7434C11.403 50.7578 11.4199 50.7693 11.4386 50.7771C11.4573 50.7849 11.4774 50.789 11.4976 50.789C11.5179 50.789 11.538 50.7849 11.5567 50.7771C11.5753 50.7693 11.5922 50.7578 11.6064 50.7434C11.6209 50.7294 11.6325 50.7126 11.6403 50.6941C11.6482 50.6755 11.6523 50.6556 11.6523 50.6355C11.6523 50.6154 11.6482 50.5955 11.6403 50.5769C11.6325 50.5584 11.6209 50.5416 11.6064 50.5276C11.3601 50.2384 11.1015 49.9329 10.8512 49.6071Z" fill="black"/>
<path d="M63.5411 20.9217C63.5598 20.9276 63.5799 20.9276 63.5986 20.9217C63.6175 20.9149 63.635 20.9044 63.6498 20.8908C63.6647 20.8773 63.6766 20.8609 63.685 20.8427C63.6934 20.8245 63.6981 20.8049 63.6988 20.7848C63.6994 20.7648 63.6961 20.7449 63.6889 20.7262C63.5534 20.3474 63.4056 19.9646 63.2497 19.5817C63.242 19.5631 63.2308 19.5462 63.2165 19.532C63.2022 19.5178 63.1851 19.5066 63.1664 19.499C63.1477 19.4914 63.1276 19.4876 63.1073 19.4878C63.0871 19.488 63.0671 19.4923 63.0486 19.5002C63.0107 19.5156 62.9804 19.5452 62.9643 19.5825C62.9481 19.6199 62.9475 19.662 62.9624 19.6998C63.1183 20.0745 63.2661 20.4574 63.3974 20.828C63.409 20.8562 63.429 20.8802 63.4546 20.897C63.4803 20.9137 63.5104 20.9223 63.5411 20.9217Z" fill="black"/>
<path d="M65.1089 29.1204C65.1335 29.5277 65.1499 29.935 65.1581 30.3422C65.1592 30.3819 65.1755 30.4196 65.2038 30.4477C65.232 30.4757 65.2701 30.4919 65.31 30.493C65.3507 30.4919 65.3893 30.4751 65.4177 30.4462C65.446 30.4173 65.4619 30.3785 65.4619 30.3382C65.4619 29.9309 65.4331 29.5236 65.4085 29.1163C65.4087 29.0957 65.4045 29.0754 65.396 29.0566C65.3875 29.0378 65.3751 29.0211 65.3595 29.0076C65.3439 28.994 65.3255 28.984 65.3056 28.9782C65.2858 28.9723 65.2648 28.9708 65.2443 28.9738C65.208 28.9785 65.1745 28.9958 65.1497 29.0226C65.125 29.0494 65.1105 29.084 65.1089 29.1204Z" fill="black"/>
<path d="M64.9898 26.53C64.9497 26.537 64.9141 26.5592 64.8903 26.5919C64.8665 26.6246 64.8566 26.6652 64.8625 26.7051C64.92 27.1124 64.9692 27.5197 65.0103 27.927C65.0143 27.9645 65.0319 27.9992 65.0599 28.0247C65.0878 28.0502 65.1242 28.0647 65.1622 28.0655C65.1827 28.0634 65.2026 28.0574 65.2208 28.0477C65.2389 28.0379 65.2549 28.0247 65.2679 28.0088C65.2809 27.9929 65.2906 27.9746 65.2964 27.955C65.3022 27.9353 65.304 27.9147 65.3017 27.8944C65.2566 27.4871 65.2073 27.0798 65.1498 26.6725C65.1467 26.6329 65.1283 26.596 65.0985 26.5695C65.0687 26.543 65.0298 26.5288 64.9898 26.53Z" fill="black"/>
<path d="M64.0747 21.8788C64.0592 21.8438 64.0311 21.8157 63.996 21.8C63.9609 21.7842 63.9211 21.782 63.8844 21.7936C63.8477 21.8052 63.8166 21.83 63.7972 21.863C63.7777 21.896 63.7713 21.935 63.7791 21.9725C63.9023 22.3798 64.0172 22.7463 64.1239 23.1373C64.1315 23.1703 64.1503 23.1997 64.1773 23.2205C64.2042 23.2413 64.2376 23.2522 64.2717 23.2514H64.3127C64.3322 23.2462 64.3505 23.2372 64.3665 23.2249C64.3824 23.2127 64.3958 23.1974 64.4057 23.1799C64.4157 23.1625 64.422 23.1432 64.4244 23.1233C64.4267 23.1034 64.425 23.0833 64.4194 23.064C64.3127 22.6649 64.1978 22.2698 64.0747 21.8788Z" fill="black"/>
<path d="M64.5344 24.1352C64.5146 24.1395 64.4958 24.1477 64.4793 24.1593C64.4627 24.1709 64.4487 24.1857 64.438 24.2028C64.4273 24.2199 64.4201 24.2389 64.4169 24.2588C64.4137 24.2787 64.4146 24.299 64.4195 24.3185C64.5056 24.7258 64.5877 25.1086 64.6616 25.5078C64.669 25.5427 64.688 25.5741 64.7155 25.597C64.7431 25.6199 64.7776 25.633 64.8135 25.634H64.8422C64.8624 25.6306 64.8818 25.6232 64.8991 25.6123C64.9165 25.6015 64.9315 25.5873 64.9433 25.5706C64.9551 25.554 64.9635 25.5352 64.968 25.5153C64.9725 25.4954 64.973 25.4749 64.9695 25.4548C64.8915 25.0475 64.8094 24.6402 64.7191 24.2533C64.7102 24.2134 64.6859 24.1786 64.6513 24.1565C64.6167 24.1344 64.5746 24.1267 64.5344 24.1352Z" fill="black"/>
<path d="M4.99399 24.2207C4.95372 24.2122 4.91171 24.2198 4.87712 24.242C4.84252 24.2641 4.81814 24.2989 4.80928 24.3388C4.71899 24.7461 4.63689 25.1534 4.56301 25.5606C4.55577 25.6006 4.56462 25.6417 4.58765 25.6752C4.61068 25.7088 4.64605 25.732 4.68615 25.7399H4.71488C4.75146 25.7412 4.78724 25.7291 4.8153 25.7057C4.84335 25.6824 4.86169 25.6496 4.86675 25.6136C4.94063 25.2063 5.02272 24.799 5.10891 24.4243C5.11642 24.4035 5.11935 24.3813 5.11749 24.3593C5.11564 24.3372 5.10904 24.3158 5.09815 24.2965C5.08726 24.2772 5.07233 24.2605 5.05436 24.2474C5.03639 24.2343 5.0158 24.2252 4.99399 24.2207Z" fill="black"/>
<path d="M5.63862 21.8666C5.59889 21.855 5.55616 21.8591 5.51942 21.8781C5.48268 21.8971 5.45479 21.9294 5.4416 21.9684C5.32257 22.3553 5.20765 22.7504 5.10093 23.1455C5.09091 23.1849 5.09692 23.2266 5.11765 23.2617C5.13839 23.2968 5.17219 23.3223 5.21175 23.3328H5.2569C5.29115 23.3348 5.32503 23.325 5.35274 23.3049C5.38045 23.2848 5.40026 23.2558 5.40877 23.2229C5.51138 22.8156 5.62631 22.4409 5.74534 22.0539C5.75094 22.0347 5.75261 22.0145 5.75025 21.9946C5.7479 21.9747 5.74157 21.9555 5.73163 21.938C5.72169 21.9206 5.70835 21.9053 5.69238 21.893C5.67641 21.8807 5.65813 21.8718 5.63862 21.8666Z" fill="black"/>
<path d="M4.12376 29.1937C4.09914 29.6009 4.08682 29.9838 4.07861 30.3789V30.4196C4.08074 30.4578 4.0978 30.4936 4.12617 30.5195C4.15454 30.5453 4.19197 30.5592 4.23048 30.5581C4.27334 30.555 4.3135 30.5362 4.34311 30.5053C4.37272 30.4745 4.38964 30.4337 4.39056 30.3911C4.39056 29.9838 4.41518 29.6009 4.43571 29.2099C4.43936 29.1878 4.43812 29.1651 4.43207 29.1435C4.42602 29.1219 4.4153 29.1018 4.40066 29.0847C4.38602 29.0676 4.3678 29.0539 4.34727 29.0445C4.32675 29.035 4.3044 29.0302 4.28179 29.0302C4.25917 29.0302 4.23683 29.035 4.2163 29.0445C4.19578 29.0539 4.17756 29.0676 4.16292 29.0847C4.14827 29.1018 4.13756 29.1219 4.1315 29.1435C4.12545 29.1651 4.12421 29.1878 4.12787 29.2099L4.12376 29.1937Z" fill="black"/>
<path d="M4.36585 26.75C4.31249 27.1573 4.26324 27.5646 4.22219 27.9719C4.21755 28.0123 4.22916 28.053 4.25452 28.085C4.27987 28.117 4.31692 28.1378 4.35764 28.1429C4.39606 28.1423 4.43296 28.1279 4.46159 28.1025C4.49023 28.077 4.50869 28.0423 4.51361 28.0044C4.55055 27.5972 4.59981 27.1899 4.65727 26.7826C4.6619 26.7618 4.66217 26.7403 4.65806 26.7195C4.65395 26.6986 4.64555 26.6788 4.63338 26.6613C4.62122 26.6438 4.60555 26.6289 4.58735 26.6177C4.56915 26.6065 4.54882 26.5991 4.52762 26.596C4.50642 26.5929 4.4848 26.5942 4.46412 26.5998C4.44344 26.6053 4.42413 26.6151 4.40742 26.6284C4.3907 26.6417 4.37692 26.6583 4.36694 26.6771C4.35697 26.6959 4.35101 26.7166 4.34943 26.7378L4.36585 26.75Z" fill="black"/>
<path d="M46.0802 3.00088C46.4619 3.15158 46.8355 3.31043 47.209 3.47334C47.2291 3.4789 47.2504 3.4789 47.2705 3.47334C47.3005 3.47327 47.3299 3.46482 47.3553 3.44898C47.3807 3.43314 47.4011 3.41053 47.4142 3.38374C47.4309 3.34645 47.432 3.30413 47.4174 3.26599C47.4028 3.22786 47.3736 3.19699 47.3362 3.18009C46.9586 3.0131 46.5769 2.85019 46.1952 2.69949C46.1763 2.6916 46.1561 2.68757 46.1357 2.68762C46.1152 2.68768 46.095 2.69182 46.0763 2.69981C46.0575 2.70779 46.0405 2.71945 46.0264 2.7341C46.0123 2.74874 46.0013 2.76606 45.994 2.78502C45.984 2.80459 45.9783 2.82606 45.9772 2.848C45.9762 2.86994 45.9799 2.89184 45.988 2.91226C45.9962 2.93268 46.0086 2.95114 46.0245 2.96642C46.0404 2.9817 46.0594 2.99345 46.0802 3.00088Z" fill="black"/>
<path d="M55.4346 8.9432C55.4637 8.97132 55.5027 8.98705 55.5434 8.98705C55.584 8.98705 55.623 8.97132 55.6521 8.9432C55.6807 8.91363 55.6967 8.87422 55.6967 8.83323C55.6967 8.79224 55.6807 8.75285 55.6521 8.72327C55.3484 8.44631 55.0406 8.1775 54.7245 7.90869C54.7104 7.89428 54.6935 7.88282 54.6748 7.875C54.6561 7.86719 54.636 7.86316 54.6158 7.86316C54.5955 7.86316 54.5754 7.86719 54.5567 7.875C54.538 7.88282 54.5211 7.89428 54.507 7.90869C54.4796 7.93805 54.4644 7.9766 54.4644 8.01662C54.4644 8.05664 54.4796 8.09519 54.507 8.12455C54.8271 8.38929 55.135 8.66625 55.4346 8.9432Z" fill="black"/>
<path d="M53.5216 7.26115C53.5489 7.28148 53.5819 7.29287 53.6161 7.29373C53.6395 7.29377 53.6627 7.28869 53.684 7.27883C53.7053 7.26898 53.7241 7.2546 53.7392 7.23671C53.7645 7.20473 53.7761 7.16416 53.7714 7.12377C53.7668 7.08338 53.7464 7.04641 53.7146 7.02085C53.3903 6.76833 53.0578 6.52396 52.7254 6.28366C52.7093 6.26822 52.69 6.25639 52.669 6.24898C52.6479 6.24157 52.6254 6.23876 52.6031 6.24072C52.5808 6.24268 52.5592 6.24938 52.5398 6.26036C52.5203 6.27133 52.5035 6.28633 52.4904 6.30434C52.4773 6.32235 52.4683 6.34294 52.4639 6.36471C52.4596 6.38649 52.46 6.40894 52.4651 6.43055C52.4703 6.45215 52.4801 6.4724 52.4938 6.48992C52.5076 6.50745 52.5249 6.52183 52.5448 6.5321C52.869 6.76019 53.2015 7.0127 53.5216 7.26115Z" fill="black"/>
<path d="M50.4806 5.21649C50.8336 5.42421 51.1784 5.62378 51.519 5.86408C51.5533 5.88519 51.5942 5.89271 51.6338 5.88516C51.6734 5.87762 51.7086 5.85554 51.7325 5.82335C51.7546 5.78856 51.7622 5.74664 51.7538 5.70638C51.7454 5.66612 51.7215 5.63067 51.6873 5.60748C51.3425 5.38347 50.9937 5.16354 50.6407 4.95175C50.6235 4.94147 50.6044 4.93468 50.5845 4.93178C50.5646 4.92888 50.5443 4.92992 50.5249 4.93484C50.5054 4.93977 50.4871 4.94848 50.4711 4.96047C50.455 4.97246 50.4415 4.98749 50.4313 5.00469C50.4099 5.03934 50.403 5.08098 50.4122 5.12061C50.4214 5.16025 50.446 5.19469 50.4806 5.21649Z" fill="black"/>
<path d="M48.3175 3.99469C48.6828 4.17797 49.044 4.36533 49.4052 4.56082C49.4262 4.57361 49.4503 4.58064 49.475 4.58119C49.5094 4.58133 49.5429 4.57015 49.5703 4.54939C49.5977 4.52863 49.6174 4.49946 49.6263 4.46643C49.6352 4.4334 49.6328 4.39838 49.6196 4.36683C49.6063 4.33527 49.5829 4.30897 49.5529 4.29201C49.1917 4.09652 48.8264 3.88472 48.457 3.72181C48.4387 3.71271 48.4188 3.70728 48.3983 3.70584C48.3779 3.70439 48.3574 3.70696 48.3379 3.71339C48.3185 3.71982 48.3005 3.72999 48.285 3.74331C48.2695 3.75664 48.2569 3.77286 48.2477 3.79105C48.2386 3.80893 48.2332 3.82843 48.2318 3.84841C48.2304 3.86838 48.233 3.88844 48.2395 3.9074C48.246 3.92636 48.2563 3.94384 48.2696 3.95883C48.283 3.97382 48.2993 3.98601 48.3175 3.99469Z" fill="black"/>
<path d="M58.0287 50.8086C58.0521 50.8081 58.0751 50.8028 58.0963 50.793C58.1175 50.7831 58.1365 50.769 58.1519 50.7516C58.4186 50.442 58.6772 50.1243 58.9358 49.8026C58.9561 49.77 58.9634 49.731 58.9564 49.6934C58.9494 49.6557 58.9286 49.6219 58.8979 49.5986C58.8673 49.5753 58.829 49.5641 58.7905 49.5671C58.752 49.5702 58.716 49.5874 58.6895 49.6152C58.4378 49.9329 58.1792 50.2465 57.9138 50.5561C57.888 50.5875 57.8758 50.6278 57.8796 50.6682C57.8834 50.7085 57.9031 50.7458 57.9343 50.7719C57.9612 50.7935 57.9942 50.8063 58.0287 50.8086Z" fill="black"/>
<path d="M47.2502 58.5105C46.8808 58.6775 46.5032 58.8363 46.1256 58.987C46.0883 59.0032 46.0587 59.0329 46.0427 59.0699C46.0267 59.107 46.0255 59.1487 46.0394 59.1866C46.052 59.2143 46.0721 59.2381 46.0974 59.2553C46.1228 59.2726 46.1524 59.2826 46.183 59.2843C46.2019 59.2885 46.2216 59.2885 46.2405 59.2843C46.6222 59.1296 47.0039 58.9707 47.3774 58.8037C47.398 58.7968 47.417 58.7857 47.433 58.7711C47.449 58.7565 47.4618 58.7388 47.4705 58.719C47.4792 58.6992 47.4837 58.6778 47.4835 58.6563C47.4834 58.6347 47.4788 58.6134 47.4698 58.5937C47.4609 58.574 47.448 58.5563 47.4318 58.5419C47.4156 58.5275 47.3965 58.5166 47.3759 58.5099C47.3552 58.5032 47.3333 58.5009 47.3117 58.5031C47.29 58.5053 47.2691 58.512 47.2502 58.5227V58.5105Z" fill="black"/>
<path d="M49.4339 57.4271C49.0768 57.6226 48.7156 57.81 48.3545 57.9933C48.3218 58.0071 48.295 58.0319 48.2789 58.0632C48.2627 58.0946 48.2581 58.1306 48.2659 58.165C48.2737 58.1994 48.2934 58.2299 48.3216 58.2514C48.3498 58.2729 48.3846 58.2838 48.4201 58.2824C48.443 58.2885 48.467 58.2885 48.4899 58.2824C48.8593 58.0992 49.2246 57.9077 49.5817 57.7122C49.6116 57.6899 49.6323 57.6576 49.6402 57.6213C49.6481 57.585 49.6426 57.5472 49.6247 57.5146C49.6068 57.482 49.5777 57.4569 49.5426 57.4438C49.5076 57.4308 49.4691 57.4306 49.4339 57.4434V57.4271Z" fill="black"/>
<path d="M51.5231 56.1726C51.1865 56.3925 50.8417 56.6125 50.4929 56.8202C50.4576 56.8413 50.4321 56.8755 50.4221 56.9152C50.4121 56.9549 50.4184 56.9969 50.4395 57.032C50.4534 57.0542 50.4727 57.0726 50.4957 57.0854C50.5186 57.0983 50.5445 57.1051 50.5708 57.1053C50.5999 57.1043 50.6282 57.0959 50.6529 57.0809C51.0059 56.8691 51.3507 56.6532 51.6955 56.4251C51.7292 56.4024 51.7525 56.3674 51.7602 56.3277C51.7679 56.288 51.7594 56.2468 51.7365 56.2133C51.7137 56.1798 51.6783 56.1567 51.6383 56.1491C51.5983 56.1415 51.5568 56.1499 51.5231 56.1726Z" fill="black"/>
<path d="M55.3728 53.1912C55.0731 53.4641 54.7653 53.7329 54.4534 54.0058C54.425 54.0347 54.4092 54.0734 54.4092 54.1137C54.4092 54.1541 54.425 54.1928 54.4534 54.2217C54.4679 54.2378 54.4856 54.2508 54.5053 54.2599C54.5251 54.269 54.5465 54.274 54.5683 54.2746C54.6058 54.2751 54.6423 54.262 54.6709 54.238C54.987 53.9732 55.2948 53.7003 55.5985 53.4234C55.6174 53.411 55.6333 53.3947 55.6451 53.3756C55.657 53.3565 55.6645 53.335 55.6672 53.3127C55.6698 53.2905 55.6676 53.2679 55.6606 53.2465C55.6536 53.2252 55.642 53.2056 55.6267 53.1892C55.6113 53.1727 55.5925 53.1598 55.5716 53.1513C55.5507 53.1427 55.5281 53.1388 55.5056 53.1398C55.483 53.1408 55.4609 53.1466 55.4408 53.1569C55.4207 53.1672 55.4031 53.1817 55.3892 53.1994L55.3728 53.1912Z" fill="black"/>
<path d="M53.5053 54.7511C53.1851 54.9996 52.8609 55.2439 52.5284 55.4802C52.4953 55.5045 52.4732 55.5409 52.4671 55.5814C52.4609 55.6218 52.4712 55.6631 52.4956 55.696C52.5095 55.7154 52.5281 55.731 52.5495 55.7417C52.571 55.7523 52.5947 55.7576 52.6187 55.7571C52.6349 55.7588 52.6513 55.7571 52.6668 55.7522C52.6824 55.7473 52.6967 55.7393 52.709 55.7286C53.0456 55.4924 53.3739 55.2439 53.6982 54.9914C53.7248 54.9645 53.7406 54.9287 53.7426 54.891C53.7446 54.8533 53.7326 54.8162 53.7088 54.7866C53.6851 54.7571 53.6513 54.7371 53.6138 54.7306C53.5763 54.7241 53.5377 54.7314 53.5053 54.7511Z" fill="black"/>
<path d="M42.649 60.1396C42.2385 60.2455 41.8609 60.3392 41.4628 60.4288C41.426 60.4372 41.3935 60.4586 41.3714 60.489C41.3492 60.5194 41.339 60.5567 41.3425 60.594C41.346 60.6314 41.363 60.6661 41.3904 60.6919C41.4178 60.7177 41.4538 60.7328 41.4915 60.7343H41.5284C41.9389 60.6447 42.3493 60.5469 42.7311 60.441C42.7506 60.4359 42.7689 60.4269 42.7848 60.4146C42.8008 60.4024 42.8141 60.387 42.8241 60.3696C42.834 60.3522 42.8403 60.3329 42.8427 60.313C42.8451 60.2931 42.8434 60.2729 42.8378 60.2537C42.8341 60.2333 42.826 60.2139 42.8142 60.1968C42.8024 60.1797 42.787 60.1653 42.7692 60.1546C42.7514 60.1438 42.7314 60.1369 42.7107 60.1343C42.69 60.1317 42.6689 60.1336 42.649 60.1396Z" fill="black"/>
<path d="M44.9842 59.4147C44.6025 59.5532 44.2167 59.6794 43.8268 59.822C43.7878 59.8342 43.7552 59.8611 43.736 59.8969C43.7169 59.9327 43.7126 59.9745 43.7242 60.0134C43.7341 60.044 43.7531 60.0709 43.7788 60.0905C43.8044 60.1102 43.8355 60.1216 43.8678 60.1234H43.9171C44.3275 60.0012 44.701 59.8709 45.091 59.7161C45.1099 59.7093 45.1274 59.6988 45.1422 59.6853C45.1571 59.6717 45.169 59.6553 45.1774 59.6371C45.1859 59.6189 45.1905 59.5993 45.1912 59.5793C45.1918 59.5592 45.1885 59.5393 45.1813 59.5206C45.1689 59.4809 45.1414 59.4475 45.1045 59.4277C45.0677 59.4079 45.0245 59.4033 44.9842 59.4147Z" fill="black"/>
<path d="M41.405 1.56316C41.8155 1.65276 42.2013 1.74644 42.5953 1.85234H42.6323C42.6686 1.85043 42.703 1.83602 42.7297 1.81159C42.7565 1.78716 42.7737 1.75424 42.7786 1.71851C42.7835 1.68279 42.7756 1.64649 42.7564 1.6159C42.7372 1.58531 42.7078 1.56233 42.6733 1.55094C42.2629 1.44505 41.877 1.35137 41.4707 1.26177C41.4513 1.25698 41.4311 1.25616 41.4113 1.25936C41.3915 1.26256 41.3726 1.2697 41.3558 1.28037C41.3389 1.29103 41.3243 1.30499 41.3131 1.3214C41.3018 1.33781 41.294 1.35632 41.2901 1.37581C41.2846 1.39561 41.2833 1.41632 41.2861 1.43667C41.289 1.45701 41.2961 1.47655 41.3068 1.4941C41.3176 1.51165 41.3318 1.52682 41.3487 1.5387C41.3656 1.55058 41.3848 1.5589 41.405 1.56316Z" fill="black"/>
<path d="M43.7694 2.18625C44.1799 2.30844 44.5493 2.4347 44.931 2.56911C44.9472 2.57307 44.9641 2.57307 44.9803 2.56911C45.0129 2.57136 45.0453 2.5625 45.0722 2.54399C45.0991 2.52547 45.1188 2.49841 45.128 2.46728C45.1415 2.42944 45.1395 2.3879 45.1227 2.35143C45.1058 2.31496 45.0754 2.2864 45.0377 2.27178C44.6478 2.13738 44.2579 2.00705 43.8638 1.86449C43.8247 1.85301 43.7825 1.85724 43.7464 1.87628C43.7103 1.89532 43.6832 1.92765 43.6709 1.96632C43.6595 1.98672 43.653 2.00947 43.652 2.03278C43.651 2.05609 43.6554 2.07933 43.6649 2.10065C43.6745 2.12197 43.6889 2.1408 43.707 2.15566C43.7252 2.17051 43.7465 2.18098 43.7694 2.18625Z" fill="black"/>
<path d="M64.5463 37.8161H64.5751C64.6108 37.8171 64.6457 37.8059 64.6741 37.7844C64.7025 37.7629 64.7226 37.7324 64.731 37.698C64.8172 37.2907 64.9034 36.8834 64.9773 36.4761C64.9808 36.4563 64.9803 36.436 64.9758 36.4164C64.9712 36.3967 64.9628 36.3782 64.9509 36.3619C64.9391 36.3456 64.924 36.3318 64.9067 36.3213C64.8894 36.3108 64.8701 36.3039 64.8501 36.301C64.8304 36.2969 64.81 36.2968 64.7902 36.3008C64.7705 36.3048 64.7518 36.3128 64.7352 36.3242C64.7187 36.3357 64.7047 36.3504 64.6941 36.3674C64.6835 36.3844 64.6765 36.4034 64.6736 36.4232C64.5997 36.8304 64.5176 37.2377 64.4273 37.6124C64.4191 37.6335 64.4157 37.6562 64.4174 37.6787C64.4192 37.7012 64.4261 37.7231 64.4375 37.7427C64.4489 37.7622 64.4646 37.779 64.4835 37.7917C64.5023 37.8044 64.5238 37.8127 64.5463 37.8161Z" fill="black"/>
<path d="M17.8864 5.88851C17.9169 5.88867 17.9468 5.88019 17.9726 5.86407C18.3133 5.64006 18.6581 5.42419 19.007 5.2124C19.0418 5.19134 19.0668 5.15741 19.0764 5.11807C19.086 5.07873 19.0795 5.03721 19.0583 5.00265C19.0371 4.96808 19.0029 4.9433 18.9632 4.93375C18.9236 4.9242 18.8817 4.93067 18.8469 4.95174C18.4939 5.16353 18.145 5.38346 17.8044 5.60747C17.775 5.62433 17.7521 5.65048 17.7395 5.68173C17.7268 5.71298 17.7251 5.74754 17.7345 5.77988C17.744 5.81223 17.7641 5.8405 17.7916 5.86019C17.8191 5.87988 17.8525 5.88985 17.8864 5.88851Z" fill="black"/>
<path d="M63.898 40.158H63.9432C63.9766 40.1583 64.0091 40.1477 64.0359 40.1278C64.0626 40.1079 64.0819 40.0799 64.0909 40.048C64.2141 39.6611 64.329 39.266 64.4357 38.8709C64.4439 38.8505 64.4475 38.8287 64.4465 38.8068C64.4455 38.7849 64.4398 38.7635 64.4298 38.7439C64.4198 38.7244 64.4057 38.7071 64.3885 38.6934C64.3713 38.6797 64.3514 38.6697 64.33 38.6642C64.3086 38.6587 64.2863 38.6577 64.2645 38.6614C64.2428 38.6651 64.222 38.6733 64.2037 38.6855C64.1854 38.6977 64.1698 38.7137 64.1582 38.7323C64.1465 38.7509 64.139 38.7718 64.1361 38.7935C64.0335 39.2008 63.9186 39.5715 63.7954 39.9584C63.7884 39.9781 63.7856 39.9991 63.787 40.02C63.7884 40.0409 63.7941 40.0613 63.8037 40.08C63.8133 40.0986 63.8266 40.1152 63.8428 40.1286C63.859 40.142 63.8778 40.152 63.898 40.158Z" fill="black"/>
<path d="M40.2603 60.6732C39.8499 60.7425 39.46 60.8076 39.0536 60.8647C39.0171 60.8706 38.9839 60.8892 38.96 60.9172C38.936 60.9452 38.9229 60.9807 38.9229 61.0174C38.9229 61.0541 38.936 61.0896 38.96 61.1176C38.9839 61.1456 39.0171 61.1642 39.0536 61.1701H39.0782C39.4859 61.1131 39.8964 61.0479 40.3096 60.9746C40.3497 60.9667 40.3851 60.9435 40.4081 60.91C40.4311 60.8765 40.44 60.8353 40.4327 60.7954C40.4248 60.7573 40.4026 60.7235 40.3706 60.7008C40.3387 60.6782 40.2993 60.6683 40.2603 60.6732Z" fill="black"/>
<path d="M65.4207 32.847C65.4453 32.4398 65.4617 32.0325 65.4699 31.6252V31.5519C65.47 31.5115 65.4541 31.4727 65.4257 31.4438C65.3974 31.4149 65.3587 31.3982 65.3181 31.3971C65.2774 31.3971 65.2384 31.4128 65.2092 31.441C65.1801 31.4691 65.1632 31.5075 65.1621 31.5478V31.6048C65.1621 32.0121 65.1375 32.4194 65.1129 32.8267C65.1117 32.8671 65.1265 32.9063 65.1542 32.9359C65.1818 32.9656 65.22 32.9834 65.2606 32.9855C65.3 32.9868 65.3384 32.9732 65.3681 32.9475C65.3978 32.9218 65.4166 32.8859 65.4207 32.847Z" fill="black"/>
<path d="M63.0608 42.4714H63.1141C63.1455 42.4729 63.1766 42.4646 63.203 42.4479C63.2295 42.4311 63.2501 42.4066 63.2619 42.3777C63.4138 41.9949 63.5615 41.612 63.7011 41.2251C63.7086 41.1885 63.7025 41.1504 63.6839 41.1179C63.6653 41.0855 63.6355 41.0607 63.6 41.0483C63.5645 41.0359 63.5257 41.0367 63.4907 41.0505C63.4557 41.0642 63.4269 41.0901 63.4097 41.1233C63.2742 41.5061 63.1265 41.8849 62.9746 42.2637C62.9659 42.2829 62.9613 42.3036 62.961 42.3246C62.9606 42.3456 62.9646 42.3665 62.9727 42.3859C62.9808 42.4054 62.9927 42.423 63.0079 42.4377C63.023 42.4524 63.041 42.4638 63.0608 42.4714Z" fill="black"/>
<path d="M60.8322 46.8293C60.8563 46.8418 60.883 46.8487 60.9101 46.8497C60.9372 46.8502 60.9639 46.8437 60.9876 46.8308C61.0114 46.818 61.0314 46.7992 61.0456 46.7764C61.259 46.4261 61.456 46.0718 61.6654 45.7134C61.6754 45.6958 61.6818 45.6764 61.6841 45.6563C61.6864 45.6363 61.6847 45.6159 61.6789 45.5966C61.6732 45.5772 61.6636 45.5592 61.6507 45.5435C61.6378 45.5279 61.6218 45.515 61.6038 45.5057C61.5863 45.4955 61.567 45.489 61.547 45.4864C61.5269 45.4838 61.5066 45.4852 61.4871 45.4905C61.4676 45.4958 61.4493 45.5049 61.4334 45.5173C61.4175 45.5297 61.4043 45.5451 61.3945 45.5627C61.1975 45.9211 60.984 46.2714 60.7829 46.6176C60.7614 46.6522 60.7545 46.6938 60.7638 46.7335C60.773 46.7731 60.7975 46.8076 60.8322 46.8293Z" fill="black"/>
<path d="M59.5512 48.8862C59.5762 48.8866 59.6009 48.8808 59.6231 48.8695C59.6453 48.8581 59.6643 48.8415 59.6785 48.8211C59.9206 48.4912 60.1546 48.1531 60.3844 47.8151C60.4065 47.7803 60.4142 47.7384 60.4057 47.6981C60.3973 47.6578 60.3735 47.6224 60.3393 47.5992C60.3049 47.5775 60.2633 47.5701 60.2234 47.5784C60.1835 47.5868 60.1485 47.6103 60.1258 47.644C59.9001 47.9821 59.6661 48.316 59.4281 48.6419C59.4047 48.6752 59.3951 48.7161 59.4012 48.7563C59.4073 48.7964 59.4287 48.8327 59.4609 48.8577C59.487 48.8768 59.5188 48.8868 59.5512 48.8862Z" fill="black"/>
<path d="M62.0346 44.6952C62.0577 44.6994 62.0814 44.6994 62.1044 44.6952C62.1333 44.6948 62.1615 44.6866 62.1861 44.6715C62.2106 44.6565 62.2306 44.6351 62.244 44.6097C62.4273 44.2431 62.6038 43.8725 62.7735 43.4978C62.7818 43.4796 62.7865 43.46 62.7872 43.44C62.7879 43.42 62.7846 43.4001 62.7776 43.3814C62.7705 43.3627 62.7598 43.3455 62.7461 43.3309C62.7323 43.3163 62.7158 43.3045 62.6975 43.2962C62.6792 43.2879 62.6594 43.2833 62.6393 43.2826C62.6191 43.2819 62.5991 43.2851 62.5802 43.2921C62.5613 43.2991 62.544 43.3097 62.5293 43.3233C62.5146 43.337 62.5027 43.3533 62.4943 43.3715C62.3247 43.7435 62.1482 44.1101 61.9649 44.4712C61.9536 44.4902 61.9465 44.5114 61.9439 44.5333C61.9414 44.5552 61.9434 44.5774 61.95 44.5985C61.9566 44.6196 61.9675 44.639 61.9821 44.6557C61.9966 44.6723 62.0145 44.6858 62.0346 44.6952Z" fill="black"/>
<path d="M65.0188 35.4211C65.0605 35.4222 65.1011 35.4071 65.1318 35.3789C65.1624 35.3508 65.1808 35.3118 65.1829 35.2704C65.2404 34.8631 65.2897 34.4559 65.3307 34.0486C65.3341 34.0081 65.3214 33.968 65.2953 33.9367C65.2692 33.9055 65.2318 33.8857 65.1911 33.8816C65.1708 33.8787 65.15 33.8801 65.1302 33.8857C65.1104 33.8912 65.092 33.9008 65.0761 33.9139C65.0603 33.9269 65.0474 33.9431 65.0382 33.9614C65.029 33.9797 65.0238 33.9996 65.0229 34.02C64.9818 34.4273 64.9326 34.8346 64.8751 35.2419C64.8722 35.2617 64.8733 35.2819 64.8784 35.3013C64.8835 35.3207 64.8924 35.3389 64.9046 35.3548C64.9168 35.3707 64.9321 35.3841 64.9496 35.3941C64.9671 35.4041 64.9864 35.4105 65.0064 35.413L65.0188 35.4211Z" fill="black"/>
<path d="M25.7426 59.8098C25.3527 59.6876 24.9669 59.5613 24.581 59.4229C24.5424 59.4098 24.5001 59.4122 24.4632 59.4297C24.4264 59.4473 24.398 59.4784 24.384 59.5165C24.3769 59.5355 24.3737 59.5557 24.3747 59.5759C24.3756 59.5961 24.3806 59.6159 24.3894 59.6342C24.3982 59.6524 24.4107 59.6687 24.4259 59.6821C24.4412 59.6955 24.4591 59.7056 24.4784 59.712C24.8643 59.8505 25.2583 59.9808 25.6523 60.099C25.6657 60.1028 25.68 60.1028 25.6934 60.099C25.7326 60.1044 25.7725 60.0944 25.8045 60.0711C25.8364 60.0478 25.8579 60.013 25.8643 59.9742C25.8708 59.9353 25.8616 59.8955 25.8389 59.8633C25.8162 59.8311 25.7816 59.8089 25.7426 59.8016V59.8098Z" fill="black"/>
<path d="M24.474 2.60987C24.4916 2.61361 24.5097 2.61361 24.5273 2.60987C24.9091 2.47546 25.299 2.34513 25.6889 2.22702C25.7242 2.21164 25.7525 2.18384 25.7684 2.14897C25.7842 2.11411 25.7865 2.07465 25.7748 2.03821C25.763 2.00178 25.7381 1.97095 25.7048 1.95166C25.6716 1.93237 25.6323 1.926 25.5945 1.93377C25.2005 2.05596 24.8105 2.19172 24.4247 2.34106C24.4054 2.34745 24.3875 2.35763 24.3722 2.37101C24.3569 2.38439 24.3445 2.40069 24.3357 2.41893C24.3269 2.43717 24.3219 2.45699 24.321 2.4772C24.32 2.49741 24.3232 2.5176 24.3303 2.53656C24.3456 2.56032 24.3669 2.57963 24.3921 2.59252C24.4174 2.6054 24.4456 2.61139 24.474 2.60987Z" fill="black"/>
<path d="M26.8219 1.87263H26.863C27.2734 1.77081 27.651 1.67306 28.0533 1.58345C28.0927 1.57377 28.1268 1.54921 28.1483 1.51498C28.1697 1.48075 28.1769 1.43956 28.1682 1.40017C28.1594 1.36028 28.135 1.32549 28.1004 1.30336C28.0658 1.28124 28.0238 1.27358 27.9835 1.28206C27.5731 1.37574 27.1626 1.47348 26.785 1.57938C26.7454 1.58991 26.7116 1.61546 26.6909 1.65052C26.6702 1.68558 26.6642 1.72732 26.6742 1.76673C26.685 1.7972 26.705 1.82367 26.7314 1.84259C26.7578 1.86151 26.7894 1.87199 26.8219 1.87263Z" fill="black"/>
<path d="M38.9961 1.13139C39.4066 1.18841 39.8171 1.25358 40.2275 1.32282H40.2521C40.2888 1.32266 40.3242 1.31004 40.3526 1.28706C40.381 1.26408 40.4006 1.23213 40.4081 1.19655C40.4142 1.15618 40.4043 1.11505 40.3806 1.08168C40.3569 1.04831 40.3212 1.02528 40.2809 1.01735C39.8704 0.948109 39.46 0.882942 39.0495 0.825922C39.0087 0.820091 38.9672 0.830528 38.9342 0.854951C38.9011 0.879374 38.8791 0.915795 38.873 0.956255C38.8695 0.975781 38.8698 0.99581 38.8741 1.01519C38.8784 1.03457 38.8865 1.05293 38.8979 1.0692C38.9094 1.08547 38.9239 1.09934 38.9408 1.11001C38.9576 1.12069 38.9765 1.12795 38.9961 1.13139Z" fill="black"/>
<path d="M20.0043 4.61371C20.0297 4.62154 20.0569 4.62154 20.0823 4.61371C20.4394 4.41821 20.8006 4.23085 21.1618 4.04757C21.1983 4.02975 21.2261 3.99828 21.2392 3.96009C21.2523 3.9219 21.2496 3.88011 21.2316 3.84392C21.2136 3.80774 21.1819 3.78011 21.1434 3.76713C21.105 3.75414 21.0628 3.75686 21.0264 3.77469C20.657 3.95797 20.2917 4.14939 19.9346 4.34489C19.9164 4.35468 19.9004 4.36795 19.8874 4.38394C19.8745 4.39992 19.8649 4.4183 19.8591 4.43801C19.8534 4.45772 19.8517 4.47835 19.8541 4.49873C19.8564 4.5191 19.8629 4.5388 19.873 4.55668C19.8885 4.57618 19.9086 4.59159 19.9315 4.60154C19.9544 4.61149 19.9794 4.61567 20.0043 4.61371Z" fill="black"/>
<path d="M19.0523 56.8202C18.7034 56.6084 18.3586 56.4129 18.0179 56.1685C17.9835 56.1468 17.9419 56.1394 17.902 56.1478C17.8621 56.1561 17.8271 56.1797 17.8045 56.2134C17.793 56.2299 17.7848 56.2485 17.7806 56.2681C17.7764 56.2878 17.7763 56.3081 17.7801 56.3278C17.7839 56.3476 17.7917 56.3663 17.8029 56.3831C17.8142 56.3998 17.8287 56.4141 17.8456 56.4251C18.1903 56.6492 18.5392 56.8691 18.8922 57.0809C18.915 57.0968 18.9423 57.1053 18.9702 57.1053C19.0037 57.1049 19.0363 57.0937 19.0629 57.0735C19.0896 57.0533 19.1089 57.0251 19.1182 56.9931C19.1274 56.9611 19.1259 56.927 19.1141 56.8958C19.1022 56.8647 19.0805 56.8382 19.0523 56.8202Z" fill="black"/>
<path d="M22.2003 3.52221C22.2219 3.52773 22.2445 3.52773 22.266 3.52221C22.6354 3.3593 23.0089 3.20045 23.3906 3.04568C23.4094 3.03811 23.4264 3.02691 23.4407 3.01271C23.455 2.99852 23.4664 2.98163 23.474 2.96304C23.4817 2.94445 23.4855 2.92453 23.4853 2.90445C23.485 2.88437 23.4808 2.86453 23.4727 2.84611C23.4651 2.82751 23.4538 2.8106 23.4395 2.7964C23.4252 2.78219 23.4082 2.77096 23.3894 2.76337C23.3707 2.75578 23.3506 2.75199 23.3304 2.75221C23.3102 2.75243 23.2902 2.75666 23.2716 2.76465C22.8899 2.91535 22.5123 3.07827 22.1388 3.24525C22.1013 3.26215 22.0721 3.29302 22.0575 3.33115C22.0429 3.36929 22.0441 3.41161 22.0608 3.4489C22.0757 3.47205 22.0963 3.49097 22.1208 3.50382C22.1453 3.51667 22.1727 3.523 22.2003 3.52221Z" fill="black"/>
<path d="M28.1065 60.4329C27.6961 60.3474 27.3103 60.2496 26.9203 60.1437C26.8806 60.1338 26.8386 60.1397 26.8032 60.1603C26.7679 60.1809 26.7421 60.2144 26.7315 60.2537C26.7259 60.273 26.7243 60.2931 26.7266 60.313C26.729 60.3329 26.7353 60.3522 26.7452 60.3696C26.7552 60.3871 26.7685 60.4024 26.7845 60.4146C26.8005 60.4269 26.8187 60.4359 26.8383 60.4411C27.2487 60.547 27.6345 60.6447 28.0409 60.7343H28.0696C28.1057 60.7344 28.1407 60.7223 28.169 60.7001C28.1973 60.678 28.2173 60.647 28.2256 60.6121C28.2319 60.5729 28.2232 60.5327 28.2012 60.4996C28.1791 60.4664 28.1454 60.4426 28.1065 60.4329Z" fill="black"/>
<path d="M21.1989 57.9932C20.8336 57.814 20.4724 57.6226 20.1112 57.4271C20.0934 57.4137 20.0728 57.4043 20.0509 57.3995C20.029 57.3947 20.0063 57.3947 19.9844 57.3994C19.9625 57.404 19.9419 57.4134 19.9239 57.4267C19.906 57.44 19.8911 57.457 19.8804 57.4765C19.8696 57.4961 19.8633 57.5177 19.8617 57.5398C19.8601 57.562 19.8634 57.5843 19.8713 57.6051C19.8792 57.6259 19.8915 57.6448 19.9074 57.6605C19.9233 57.6762 19.9424 57.6882 19.9635 57.6959C20.3247 57.8968 20.69 58.0883 21.0594 58.2702C21.0811 58.2739 21.1033 58.2739 21.1251 58.2702C21.1545 58.27 21.1834 58.262 21.2087 58.247C21.234 58.2319 21.2547 58.2104 21.2687 58.1847C21.2815 58.1497 21.2815 58.1114 21.2688 58.0764C21.256 58.0414 21.2313 58.012 21.1989 57.9932Z" fill="black"/>
<path d="M23.4357 58.9951C23.0539 58.8404 22.6763 58.6815 22.3069 58.5145C22.2692 58.499 22.227 58.4984 22.1888 58.5128C22.1507 58.5272 22.1195 58.5555 22.1017 58.5919C22.0929 58.6103 22.0879 58.6302 22.087 58.6506C22.0862 58.6709 22.0895 58.6912 22.0968 58.7103C22.1041 58.7293 22.1152 58.7467 22.1294 58.7613C22.1437 58.776 22.1608 58.7876 22.1797 58.7956C22.5532 58.9625 22.9349 59.1255 23.3166 59.2762C23.3356 59.28 23.3551 59.28 23.3741 59.2762C23.4048 59.2768 23.4349 59.2681 23.4606 59.2514C23.4862 59.2347 23.5061 59.2107 23.5177 59.1825C23.5303 59.1467 23.5288 59.1076 23.5136 59.0729C23.4984 59.0382 23.4705 59.0104 23.4357 58.9951Z" fill="black"/>
<path d="M36.5618 0.895125C36.9723 0.919562 37.3827 0.952145 37.7932 0.992874C37.8316 0.99221 37.8685 0.977855 37.8971 0.952431C37.9258 0.927007 37.9442 0.892211 37.9492 0.854396C37.9526 0.813966 37.9399 0.773813 37.9138 0.74258C37.8877 0.711348 37.8503 0.691533 37.8096 0.687406C37.3992 0.646677 36.9887 0.614094 36.5783 0.589657C36.5579 0.587389 36.5372 0.589363 36.5176 0.595452C36.498 0.601541 36.4799 0.611614 36.4645 0.625025C36.4491 0.638436 36.4366 0.654894 36.4279 0.673348C36.4192 0.691802 36.4145 0.711846 36.4141 0.732208C36.4124 0.752662 36.4149 0.773243 36.4216 0.792687C36.4282 0.81213 36.4387 0.830028 36.4526 0.845282C36.4664 0.860536 36.4832 0.872825 36.502 0.881396C36.5208 0.889967 36.5412 0.894638 36.5618 0.895125Z" fill="black"/>
<path d="M35.3964 61.1537C35.0311 61.1537 34.6658 61.1537 34.3005 61.1537H34.1733C34.1326 61.1526 34.0931 61.1673 34.0631 61.1947C34.0332 61.2221 34.0153 61.26 34.0132 61.3004C34.0131 61.3411 34.0289 61.3803 34.0571 61.4099C34.0854 61.4395 34.124 61.4571 34.165 61.4592H34.2923C34.6672 61.4592 35.0366 61.4592 35.4005 61.4592C35.421 61.4587 35.4412 61.4541 35.4599 61.4459C35.4786 61.4376 35.4955 61.4258 35.5096 61.411C35.5237 61.3963 35.5348 61.3789 35.5421 61.3599C35.5494 61.3409 35.5529 61.3207 35.5524 61.3004C35.553 61.2802 35.5494 61.2602 35.5417 61.2416C35.5339 61.2229 35.5223 61.2061 35.5076 61.1923C35.4929 61.1784 35.4753 61.1678 35.4562 61.1612C35.437 61.1545 35.4166 61.152 35.3964 61.1537Z" fill="black"/>
<path d="M29.2192 1.34319H29.252C29.6515 1.26988 30.0538 1.20471 30.4587 1.14769C30.4987 1.14163 30.5347 1.1204 30.5592 1.08849C30.5838 1.05658 30.5948 1.01647 30.5901 0.976629C30.5876 0.956363 30.581 0.936808 30.5707 0.919152C30.5603 0.901496 30.5465 0.886106 30.53 0.873918C30.5135 0.86173 30.4947 0.852996 30.4747 0.848248C30.4546 0.8435 30.4339 0.842837 30.4136 0.846297C30.0031 0.903317 29.5927 0.968482 29.1822 1.04179C29.1421 1.04969 29.1068 1.0729 29.0837 1.10642C29.0607 1.13993 29.0519 1.18108 29.0591 1.221C29.0668 1.2569 29.0872 1.28889 29.1165 1.31128C29.1458 1.33366 29.1822 1.34497 29.2192 1.34319Z" fill="black"/>
<path d="M37.8384 61.0112C37.4362 61.052 37.0257 61.0845 36.6071 61.109C36.5867 61.11 36.5668 61.1151 36.5485 61.1239C36.5302 61.1327 36.5139 61.1451 36.5005 61.1602C36.4871 61.1754 36.4769 61.1932 36.4705 61.2123C36.4641 61.2315 36.4617 61.2518 36.4634 61.2719C36.4655 61.3104 36.4824 61.3467 36.5107 61.3732C36.5389 61.3998 36.5764 61.4145 36.6153 61.4144C37.0257 61.39 37.4362 61.3574 37.8466 61.3167C37.8666 61.3147 37.886 61.3087 37.9037 61.2992C37.9213 61.2897 37.9369 61.2768 37.9495 61.2613C37.9621 61.2457 37.9715 61.2279 37.9771 61.2087C37.9826 61.1896 37.9844 61.1695 37.9821 61.1497C37.98 61.1129 37.9641 61.0783 37.9375 61.0526C37.9109 61.027 37.8755 61.0122 37.8384 61.0112Z" fill="black"/>
<path d="M34.1733 0.846239C34.5468 0.846239 34.9244 0.846239 35.302 0.846239H35.3964C35.4165 0.847348 35.4366 0.844375 35.4555 0.837504C35.4744 0.830634 35.4916 0.820009 35.5062 0.806282C35.5208 0.792554 35.5325 0.776015 35.5404 0.757673C35.5483 0.739331 35.5524 0.719575 35.5524 0.699615C35.5529 0.679288 35.5494 0.659053 35.5421 0.640068C35.5348 0.621082 35.5237 0.603718 35.5096 0.588967C35.4955 0.574216 35.4786 0.562366 35.4599 0.554096C35.4412 0.545826 35.421 0.541299 35.4005 0.540771H35.3102C34.9285 0.540771 34.5468 0.540771 34.165 0.540771C34.1244 0.541833 34.0858 0.558605 34.0574 0.587516C34.029 0.616427 34.0132 0.655189 34.0132 0.695541C34.0137 0.715868 34.0183 0.73589 34.0266 0.754466C34.0349 0.773042 34.0469 0.789807 34.0618 0.803802C34.0766 0.817797 34.0941 0.828747 34.1133 0.836028C34.1324 0.84331 34.1528 0.846781 34.1733 0.846239Z" fill="black"/>
<path d="M30.516 60.8687C30.1055 60.8117 29.695 60.7465 29.3051 60.6732C29.2851 60.6691 29.2644 60.6692 29.2444 60.6734C29.2244 60.6777 29.2055 60.686 29.1889 60.6979C29.1724 60.7097 29.1584 60.7249 29.148 60.7424C29.1377 60.7598 29.131 60.7793 29.1286 60.7994C29.1245 60.819 29.1244 60.8392 29.1285 60.8588C29.1325 60.8784 29.1405 60.897 29.1521 60.9134C29.1636 60.9298 29.1784 60.9437 29.1955 60.9542C29.2127 60.9647 29.2318 60.9717 29.2518 60.9746C29.654 61.0479 30.0645 61.113 30.4831 61.1701C30.5209 61.1695 30.5573 61.1558 30.5859 61.1312C30.6144 61.1066 30.6333 61.0727 30.6391 61.0357C30.6429 60.9977 30.6325 60.9596 30.6098 60.9287C30.587 60.8979 30.5536 60.8765 30.516 60.8687Z" fill="black"/>
<path d="M32.9501 61.109C32.5397 61.0846 32.1292 61.052 31.7188 61.0113C31.6972 61.0063 31.6749 61.0059 31.6532 61.0101C31.6315 61.0143 31.611 61.0231 31.593 61.0358C31.575 61.0485 31.5599 61.0648 31.5487 61.0838C31.5376 61.1027 31.5306 61.1237 31.5282 61.1456C31.5259 61.1674 31.5282 61.1894 31.5351 61.2102C31.542 61.2311 31.5533 61.2502 31.5682 61.2664C31.5831 61.2826 31.6013 61.2954 31.6216 61.3041C31.6419 61.3128 31.6638 61.3171 31.6859 61.3167C32.0964 61.3575 32.5068 61.39 32.9173 61.4145C32.9538 61.4085 32.987 61.3899 33.0109 61.3619C33.0349 61.334 33.048 61.2984 33.048 61.2617C33.048 61.225 33.0349 61.1895 33.0109 61.1615C32.987 61.1335 32.9538 61.1149 32.9173 61.109H32.9501Z" fill="black"/>
<path d="M31.6981 0.996991C32.1086 0.956262 32.519 0.923679 32.9295 0.899242C32.9701 0.89611 33.008 0.877303 33.0348 0.846851C33.0617 0.8164 33.0754 0.776725 33.0732 0.736325C33.0721 0.716158 33.067 0.696404 33.0581 0.678233C33.0493 0.660062 33.0368 0.643844 33.0215 0.630547C33.0062 0.61725 32.9883 0.607142 32.969 0.600825C32.9497 0.594507 32.9292 0.592111 32.909 0.593774C32.4958 0.618211 32.0853 0.650794 31.6776 0.691523C31.6571 0.693553 31.6372 0.699605 31.619 0.709325C31.6009 0.719045 31.5848 0.732239 31.5719 0.748149C31.5589 0.764058 31.5492 0.782366 31.5434 0.802009C31.5376 0.821652 31.5358 0.84224 31.5381 0.862584C31.5422 0.901112 31.5612 0.936575 31.591 0.961604C31.6208 0.986633 31.6592 0.999305 31.6981 0.996991Z" fill="black"/>
<path d="M60.6146 14.906C60.3273 14.3277 59.6255 14.3154 57.5404 14.2747H57.5034L56.4978 14.2543H56.19C53.3948 14.2543 50.3328 15.1911 47.0944 16.1768H47.0574C45.9328 16.5189 44.7671 16.8732 43.5809 17.1991C43.0391 17.3498 42.1854 17.5615 41.1921 17.8059C39.1398 18.315 36.5581 18.9504 35.3513 19.3862V19.2681C35.3513 19.1092 35.3801 18.9423 35.3883 18.7793C35.3965 18.6164 35.3883 18.5309 35.4088 18.372C35.4088 17.9322 35.4334 17.3335 35.4416 16.9017H35.4745H35.5319H35.5607C35.5893 16.9056 35.6183 16.9056 35.6469 16.9017H35.7659H35.8808H35.9998H36.1148H36.1928L36.3405 16.8692C36.6276 16.7845 36.9033 16.6655 37.1614 16.5148L37.3584 16.4008L37.5514 16.2786L37.6827 16.189C37.7607 16.136 37.8428 16.0831 37.9208 16.022C38.41 15.6772 38.8787 15.3046 39.3245 14.906C38.8761 15.3036 38.4046 15.6749 37.9125 16.0179C37.8387 16.0749 37.7566 16.1238 37.6745 16.1768L37.539 16.2623L37.3461 16.3723C37.2843 16.4118 37.2198 16.4472 37.1532 16.4781C36.895 16.6207 36.619 16.7289 36.3323 16.7999C36.2872 16.7999 36.2379 16.7999 36.1928 16.8243H36.1189H36.0122H35.9054H35.7987H35.6961H35.6222H35.5935H35.5442H35.5155H35.495V16.7673C35.495 14.3236 35.064 14.0833 34.8998 13.9978L34.8095 13.9692L34.7233 13.9937C34.5756 14.0711 34.2267 14.2584 34.1446 15.9405C34.0903 15.9305 34.0355 15.9237 33.9804 15.9202H33.923C33.7844 15.9206 33.6465 15.9383 33.5125 15.9731C33.356 16.0149 33.2066 16.0794 33.0692 16.1645C32.9202 16.2555 32.8005 16.387 32.7244 16.5433C32.6854 16.6265 32.6631 16.7164 32.6588 16.8081C32.6588 16.8488 32.6588 16.8936 32.6588 16.9343C32.6588 16.975 32.6588 17.0117 32.6588 17.0565C32.7112 17.2121 32.7844 17.36 32.8763 17.4964C32.9587 17.6267 33.0492 17.7518 33.1472 17.8711C33.3894 18.1725 33.6438 18.4657 33.8901 18.7468C33.9845 18.8608 34.083 18.9708 34.1815 19.0848C34.1815 19.1785 34.1815 19.2681 34.1815 19.3618V19.4514C32.9748 19.0156 30.4054 18.3802 28.3408 17.8711C27.3475 17.6267 26.4897 17.4149 25.952 17.2642C24.7617 16.9384 23.596 16.584 22.4714 16.2378H22.4508C19.2083 15.2481 16.1381 14.3114 13.3388 14.3114H13.0556L12.0459 14.3317H12.0089C9.92383 14.3725 9.22196 14.3847 8.93465 14.963C8.49546 15.8428 9.65704 17.2805 12.5959 19.4921C12.6862 19.5613 12.7806 19.6306 12.8011 19.6509C15.5881 22.0947 19.1426 22.6608 25.0285 23.6017H25.1229C26.0053 23.7401 26.9206 23.8868 27.9057 24.0538C28.2537 24.1183 28.6066 24.1523 28.9606 24.1556C29.339 24.1565 29.7159 24.1072 30.0811 24.009C31.245 23.6631 32.282 22.9879 33.0651 22.0662C33.4058 21.6804 33.7199 21.2722 34.005 20.8443L34.0338 20.7995L34.2554 20.4859C34.2554 20.6651 34.2554 20.8443 34.2554 21.0235C34.2554 21.1213 34.2554 21.219 34.2554 21.3168V21.6711C33.845 23.7442 33.2211 25.3367 32.47 26.3916C31.136 28.2651 29.1453 29.4585 26.5553 29.9391C24.5626 30.3609 22.4951 30.2797 20.5422 29.7029C17.784 28.8883 15.6702 27.2958 14.8698 26.1513C14.4593 25.5892 14.3362 25.1657 14.4593 24.8846C14.6522 24.3674 15.6496 24.2045 16.7045 24.0334C17.5502 23.8912 18.4093 23.8434 19.2657 23.8908C20.4563 23.9674 21.6304 24.2073 22.7546 24.6036L23.009 24.681L23.1034 24.7013L24.0967 24.9294C24.4333 25.0027 24.815 25.0883 25.2009 25.1453H25.2994H25.3691L25.7796 25.1942L26.3378 25.243C26.7129 25.2782 27.0898 25.2918 27.4665 25.2838C27.8475 25.2731 28.2267 25.2281 28.5994 25.1494C28.7718 25.1168 28.9442 25.072 29.1125 25.0312C29.2807 24.9905 29.4942 24.9335 29.6789 24.905C29.8368 24.8696 30.0016 24.8781 30.155 24.9294C30.2975 24.9885 30.412 25.0992 30.4752 25.239C30.5474 25.3825 30.5718 25.5451 30.5449 25.7033C30.5108 25.8649 30.4328 26.0143 30.3192 26.135C30.075 26.3781 29.7885 26.5754 29.4737 26.7174C29.3259 26.7907 29.1617 26.8641 28.9729 26.9414C28.7841 27.0188 28.6281 27.0759 28.4557 27.1329C27.7777 27.3545 27.0681 27.4659 26.3542 27.4628H26.2886C25.5509 27.4585 24.8188 27.3346 24.1214 27.0962C23.4178 26.8525 22.7571 26.5007 22.1635 26.0535C22.7487 26.5175 23.4039 26.8872 24.1049 27.1492C24.8086 27.4013 25.5488 27.5389 26.2968 27.5564C27.0491 27.5849 27.801 27.4886 28.5214 27.2713C28.702 27.2184 28.8744 27.1532 29.055 27.0881C29.2356 27.0229 29.4203 26.9455 29.5763 26.8722C29.7494 26.7944 29.9167 26.7046 30.077 26.6034C30.244 26.4994 30.3971 26.3749 30.5326 26.2328C30.6366 26.1212 30.7188 25.9914 30.7748 25.8499C30.7972 25.8056 30.8151 25.7592 30.8282 25.7114C30.8713 25.4981 30.844 25.2767 30.7502 25.0801C30.6627 24.8758 30.4996 24.7126 30.2946 24.624C30.0963 24.5526 29.8829 24.533 29.6748 24.5669C29.4942 24.5914 29.3218 24.6321 29.1576 24.6688H29.1166C28.9483 24.7095 28.7677 24.7502 28.5789 24.7828C28.2268 24.8472 27.8697 24.8813 27.5117 24.8846H27.4707C27.1153 24.8798 26.7605 24.8567 26.4076 24.8154L25.8617 24.7543L25.4512 24.6973H25.4061H25.3199C24.9751 24.6362 24.6303 24.5547 24.2486 24.461L23.2635 24.2126L23.1814 24.1882L22.9352 24.1108C21.777 23.7068 20.5687 23.4616 19.3437 23.3817C18.4517 23.3321 17.5568 23.3813 16.6758 23.5283C15.4444 23.732 14.3649 23.9071 14.0776 24.6688C13.9134 25.1046 14.0776 25.6585 14.5619 26.359C15.4321 27.6094 17.5993 29.2508 20.4766 30.0898C21.6231 30.431 22.8135 30.6052 24.0105 30.6071C24.9134 30.6015 25.8137 30.5101 26.699 30.3342C29.408 29.8332 31.4931 28.5788 32.8968 26.6034C33.5513 25.6202 34.0393 24.5375 34.3416 23.398C34.3621 25.8418 34.4073 35.1035 34.4319 40.0969C34.4319 41.832 34.4319 43.0864 34.4319 43.2779C34.4319 43.343 34.5345 50.0104 34.7644 50.3036C34.9942 50.0104 35.0968 43.343 35.0968 43.2779C35.0968 43.0864 35.0968 41.8523 35.0968 40.1377C35.1215 35.128 35.1707 25.8418 35.1872 23.3899C35.4749 24.5302 35.9551 25.6139 36.6073 26.5952C38.0111 28.5706 40.1003 29.8251 42.8092 30.326C43.6931 30.5023 44.5921 30.5936 45.4936 30.5989C46.6906 30.5974 47.8811 30.4232 49.0276 30.0816C51.9008 29.2426 54.072 27.6013 54.9463 26.3509C55.4347 25.6503 55.5907 25.0964 55.4265 24.6606C55.1392 23.899 54.0679 23.7238 52.8284 23.5202C51.9473 23.373 51.0525 23.3238 50.1604 23.3736C49.2213 23.4445 48.2932 23.6208 47.394 23.899C47.0615 23.9927 46.7208 24.0904 46.3473 24.1759C46.2447 24.1963 46.0887 24.2411 45.8958 24.2981C44.5496 24.7054 40.9704 25.7196 38.3066 24.3348C37.3711 23.8999 36.565 23.232 35.967 22.3961C35.6683 21.9533 35.4283 21.4742 35.2528 20.9706V20.4126L35.2857 20.4574L35.3719 20.5755L35.495 20.7547C35.7842 21.1818 36.1009 21.5899 36.4431 21.9766C37.2246 22.9001 38.2622 23.5756 39.4271 23.9193C39.7909 24.0179 40.1664 24.0672 40.5435 24.066C40.8988 24.0624 41.2531 24.0283 41.6025 23.9642C42.5917 23.7972 43.5111 23.6505 44.4018 23.508H44.4798C50.3616 22.5671 53.9202 21.9969 56.703 19.5573C56.7236 19.5369 56.8139 19.4717 56.9124 19.3984C59.8923 17.2194 61.0538 15.7817 60.6146 14.906ZM34.0912 18.4454C33.845 18.1766 33.5905 17.8996 33.3565 17.6308C33.2786 17.5371 33.1759 17.4149 33.0897 17.2887C33.0065 17.1772 32.9414 17.0535 32.8968 16.9221C32.8516 16.8097 32.8516 16.6843 32.8968 16.5718C32.9506 16.457 33.036 16.3596 33.1431 16.2908C33.2571 16.2134 33.3833 16.1556 33.5166 16.1197C33.6494 16.0784 33.7879 16.0578 33.9271 16.0586C33.9803 16.053 34.0339 16.053 34.0871 16.0586C34.0871 16.2541 34.0871 16.4659 34.0871 16.6736C34.0871 16.6736 34.0871 17.7082 34.1282 18.368C34.1262 18.391 34.1262 18.4142 34.1282 18.4372V18.4779L34.0912 18.4454ZM33.7218 20.4818V20.5022C33.4277 20.9158 33.1054 21.3091 32.7573 21.6793C32.0353 22.526 31.0816 23.1471 30.0114 23.4673C29.3617 23.6285 28.6835 23.6397 28.0289 23.4998L25.1557 23.0315C19.3478 22.1028 15.8467 21.5448 13.1541 19.1866L12.9201 19.0074C9.31226 16.2908 9.2548 15.3418 9.39846 15.0486C9.54211 14.7553 10.2973 14.7064 12.0746 14.6698L13.1213 14.6453H13.4127C16.1463 14.6453 19.1836 15.574 22.3934 16.5515C23.5262 16.8977 24.7001 17.2561 25.9068 17.5901C26.4445 17.7367 27.286 17.9444 28.2628 18.1847H28.308C30.3602 18.6897 33.1677 19.3862 34.2595 19.8139C34.0502 20.0582 33.8942 20.2659 33.7218 20.4981V20.4818ZM34.908 18.8527C34.9031 18.8864 34.8934 18.9193 34.8793 18.9504C34.8685 18.9983 34.849 19.0438 34.8218 19.0848C34.789 19.1255 34.7644 19.1255 34.7315 19.0848C34.7064 19.0428 34.6871 18.9976 34.6741 18.9504C34.66 18.9193 34.6503 18.8864 34.6454 18.8527C34.5096 18.0859 34.4369 17.3095 34.4278 16.5311C34.4278 16.4008 34.4278 16.2704 34.4278 16.1442C34.5192 16.1946 34.6058 16.2532 34.6864 16.3193L34.8588 16.4659L35.0271 16.6126L35.1215 16.6859C35.1086 17.4234 35.0372 18.1588 34.908 18.8852V18.8527ZM34.9737 16.3356L34.8054 16.1808C34.6943 16.0824 34.5717 15.9976 34.4401 15.9283C34.4935 15.0363 34.6577 14.4376 34.7726 14.4376C34.8875 14.4376 35.1174 15.2889 35.1256 16.4741L34.9737 16.3356ZM35.6058 22.6405C36.2481 23.5371 37.1116 24.2551 38.1137 24.7258C40.9294 26.192 44.6357 25.1331 46.0313 24.7258C46.2242 24.6688 46.3761 24.624 46.4705 24.6036C46.8809 24.5181 47.2093 24.4162 47.55 24.3185C48.4193 24.0473 49.3173 23.8765 50.2261 23.8094C51.0839 23.7619 51.9443 23.8097 52.7914 23.9519C53.8463 24.123 54.8437 24.2859 55.0366 24.8032C55.1433 25.0842 54.9997 25.5078 54.6262 26.0698C53.8052 27.2143 51.7078 28.815 48.9537 29.6214C47.0008 30.1982 44.9333 30.2795 42.9406 29.8576C40.3465 29.377 38.3599 28.1837 37.026 26.3101C36.2554 25.1089 35.7207 23.774 35.4498 22.3757C35.4964 22.4898 35.5483 22.5889 35.6058 22.673V22.6405ZM56.6866 19.0319C56.543 19.1378 56.4855 19.1826 56.4527 19.2111C53.7642 21.5693 50.2589 22.1273 44.4511 23.0559C43.544 23.1984 42.5999 23.3491 41.5779 23.5202C40.9233 23.66 40.245 23.6489 39.5954 23.4876C38.5226 23.1658 37.5663 22.5436 36.8413 21.6955V21.6752C36.4908 21.3031 36.1671 20.9071 35.8726 20.49L35.7536 20.3352C35.6386 20.1804 35.5196 20.0256 35.3842 19.8546C36.476 19.4473 39.2876 18.7345 41.3398 18.2254H41.385C42.3577 17.9851 43.2033 17.7774 43.7369 17.6308C44.9682 17.2968 46.1175 16.9384 47.2503 16.5922C50.4601 15.6147 53.4974 14.6861 56.2351 14.6861H56.5224L57.5691 14.7105C59.3463 14.7472 60.0852 14.7594 60.2493 15.0893C60.4135 15.4192 60.2945 16.3478 56.6866 19.0644V19.0319Z" fill="white"/>
<path d="M87.0354 29V17.64H91.7074C92.1874 17.64 92.6247 17.7413 93.0194 17.944C93.4247 18.1467 93.7767 18.4187 94.0754 18.76C94.374 19.0907 94.6034 19.464 94.7634 19.88C94.934 20.296 95.0194 20.7227 95.0194 21.16C95.0194 21.768 94.8807 22.344 94.6034 22.888C94.3367 23.4213 93.9634 23.8587 93.4834 24.2C93.014 24.5413 92.454 24.712 91.8034 24.712H87.8514V29H87.0354ZM87.8514 23.96H91.7714C92.2727 23.96 92.7047 23.8267 93.0674 23.56C93.43 23.2933 93.7074 22.9467 93.8994 22.52C94.0914 22.0933 94.1874 21.64 94.1874 21.16C94.1874 20.6587 94.07 20.2 93.8354 19.784C93.6114 19.3573 93.3074 19.016 92.9234 18.76C92.55 18.504 92.134 18.376 91.6754 18.376H87.8514V23.96ZM102.141 29.08C101.352 29.08 100.632 28.92 99.9809 28.6C99.3302 28.2693 98.7702 27.832 98.3009 27.288C97.8315 26.744 97.4689 26.1307 97.2129 25.448C96.9569 24.7547 96.8289 24.0453 96.8289 23.32C96.8289 22.5627 96.9622 21.8427 97.2289 21.16C97.4955 20.4667 97.8689 19.8533 98.3489 19.32C98.8395 18.776 99.4049 18.3493 100.045 18.04C100.696 17.72 101.4 17.56 102.157 17.56C102.957 17.56 103.677 17.7253 104.317 18.056C104.968 18.3867 105.528 18.8293 105.997 19.384C106.466 19.9387 106.829 20.5573 107.085 21.24C107.341 21.9227 107.469 22.616 107.469 23.32C107.469 24.088 107.336 24.8187 107.069 25.512C106.802 26.1947 106.424 26.808 105.933 27.352C105.453 27.8853 104.888 28.3067 104.237 28.616C103.597 28.9253 102.898 29.08 102.141 29.08ZM97.6449 23.32C97.6449 23.9707 97.7569 24.5947 97.9809 25.192C98.2049 25.7893 98.5142 26.3227 98.9089 26.792C99.3142 27.2613 99.7889 27.6347 100.333 27.912C100.888 28.1893 101.496 28.328 102.157 28.328C102.829 28.328 103.442 28.184 103.997 27.896C104.552 27.608 105.026 27.224 105.421 26.744C105.816 26.264 106.114 25.7307 106.317 25.144C106.53 24.5467 106.637 23.9387 106.637 23.32C106.637 22.6693 106.525 22.0453 106.301 21.448C106.088 20.8507 105.778 20.3173 105.373 19.848C104.968 19.3787 104.488 19.0053 103.933 18.728C103.389 18.4507 102.797 18.312 102.157 18.312C101.474 18.312 100.856 18.456 100.301 18.744C99.7462 19.032 99.2715 19.416 98.8769 19.896C98.4929 20.376 98.1889 20.9147 97.9649 21.512C97.7515 22.0987 97.6449 22.7013 97.6449 23.32ZM110.3 29V17.64H114.076C115.281 17.64 116.278 17.896 117.068 18.408C117.868 18.9093 118.465 19.592 118.86 20.456C119.265 21.3093 119.468 22.2587 119.468 23.304C119.468 24.456 119.249 25.4587 118.812 26.312C118.374 27.1653 117.75 27.8267 116.94 28.296C116.129 28.7653 115.174 29 114.076 29H110.3ZM118.652 23.304C118.652 22.3547 118.47 21.5067 118.108 20.76C117.756 20.0133 117.238 19.432 116.556 19.016C115.884 18.5893 115.057 18.376 114.076 18.376H111.116V28.264H114.076C115.068 28.264 115.905 28.0453 116.588 27.608C117.27 27.1707 117.782 26.5787 118.124 25.832C118.476 25.0747 118.652 24.232 118.652 23.304ZM126.874 29.08C126.085 29.08 125.365 28.92 124.714 28.6C124.063 28.2693 123.503 27.832 123.034 27.288C122.565 26.744 122.202 26.1307 121.946 25.448C121.69 24.7547 121.562 24.0453 121.562 23.32C121.562 22.5627 121.695 21.8427 121.962 21.16C122.229 20.4667 122.602 19.8533 123.082 19.32C123.573 18.776 124.138 18.3493 124.778 18.04C125.429 17.72 126.133 17.56 126.89 17.56C127.69 17.56 128.41 17.7253 129.05 18.056C129.701 18.3867 130.261 18.8293 130.73 19.384C131.199 19.9387 131.562 20.5573 131.818 21.24C132.074 21.9227 132.202 22.616 132.202 23.32C132.202 24.088 132.069 24.8187 131.802 25.512C131.535 26.1947 131.157 26.808 130.666 27.352C130.186 27.8853 129.621 28.3067 128.97 28.616C128.33 28.9253 127.631 29.08 126.874 29.08ZM122.378 23.32C122.378 23.9707 122.49 24.5947 122.714 25.192C122.938 25.7893 123.247 26.3227 123.642 26.792C124.047 27.2613 124.522 27.6347 125.066 27.912C125.621 28.1893 126.229 28.328 126.89 28.328C127.562 28.328 128.175 28.184 128.73 27.896C129.285 27.608 129.759 27.224 130.154 26.744C130.549 26.264 130.847 25.7307 131.05 25.144C131.263 24.5467 131.37 23.9387 131.37 23.32C131.37 22.6693 131.258 22.0453 131.034 21.448C130.821 20.8507 130.511 20.3173 130.106 19.848C129.701 19.3787 129.221 19.0053 128.666 18.728C128.122 18.4507 127.53 18.312 126.89 18.312C126.207 18.312 125.589 18.456 125.034 18.744C124.479 19.032 124.005 19.416 123.61 19.896C123.226 20.376 122.922 20.9147 122.698 21.512C122.485 22.0987 122.378 22.7013 122.378 23.32ZM135.033 29V17.64H139.705C140.185 17.64 140.622 17.7413 141.017 17.944C141.422 18.1467 141.774 18.4187 142.073 18.76C142.372 19.0907 142.601 19.464 142.761 19.88C142.932 20.296 143.017 20.7227 143.017 21.16C143.017 21.768 142.878 22.344 142.601 22.888C142.334 23.4213 141.961 23.8587 141.481 24.2C141.012 24.5413 140.452 24.712 139.801 24.712H135.849V29H135.033ZM135.849 23.96H139.769C140.27 23.96 140.702 23.8267 141.065 23.56C141.428 23.2933 141.705 22.9467 141.897 22.52C142.089 22.0933 142.185 21.64 142.185 21.16C142.185 20.6587 142.068 20.2 141.833 19.784C141.609 19.3573 141.305 19.016 140.921 18.76C140.548 18.504 140.132 18.376 139.673 18.376H135.849V23.96ZM145.61 29V17.64H150.33C150.821 17.64 151.264 17.7413 151.658 17.944C152.064 18.1467 152.41 18.4187 152.698 18.76C152.997 19.0907 153.226 19.464 153.386 19.88C153.557 20.296 153.642 20.7227 153.642 21.16C153.642 21.7253 153.53 22.2533 153.306 22.744C153.082 23.2347 152.768 23.6453 152.362 23.976C151.968 24.3067 151.504 24.5093 150.97 24.584L153.802 29H152.858L150.106 24.712H146.426V29H145.61ZM146.426 23.96H150.41C150.901 23.96 151.328 23.8267 151.69 23.56C152.053 23.2933 152.33 22.9467 152.522 22.52C152.725 22.0933 152.826 21.64 152.826 21.16C152.826 20.6693 152.709 20.216 152.474 19.8C152.25 19.3733 151.946 19.032 151.562 18.776C151.189 18.5093 150.768 18.376 150.298 18.376H146.426V23.96ZM156.641 29V17.64H157.457V29H156.641ZM165.622 29.08C164.854 29.08 164.145 28.9147 163.494 28.584C162.843 28.2533 162.278 27.816 161.798 27.272C161.318 26.7173 160.945 26.0987 160.678 25.416C160.422 24.7227 160.294 24.0187 160.294 23.304C160.294 22.5573 160.422 21.8427 160.678 21.16C160.934 20.4667 161.297 19.8533 161.766 19.32C162.235 18.776 162.79 18.3493 163.43 18.04C164.07 17.72 164.769 17.56 165.526 17.56C166.657 17.56 167.569 17.7947 168.262 18.264C168.966 18.7227 169.499 19.3147 169.862 20.04L169.19 20.44C168.806 19.6933 168.294 19.1547 167.654 18.824C167.025 18.4827 166.31 18.312 165.51 18.312C164.838 18.312 164.23 18.456 163.686 18.744C163.142 19.0213 162.678 19.4 162.294 19.88C161.91 20.3493 161.617 20.8827 161.414 21.48C161.211 22.0773 161.11 22.6907 161.11 23.32C161.11 23.992 161.227 24.6267 161.462 25.224C161.697 25.8213 162.022 26.3547 162.438 26.824C162.854 27.2933 163.339 27.6613 163.894 27.928C164.449 28.1947 165.041 28.328 165.67 28.328C166.406 28.328 167.099 28.152 167.75 27.8C168.401 27.4373 169.025 26.872 169.622 26.104V27.016C168.491 28.392 167.158 29.08 165.622 29.08ZM169.446 24.136H166.87V23.48H170.15V29H169.446V24.136ZM177.715 29.08C176.925 29.08 176.205 28.92 175.555 28.6C174.904 28.2693 174.344 27.832 173.875 27.288C173.405 26.744 173.043 26.1307 172.787 25.448C172.531 24.7547 172.403 24.0453 172.403 23.32C172.403 22.5627 172.536 21.8427 172.803 21.16C173.069 20.4667 173.443 19.8533 173.923 19.32C174.413 18.776 174.979 18.3493 175.619 18.04C176.269 17.72 176.973 17.56 177.731 17.56C178.531 17.56 179.251 17.7253 179.891 18.056C180.541 18.3867 181.101 18.8293 181.571 19.384C182.04 19.9387 182.403 20.5573 182.659 21.24C182.915 21.9227 183.043 22.616 183.043 23.32C183.043 24.088 182.909 24.8187 182.643 25.512C182.376 26.1947 181.997 26.808 181.507 27.352C181.027 27.8853 180.461 28.3067 179.811 28.616C179.171 28.9253 178.472 29.08 177.715 29.08ZM173.219 23.32C173.219 23.9707 173.331 24.5947 173.555 25.192C173.779 25.7893 174.088 26.3227 174.483 26.792C174.888 27.2613 175.363 27.6347 175.907 27.912C176.461 28.1893 177.069 28.328 177.731 28.328C178.403 28.328 179.016 28.184 179.571 27.896C180.125 27.608 180.6 27.224 180.995 26.744C181.389 26.264 181.688 25.7307 181.891 25.144C182.104 24.5467 182.211 23.9387 182.211 23.32C182.211 22.6693 182.099 22.0453 181.875 21.448C181.661 20.8507 181.352 20.3173 180.947 19.848C180.541 19.3787 180.061 19.0053 179.507 18.728C178.963 18.4507 178.371 18.312 177.731 18.312C177.048 18.312 176.429 18.456 175.875 18.744C175.32 19.032 174.845 19.416 174.451 19.896C174.067 20.376 173.763 20.9147 173.539 21.512C173.325 22.0987 173.219 22.7013 173.219 23.32ZM185.873 29V17.64H190.593C191.084 17.64 191.527 17.7413 191.921 17.944C192.327 18.1467 192.673 18.4187 192.961 18.76C193.26 19.0907 193.489 19.464 193.649 19.88C193.82 20.296 193.905 20.7227 193.905 21.16C193.905 21.7253 193.793 22.2533 193.569 22.744C193.345 23.2347 193.031 23.6453 192.625 23.976C192.231 24.3067 191.767 24.5093 191.233 24.584L194.065 29H193.121L190.369 24.712H186.689V29H185.873ZM186.689 23.96H190.673C191.164 23.96 191.591 23.8267 191.953 23.56C192.316 23.2933 192.593 22.9467 192.785 22.52C192.988 22.0933 193.089 21.64 193.089 21.16C193.089 20.6693 192.972 20.216 192.737 19.8C192.513 19.3733 192.209 19.032 191.825 18.776C191.452 18.5093 191.031 18.376 190.561 18.376H186.689V23.96ZM200.378 17.64H201.082L205.882 29H205.018L203.434 25.256H198.01L196.426 29H195.546L200.378 17.64ZM203.21 24.584L200.73 18.632L198.202 24.584H203.21ZM90.6034 33.64H91.3074L96.1074 45H95.2434L93.6594 41.256H88.2354L86.6514 45H85.7714L90.6034 33.64ZM93.4354 40.584L90.9554 34.632L88.4274 40.584H93.4354ZM101.368 35.16V45H100.552V33.64H101.224L109.144 43.64V33.64H109.96V45H109.16L101.368 35.16ZM119.215 33.64H119.919L124.719 45H123.855L122.271 41.256H116.847L115.263 45H114.383L119.215 33.64ZM122.047 40.584L119.567 34.632L117.039 40.584H122.047ZM135.6 35.528C135.419 35.3253 135.216 35.1493 134.992 35C134.768 34.84 134.528 34.712 134.272 34.616C134.016 34.5093 133.739 34.4293 133.44 34.376C133.142 34.3227 132.822 34.296 132.48 34.296C131.371 34.296 130.56 34.5093 130.048 34.936C129.547 35.352 129.296 35.9173 129.296 36.632C129.296 37.112 129.408 37.496 129.632 37.784C129.867 38.0613 130.23 38.2853 130.72 38.456C131.211 38.6267 131.846 38.792 132.624 38.952C133.446 39.1227 134.155 39.3253 134.752 39.56C135.35 39.784 135.808 40.0933 136.128 40.488C136.459 40.8827 136.624 41.416 136.624 42.088C136.624 42.5893 136.528 43.032 136.336 43.416C136.144 43.7893 135.867 44.0987 135.504 44.344C135.142 44.5893 134.71 44.776 134.208 44.904C133.718 45.032 133.168 45.096 132.56 45.096C131.974 45.096 131.414 45.032 130.88 44.904C130.347 44.776 129.846 44.5893 129.376 44.344C128.907 44.0987 128.47 43.784 128.064 43.4L128.496 42.744C128.731 43 128.992 43.2293 129.28 43.432C129.579 43.624 129.899 43.7893 130.24 43.928C130.592 44.0667 130.966 44.1787 131.36 44.264C131.755 44.3387 132.166 44.376 132.592 44.376C133.584 44.376 134.358 44.1947 134.912 43.832C135.478 43.4587 135.76 42.9093 135.76 42.184C135.76 41.6827 135.632 41.2773 135.376 40.968C135.12 40.6587 134.726 40.408 134.192 40.216C133.659 40.0133 132.992 39.8267 132.192 39.656C131.392 39.4853 130.71 39.2933 130.144 39.08C129.59 38.8667 129.168 38.5787 128.88 38.216C128.603 37.8533 128.464 37.3627 128.464 36.744C128.464 36.0613 128.63 35.4853 128.96 35.016C129.302 34.536 129.776 34.1733 130.384 33.928C130.992 33.6827 131.691 33.56 132.48 33.56C132.971 33.56 133.424 33.608 133.84 33.704C134.267 33.8 134.656 33.9493 135.008 34.152C135.371 34.344 135.707 34.5893 136.016 34.888L135.6 35.528ZM149.289 34.376H145.129V45H144.313V34.376H140.153V33.64H149.289V34.376ZM156.235 33.64H156.939L161.739 45H160.875L159.291 41.256H153.867L152.283 45H151.403L156.235 33.64ZM159.067 40.584L156.587 34.632L154.059 40.584H159.067ZM172.62 35.528C172.438 35.3253 172.236 35.1493 172.012 35C171.788 34.84 171.548 34.712 171.292 34.616C171.036 34.5093 170.758 34.4293 170.46 34.376C170.161 34.3227 169.841 34.296 169.5 34.296C168.39 34.296 167.58 34.5093 167.068 34.936C166.566 35.352 166.316 35.9173 166.316 36.632C166.316 37.112 166.428 37.496 166.652 37.784C166.886 38.0613 167.249 38.2853 167.74 38.456C168.23 38.6267 168.865 38.792 169.644 38.952C170.465 39.1227 171.174 39.3253 171.772 39.56C172.369 39.784 172.828 40.0933 173.148 40.488C173.478 40.8827 173.644 41.416 173.644 42.088C173.644 42.5893 173.548 43.032 173.356 43.416C173.164 43.7893 172.886 44.0987 172.524 44.344C172.161 44.5893 171.729 44.776 171.228 44.904C170.737 45.032 170.188 45.096 169.58 45.096C168.993 45.096 168.433 45.032 167.9 44.904C167.366 44.776 166.865 44.5893 166.396 44.344C165.926 44.0987 165.489 43.784 165.084 43.4L165.516 42.744C165.75 43 166.012 43.2293 166.3 43.432C166.598 43.624 166.918 43.7893 167.26 43.928C167.612 44.0667 167.985 44.1787 168.38 44.264C168.774 44.3387 169.185 44.376 169.612 44.376C170.604 44.376 171.377 44.1947 171.932 43.832C172.497 43.4587 172.78 42.9093 172.78 42.184C172.78 41.6827 172.652 41.2773 172.396 40.968C172.14 40.6587 171.745 40.408 171.212 40.216C170.678 40.0133 170.012 39.8267 169.212 39.656C168.412 39.4853 167.729 39.2933 167.164 39.08C166.609 38.8667 166.188 38.5787 165.9 38.216C165.622 37.8533 165.484 37.3627 165.484 36.744C165.484 36.0613 165.649 35.4853 165.98 35.016C166.321 34.536 166.796 34.1733 167.404 33.928C168.012 33.6827 168.71 33.56 169.5 33.56C169.99 33.56 170.444 33.608 170.86 33.704C171.286 33.8 171.676 33.9493 172.028 34.152C172.39 34.344 172.726 34.5893 173.036 34.888L172.62 35.528ZM178.419 45V33.64H179.235V45H178.419ZM184.648 33.64L188.616 39.928L192.6 33.64H193.512L189.032 40.712V45H188.216V40.68L183.752 33.64H184.648ZM200.302 33.64H201.006L205.806 45H204.942L203.358 41.256H197.934L196.35 45H195.47L200.302 33.64ZM203.134 40.584L200.654 34.632L198.126 40.584H203.134Z" fill="black"/>
</svg>
