<svg width="35" height="36" viewBox="0 0 35 36" fill="none" xmlns="http://www.w3.org/2000/svg">
<path fill-rule="evenodd" clip-rule="evenodd" d="M10.3197 0.687996C12.177 0.602496 12.7692 0.583496 17.5002 0.583496C22.2312 0.583496 22.8233 0.604079 24.679 0.687996C26.5347 0.771913 27.8013 1.068 28.9097 1.49708C30.0702 1.93566 31.1232 2.62125 31.994 3.50791C32.8807 4.37716 33.5647 5.4285 34.0017 6.59066C34.4323 7.699 34.7268 8.96566 34.8123 10.8182C34.8978 12.6786 34.9168 13.2707 34.9168 18.0002C34.9168 22.7296 34.8962 23.3233 34.8123 25.1806C34.7284 27.0331 34.4323 28.2997 34.0017 29.4081C33.5645 30.5703 32.8794 31.6234 31.994 32.494C31.1232 33.3807 30.0702 34.0647 28.9097 34.5017C27.8013 34.9323 26.5347 35.2268 24.6822 35.3123C22.8233 35.3978 22.2312 35.4168 17.5002 35.4168C12.7692 35.4168 12.177 35.3962 10.3197 35.3123C8.46725 35.2284 7.20058 34.9323 6.09225 34.5017C4.93002 34.0645 3.87698 33.3794 3.00633 32.494C2.12058 31.624 1.43494 30.5715 0.99708 29.4097C0.567996 28.3013 0.273496 27.0347 0.187996 25.1822C0.102496 23.3217 0.0834961 22.7296 0.0834961 18.0002C0.0834961 13.2707 0.104079 12.677 0.187996 10.8213C0.271913 8.96566 0.567996 7.699 0.99708 6.59066C1.43541 5.42872 2.12159 4.37621 3.00791 3.50633C3.87749 2.62077 4.92943 1.93515 6.09066 1.49708C7.199 1.068 8.46725 0.773496 10.3197 0.687996ZM24.5365 3.823C22.6998 3.73908 22.1488 3.72166 17.4986 3.72166C12.8483 3.72166 12.2973 3.73908 10.4607 3.823C8.76175 3.90058 7.84025 4.184 7.22591 4.42308C6.41366 4.73975 5.83258 5.115 5.223 5.72458C4.64465 6.28633 4.19987 6.97082 3.9215 7.7275C3.68241 8.34183 3.399 9.26333 3.32141 10.9622C3.2375 12.7989 3.22008 13.3499 3.22008 18.0002C3.22008 22.6504 3.2375 23.2014 3.32141 25.0381C3.399 26.737 3.68241 27.6585 3.9215 28.2728C4.20016 29.0281 4.64508 29.7137 5.223 30.2757C5.78508 30.8537 6.47066 31.2986 7.22591 31.5772C7.84025 31.8163 8.76175 32.0998 10.4607 32.1773C12.2973 32.2612 12.8467 32.2787 17.4986 32.2787C22.1504 32.2787 22.6998 32.2612 24.5365 32.1773C26.2354 32.0998 27.1569 31.8163 27.7712 31.5772C28.5835 31.2606 29.1646 30.8853 29.7742 30.2757C30.3521 29.7137 30.797 29.0281 31.0757 28.2728C31.3147 27.6585 31.5982 26.737 31.6757 25.0381C31.7597 23.2014 31.7771 22.6504 31.7771 18.0002C31.7771 13.3499 31.7597 12.7989 31.6757 10.9622C31.5982 9.26333 31.3147 8.34183 31.0757 7.7275C30.759 6.91525 30.3838 6.33416 29.7742 5.72458C29.2124 5.14623 28.5279 4.70145 27.7712 4.42308C27.1569 4.184 26.2354 3.90058 24.5365 3.823ZM15.274 23.3692C16.5164 23.8864 17.8998 23.9562 19.1879 23.5667C20.476 23.1772 21.589 22.3526 22.3366 21.2337C23.0843 20.1148 23.4203 18.771 23.2873 17.4319C23.1543 16.0928 22.5605 14.8414 21.6073 13.8914C20.9997 13.2842 20.265 12.8192 19.4561 12.53C18.6472 12.2408 17.7843 12.1345 16.9294 12.2188C16.0745 12.3031 15.2489 12.5759 14.5121 13.0176C13.7753 13.4593 13.1456 14.0588 12.6683 14.7731C12.191 15.4873 11.878 16.2985 11.7519 17.1483C11.6257 17.998 11.6896 18.8651 11.9388 19.6872C12.188 20.5093 12.6163 21.266 13.1931 21.9026C13.7698 22.5393 14.4805 23.0402 15.274 23.3692ZM11.17 11.67C12.0013 10.8387 12.9882 10.1793 14.0743 9.7294C15.1604 9.27951 16.3245 9.04796 17.5002 9.04796C18.6758 9.04796 19.8399 9.27951 20.926 9.7294C22.0122 10.1793 22.999 10.8387 23.8303 11.67C24.6616 12.5013 25.321 13.4882 25.7709 14.5743C26.2208 15.6604 26.4524 16.8245 26.4524 18.0002C26.4524 19.1758 26.2208 20.3399 25.7709 21.426C25.321 22.5122 24.6616 23.499 23.8303 24.3303C22.1515 26.0092 19.8744 26.9524 17.5002 26.9524C15.1259 26.9524 12.8489 26.0092 11.17 24.3303C9.49113 22.6515 8.54796 20.3744 8.54796 18.0002C8.54796 15.6259 9.49113 13.3489 11.17 11.67ZM28.4378 10.3812C28.6438 10.1868 28.8087 9.95316 28.9228 9.69396C29.0369 9.43475 29.0978 9.1553 29.1019 8.87214C29.106 8.58897 29.0533 8.30786 28.9468 8.04545C28.8404 7.78303 28.6824 7.54464 28.4821 7.34439C28.2819 7.14415 28.0435 6.98611 27.7811 6.87965C27.5186 6.77319 27.2375 6.72046 26.9544 6.72459C26.6712 6.72871 26.3917 6.78962 26.1325 6.90368C25.8733 7.01775 25.6397 7.18266 25.4453 7.38866C25.0674 7.78929 24.8605 8.32144 24.8685 8.87214C24.8766 9.42283 25.0989 9.94872 25.4883 10.3382C25.8778 10.7276 26.4037 10.9499 26.9544 10.958C27.5051 10.966 28.0372 10.7591 28.4378 10.3812Z" fill="black"/>
</svg>
