<svg width="38" height="38" viewBox="0 0 38 38" fill="none" xmlns="http://www.w3.org/2000/svg">
<path fill-rule="evenodd" clip-rule="evenodd" d="M18.9997 3.08325C14.9526 3.08325 10.9997 6.09437 10.9997 11.0833C10.9997 14.0656 13.0424 17.3739 15.3901 20.1219C16.5286 21.4545 17.6714 22.5783 18.5312 23.3697C18.6993 23.5245 18.8562 23.6662 18.9997 23.7938C19.1432 23.6662 19.3001 23.5245 19.4682 23.3697C20.3279 22.5783 21.4707 21.4545 22.6092 20.1219C24.957 17.3739 26.9997 14.0656 26.9997 11.0833C26.9997 6.09437 23.0468 3.08325 18.9997 3.08325ZM18.9997 25.7655C18.0659 26.9394 18.0656 26.9391 18.0652 26.9389L18.062 26.9363L18.0547 26.9305L18.03 26.9106C18.0091 26.8937 17.9794 26.8696 17.9415 26.8385C17.8658 26.7764 17.7573 26.6863 17.6206 26.5703C17.3474 26.3384 16.9612 26.002 16.4994 25.577C15.8426 24.9724 15.0279 24.1836 14.1663 23.2562V32.6688L23.833 29.0438V23.2562C22.9714 24.1836 22.1568 24.9724 21.4999 25.577C21.0382 26.002 20.6519 26.3384 20.3787 26.5703C20.2421 26.6863 20.1336 26.7764 20.0578 26.8385C20.02 26.8696 19.9903 26.8937 19.9694 26.9106L19.9446 26.9305L19.9373 26.9363L19.9341 26.9389C19.9338 26.9391 19.9335 26.9394 18.9997 25.7655ZM26.833 19.5628V29.0942L34.9163 32.5584V15.2158L29.8327 12.9051C29.4047 15.2914 28.2048 17.5845 26.833 19.5628ZM29.9165 9.64775C29.2061 3.62932 24.0623 0.083252 18.9997 0.083252C13.7141 0.083252 8.34 3.94855 8.01518 10.4572L0.0830078 7.28437V31.0723L12.6291 36.4492L25.2957 31.6992L37.9163 37.1081V13.284L29.9165 9.64775ZM8.37144 13.8308L3.08301 11.7155V29.0942L11.1663 32.5584V19.5628C9.97296 17.8417 8.90963 15.8825 8.37144 13.8308ZM18.9997 25.7655L19.9341 26.9389L18.9997 27.6822L18.0652 26.9389L18.9997 25.7655ZM16.8194 8.90301C17.3977 8.32477 18.1819 7.99992 18.9997 7.99992C19.8174 7.99992 20.6017 8.32477 21.1799 8.90301C21.7582 9.48124 22.083 10.2655 22.083 11.0833C22.083 11.901 21.7582 12.6853 21.1799 13.2635C20.6017 13.8417 19.8174 14.1666 18.9997 14.1666C18.1819 14.1666 17.3977 13.8417 16.8194 13.2635C16.2412 12.6853 15.9163 11.901 15.9163 11.0833C15.9163 10.2655 16.2412 9.48124 16.8194 8.90301ZM18.9997 10.9999C18.9776 10.9999 18.9564 11.0087 18.9408 11.0243C18.9251 11.04 18.9163 11.0612 18.9163 11.0833C18.9163 11.1054 18.9251 11.1265 18.9408 11.1422C18.9564 11.1578 18.9776 11.1666 18.9997 11.1666C19.0218 11.1666 19.043 11.1578 19.0586 11.1422C19.0742 11.1265 19.083 11.1054 19.083 11.0833C19.083 11.0612 19.0742 11.04 19.0586 11.0243C19.043 11.0087 19.0218 10.9999 18.9997 10.9999Z" fill="black"/>
</svg>
