<svg width="34" height="26" viewBox="0 0 34 26" fill="none" xmlns="http://www.w3.org/2000/svg">
<path d="M32.4375 4.6875V21.3125C32.4375 21.9424 32.1873 22.5465 31.7419 22.9919C31.2965 23.4373 30.6924 23.6875 30.0625 23.6875H3.9375C3.30761 23.6875 2.70352 23.4373 2.25812 22.9919C1.81272 22.5465 1.5625 21.9424 1.5625 21.3125V4.6875M32.4375 4.6875C32.4375 4.05761 32.1873 3.45352 31.7419 3.00812C31.2965 2.56272 30.6924 2.3125 30.0625 2.3125H3.9375C3.30761 2.3125 2.70352 2.56272 2.25812 3.00812C1.81272 3.45352 1.5625 4.05761 1.5625 4.6875M32.4375 4.6875L18.3514 14.4392C17.9543 14.714 17.4829 14.8612 17 14.8612C16.5171 14.8612 16.0457 14.714 15.6486 14.4392L1.5625 4.6875" stroke="black" stroke-width="3" stroke-linecap="round" stroke-linejoin="round"/>
</svg>
