<svg width="34" height="26" viewBox="0 0 34 26" fill="none" xmlns="http://www.w3.org/2000/svg">
<path fill-rule="evenodd" clip-rule="evenodd" d="M1.19746 1.94746C1.92416 1.22076 2.90979 0.8125 3.9375 0.8125H30.0625C31.0902 0.8125 32.0758 1.22076 32.8025 1.94746C33.5292 2.67416 33.9375 3.65979 33.9375 4.6875V21.3125C33.9375 22.3402 33.5292 23.3258 32.8025 24.0525C32.0758 24.7792 31.0902 25.1875 30.0625 25.1875H3.9375C2.90979 25.1875 1.92416 24.7792 1.19746 24.0525C0.470758 23.3258 0.0625 22.3402 0.0625 21.3125V4.6875C0.0625 3.65979 0.470757 2.67416 1.19746 1.94746ZM3.9375 3.8125C3.70544 3.8125 3.48288 3.90469 3.31878 4.06878C3.31677 4.07079 3.31477 4.07281 3.31279 4.07483L16.5021 13.2057C16.5022 13.2058 16.502 13.2057 16.5021 13.2057C16.6484 13.3068 16.8222 13.3612 17 13.3612C17.1778 13.3612 17.3513 13.307 17.4976 13.206C17.4977 13.2059 17.4975 13.206 17.4976 13.206L30.6872 4.07484C30.6852 4.07281 30.6832 4.07079 30.6812 4.06878C30.5171 3.90469 30.2946 3.8125 30.0625 3.8125H3.9375ZM30.9375 7.55032L19.2052 15.6725C18.5573 16.1208 17.7879 16.3612 17 16.3612C16.2121 16.3612 15.443 16.121 14.7951 15.6728L3.0625 7.55032V21.3125C3.0625 21.5446 3.15469 21.7671 3.31878 21.9312C3.48288 22.0953 3.70544 22.1875 3.9375 22.1875H30.0625C30.2946 22.1875 30.5171 22.0953 30.6812 21.9312C30.8453 21.7671 30.9375 21.5446 30.9375 21.3125V7.55032Z" fill="black"/>
</svg>
