<svg width="33" height="29" viewBox="0 0 33 29" fill="none" xmlns="http://www.w3.org/2000/svg">
<path fill-rule="evenodd" clip-rule="evenodd" d="M7.66426 17.1984C7.73274 17.2195 7.80256 17.2359 7.87326 17.2475C8.32122 18.303 8.76667 19.3596 9.20959 20.4173C10.006 22.3205 10.8088 24.2806 10.9845 24.8443C11.2046 25.5378 11.4358 26.0096 11.6891 26.3326C11.8205 26.4973 11.9709 26.643 12.1483 26.7538C12.2414 26.8103 12.3401 26.8569 12.4428 26.8931C12.9494 27.0831 13.4118 27.004 13.7015 26.9074C13.8716 26.8496 14.0335 26.7697 14.1828 26.6699L14.1908 26.6667L18.6653 23.8769L23.8348 27.8384C23.9108 27.8964 23.9932 27.9455 24.0818 27.9856C24.7025 28.2548 25.3042 28.3498 25.871 28.2738C26.4347 28.1946 26.8828 27.9587 27.2168 27.6911C27.6001 27.3816 27.9059 26.9869 28.1098 26.5385L28.1241 26.5036L28.1288 26.491L28.132 26.4846V26.4815L28.1336 26.4799C28.1596 26.4113 28.1807 26.3409 28.1969 26.2693L32.9153 2.47973C32.9283 2.40332 32.9357 2.32605 32.9374 2.24856C32.9374 1.55189 32.6746 0.888476 32.0587 0.487893C31.5298 0.14431 30.9424 0.128476 30.5703 0.156976C30.1713 0.188643 29.8008 0.286809 29.5523 0.365976C29.4134 0.410829 29.2761 0.460469 29.1406 0.514809L29.1232 0.522726L2.65935 10.9031L2.65618 10.9046C2.56644 10.9371 2.47821 10.9735 2.39176 11.0139C2.18183 11.1081 1.98051 11.2204 1.79009 11.3496C1.43068 11.595 0.602595 12.2695 0.743512 13.3841C0.854345 14.2708 1.46234 14.8171 1.83443 15.0799C2.03709 15.224 2.23026 15.3269 2.37276 15.395C2.43609 15.4266 2.57226 15.4805 2.63084 15.5058L2.64668 15.5106L7.66426 17.1984ZM30.0494 2.70773H30.0463L30.0051 2.72514L3.50959 13.1197L3.46843 13.1356L3.45259 13.1403C3.40408 13.1591 3.35653 13.1802 3.3101 13.2036C3.35437 13.2285 3.39981 13.2512 3.44626 13.2717L8.42109 14.9469C8.50893 14.9794 8.59371 15.0197 8.67443 15.0672L25.1047 5.44848L25.1205 5.44056C25.1847 5.40237 25.2502 5.36646 25.3168 5.33289C25.4308 5.27431 25.6129 5.18881 25.8188 5.12548C25.9613 5.08114 26.384 4.95606 26.84 5.10331C27.0823 5.17888 27.2982 5.3214 27.4629 5.51442C27.6277 5.70745 27.7345 5.94311 27.771 6.19423C27.83 6.41392 27.8316 6.64506 27.7758 6.86556C27.6649 7.30098 27.3609 7.63981 27.0838 7.89948C26.8463 8.12114 23.7652 11.0915 20.7268 14.0238L16.5895 18.0138L15.8533 18.7263L25.1506 25.8545C25.2761 25.9069 25.4124 25.9286 25.548 25.9178C25.6163 25.9085 25.6805 25.8799 25.7333 25.8355C25.7974 25.7812 25.8524 25.7171 25.8963 25.6455L25.8995 25.6439L30.4753 2.56998C30.3314 2.60541 30.1901 2.65092 30.0526 2.70614L30.0494 2.70773ZM16.6528 22.3316L14.7972 20.9097L14.3475 23.7676L16.6528 22.3316ZM13.0951 18.0882L14.9397 16.307L19.0769 12.3138L20.6175 10.8286L10.2942 16.8722L10.3496 17.0021C11.0007 18.5402 11.6446 20.0813 12.2813 21.6254L12.7293 18.7754C12.7703 18.5112 12.8991 18.2701 13.0951 18.0882Z" fill="black"/>
</svg>
