<svg width="35" height="38" viewBox="0 0 35 38" fill="none" xmlns="http://www.w3.org/2000/svg">
<path fill-rule="evenodd" clip-rule="evenodd" d="M14.4165 1.5835C14.4165 0.755069 15.0881 0.0834961 15.9165 0.0834961H23.8332C24.4465 0.0834961 24.9981 0.456923 25.2259 1.02641C26.2222 3.51733 27.4185 5.25761 28.7518 6.36866C30.0585 7.45758 31.5637 8.00016 33.3332 8.00016C34.1616 8.00016 34.8332 8.67174 34.8332 9.50016V17.4168C34.8332 18.2453 34.1616 18.9168 33.3332 18.9168C30.2264 18.9168 27.5273 18.3745 25.3332 17.2006L25.3332 25.3317C25.3332 25.3323 25.3332 25.3329 25.3332 25.3335C25.3359 27.9777 24.5056 30.5556 22.96 32.7012C21.4142 34.8473 19.2314 36.4517 16.7218 37.2865C14.2121 38.1214 11.5032 38.1442 8.97987 37.3518C6.45651 36.5594 4.24698 34.9921 2.66514 32.8724C1.08329 30.7527 0.209563 28.1885 0.168054 25.544C0.126546 22.8994 0.91937 20.3091 2.43391 18.1408C3.94845 15.9725 6.1077 14.3366 8.60495 13.4654C10.4775 12.8121 12.4688 12.6137 14.4165 12.874V1.5835ZM17.4165 14.7588C17.417 14.7359 17.417 14.7131 17.4165 14.6903V3.0835H22.84C23.8937 5.43072 25.2096 7.322 26.8312 8.67333C28.3032 9.89996 29.9814 10.6424 31.8332 10.8988V15.8664C28.6487 15.6438 26.3983 14.6939 24.8938 13.1895C24.4648 12.7605 23.8197 12.6322 23.2591 12.8643C22.6986 13.0965 22.3332 13.6435 22.3332 14.2502V25.3353C22.3355 27.3495 21.7031 29.3134 20.5258 30.9478C19.3485 32.5822 17.6861 33.8041 15.7748 34.4399C13.8635 35.0757 11.8004 35.0931 9.87867 34.4896C7.95691 33.8861 6.27415 32.6924 5.06944 31.0781C3.86472 29.4638 3.1993 27.5109 3.16769 25.4969C3.13607 23.4828 3.73988 21.51 4.89334 19.8587C6.0468 18.2074 7.69126 16.9615 9.59313 16.298C11.1469 15.7559 12.8079 15.6251 14.4165 15.9092V20.9746C13.596 20.6609 12.7027 20.5848 11.8394 20.7565C10.9342 20.9366 10.1026 21.381 9.45 22.0337C8.79735 22.6863 8.3529 23.5178 8.17283 24.4231C7.99277 25.3283 8.08518 26.2666 8.43839 27.1194C8.7916 27.9721 9.38974 28.7009 10.1572 29.2137C10.9246 29.7265 11.8269 30.0002 12.7498 30.0002C13.9875 30.0002 15.1745 29.5085 16.0497 28.6333C16.9248 27.7582 17.4165 26.5712 17.4165 25.3335V14.7588ZM14.4165 25.3335C14.4165 25.0039 14.3187 24.6816 14.1356 24.4075C13.9525 24.1335 13.6922 23.9198 13.3876 23.7937C13.0831 23.6676 12.748 23.6345 12.4247 23.6989C12.1014 23.7632 11.8044 23.9219 11.5713 24.155C11.3382 24.3881 11.1795 24.685 11.1152 25.0083C11.0509 25.3316 11.0839 25.6668 11.21 25.9713C11.3362 26.2758 11.5498 26.5361 11.8239 26.7193C12.098 26.9024 12.4202 27.0002 12.7498 27.0002C13.1919 27.0002 13.6158 26.8246 13.9283 26.512C14.2409 26.1994 14.4165 25.7755 14.4165 25.3335Z" fill="black"/>
</svg>
